<?xml version="1.0" encoding="utf-8" standalone="no"?>
<!DOCTYPE svg PUBLIC "-//W3C//DTD SVG 1.1//EN"
  "http://www.w3.org/Graphics/SVG/1.1/DTD/svg11.dtd">
<!-- Created with matplotlib (https://matplotlib.org/) -->
<svg height="683.28pt" version="1.1" viewBox="0 0 1382.4 683.28" width="1382.4pt" xmlns="http://www.w3.org/2000/svg" xmlns:xlink="http://www.w3.org/1999/xlink">
 <defs>
  <style type="text/css">
*{stroke-linecap:butt;stroke-linejoin:round;white-space:pre;}
  </style>
 </defs>
 <g id="figure_1">
  <g id="patch_1">
   <path d="M 0 683.28 
L 1382.4 683.28 
L 1382.4 0 
L 0 0 
z
" style="fill:#ffffff;"/>
  </g>
  <g id="axes_1">
   <g id="patch_2">
    <path d="M 172.8 608.1192 
L 659.781818 608.1192 
L 659.781818 81.9936 
L 172.8 81.9936 
z
" style="fill:#eaeaf2;"/>
   </g>
   <g id="matplotlib.axis_1">
    <g id="xtick_1">
     <g id="line2d_1">
      <path clip-path="url(#p757e4d2e82)" d="M 172.8 608.1192 
L 172.8 81.9936 
" style="fill:none;stroke:#ffffff;stroke-linecap:round;"/>
     </g>
     <g id="text_1">
      <!-- −6 -->
      <defs>
       <path d="M 52.828125 31.203125 
L 5.5625 31.203125 
L 5.5625 39.40625 
L 52.828125 39.40625 
z
" id="ArialMT-8722"/>
       <path d="M 49.75 54.046875 
L 41.015625 53.375 
Q 39.84375 58.546875 37.703125 60.890625 
Q 34.125 64.65625 28.90625 64.65625 
Q 24.703125 64.65625 21.53125 62.3125 
Q 17.390625 59.28125 14.984375 53.46875 
Q 12.59375 47.65625 12.5 36.921875 
Q 15.671875 41.75 20.265625 44.09375 
Q 24.859375 46.4375 29.890625 46.4375 
Q 38.671875 46.4375 44.84375 39.96875 
Q 51.03125 33.5 51.03125 23.25 
Q 51.03125 16.5 48.125 10.71875 
Q 45.21875 4.9375 40.140625 1.859375 
Q 35.0625 -1.21875 28.609375 -1.21875 
Q 17.625 -1.21875 10.6875 6.859375 
Q 3.765625 14.9375 3.765625 33.5 
Q 3.765625 54.25 11.421875 63.671875 
Q 18.109375 71.875 29.4375 71.875 
Q 37.890625 71.875 43.28125 67.140625 
Q 48.6875 62.40625 49.75 54.046875 
z
M 13.875 23.1875 
Q 13.875 18.65625 15.796875 14.5 
Q 17.71875 10.359375 21.1875 8.171875 
Q 24.65625 6 28.46875 6 
Q 34.03125 6 38.03125 10.484375 
Q 42.046875 14.984375 42.046875 22.703125 
Q 42.046875 30.125 38.078125 34.390625 
Q 34.125 38.671875 28.125 38.671875 
Q 22.171875 38.671875 18.015625 34.390625 
Q 13.875 30.125 13.875 23.1875 
z
" id="ArialMT-54"/>
      </defs>
      <g style="fill:#262626;" transform="translate(161.825996 631.397989)scale(0.1925 -0.1925)">
       <use xlink:href="#ArialMT-8722"/>
       <use x="58.398438" xlink:href="#ArialMT-54"/>
      </g>
     </g>
    </g>
    <g id="xtick_2">
     <g id="line2d_2">
      <path clip-path="url(#p757e4d2e82)" d="M 253.963636 608.1192 
L 253.963636 81.9936 
" style="fill:none;stroke:#ffffff;stroke-linecap:round;"/>
     </g>
     <g id="text_2">
      <!-- −4 -->
      <defs>
       <path d="M 32.328125 0 
L 32.328125 17.140625 
L 1.265625 17.140625 
L 1.265625 25.203125 
L 33.9375 71.578125 
L 41.109375 71.578125 
L 41.109375 25.203125 
L 50.78125 25.203125 
L 50.78125 17.140625 
L 41.109375 17.140625 
L 41.109375 0 
z
M 32.328125 25.203125 
L 32.328125 57.46875 
L 9.90625 25.203125 
z
" id="ArialMT-52"/>
      </defs>
      <g style="fill:#262626;" transform="translate(242.989632 631.397989)scale(0.1925 -0.1925)">
       <use xlink:href="#ArialMT-8722"/>
       <use x="58.398438" xlink:href="#ArialMT-52"/>
      </g>
     </g>
    </g>
    <g id="xtick_3">
     <g id="line2d_3">
      <path clip-path="url(#p757e4d2e82)" d="M 335.127273 608.1192 
L 335.127273 81.9936 
" style="fill:none;stroke:#ffffff;stroke-linecap:round;"/>
     </g>
     <g id="text_3">
      <!-- −2 -->
      <defs>
       <path d="M 50.34375 8.453125 
L 50.34375 0 
L 3.03125 0 
Q 2.9375 3.171875 4.046875 6.109375 
Q 5.859375 10.9375 9.828125 15.625 
Q 13.8125 20.3125 21.34375 26.46875 
Q 33.015625 36.03125 37.109375 41.625 
Q 41.21875 47.21875 41.21875 52.203125 
Q 41.21875 57.421875 37.46875 61 
Q 33.734375 64.59375 27.734375 64.59375 
Q 21.390625 64.59375 17.578125 60.78125 
Q 13.765625 56.984375 13.71875 50.25 
L 4.6875 51.171875 
Q 5.609375 61.28125 11.65625 66.578125 
Q 17.71875 71.875 27.9375 71.875 
Q 38.234375 71.875 44.234375 66.15625 
Q 50.25 60.453125 50.25 52 
Q 50.25 47.703125 48.484375 43.546875 
Q 46.734375 39.40625 42.65625 34.8125 
Q 38.578125 30.21875 29.109375 22.21875 
Q 21.1875 15.578125 18.9375 13.203125 
Q 16.703125 10.84375 15.234375 8.453125 
z
" id="ArialMT-50"/>
      </defs>
      <g style="fill:#262626;" transform="translate(324.153269 631.397989)scale(0.1925 -0.1925)">
       <use xlink:href="#ArialMT-8722"/>
       <use x="58.398438" xlink:href="#ArialMT-50"/>
      </g>
     </g>
    </g>
    <g id="xtick_4">
     <g id="line2d_4">
      <path clip-path="url(#p757e4d2e82)" d="M 416.290909 608.1192 
L 416.290909 81.9936 
" style="fill:none;stroke:#ffffff;stroke-linecap:round;"/>
     </g>
     <g id="text_4">
      <!-- 0 -->
      <defs>
       <path d="M 4.15625 35.296875 
Q 4.15625 48 6.765625 55.734375 
Q 9.375 63.484375 14.515625 67.671875 
Q 19.671875 71.875 27.484375 71.875 
Q 33.25 71.875 37.59375 69.546875 
Q 41.9375 67.234375 44.765625 62.859375 
Q 47.609375 58.5 49.21875 52.21875 
Q 50.828125 45.953125 50.828125 35.296875 
Q 50.828125 22.703125 48.234375 14.96875 
Q 45.65625 7.234375 40.5 3 
Q 35.359375 -1.21875 27.484375 -1.21875 
Q 17.140625 -1.21875 11.234375 6.203125 
Q 4.15625 15.140625 4.15625 35.296875 
z
M 13.1875 35.296875 
Q 13.1875 17.671875 17.3125 11.828125 
Q 21.4375 6 27.484375 6 
Q 33.546875 6 37.671875 11.859375 
Q 41.796875 17.71875 41.796875 35.296875 
Q 41.796875 52.984375 37.671875 58.78125 
Q 33.546875 64.59375 27.390625 64.59375 
Q 21.34375 64.59375 17.71875 59.46875 
Q 13.1875 52.9375 13.1875 35.296875 
z
" id="ArialMT-48"/>
      </defs>
      <g style="fill:#262626;" transform="translate(410.938507 631.397989)scale(0.1925 -0.1925)">
       <use xlink:href="#ArialMT-48"/>
      </g>
     </g>
    </g>
    <g id="xtick_5">
     <g id="line2d_5">
      <path clip-path="url(#p757e4d2e82)" d="M 497.454545 608.1192 
L 497.454545 81.9936 
" style="fill:none;stroke:#ffffff;stroke-linecap:round;"/>
     </g>
     <g id="text_5">
      <!-- 2 -->
      <g style="fill:#262626;" transform="translate(492.102143 631.397989)scale(0.1925 -0.1925)">
       <use xlink:href="#ArialMT-50"/>
      </g>
     </g>
    </g>
    <g id="xtick_6">
     <g id="line2d_6">
      <path clip-path="url(#p757e4d2e82)" d="M 578.618182 608.1192 
L 578.618182 81.9936 
" style="fill:none;stroke:#ffffff;stroke-linecap:round;"/>
     </g>
     <g id="text_6">
      <!-- 4 -->
      <g style="fill:#262626;" transform="translate(573.265779 631.397989)scale(0.1925 -0.1925)">
       <use xlink:href="#ArialMT-52"/>
      </g>
     </g>
    </g>
    <g id="xtick_7">
     <g id="line2d_7">
      <path clip-path="url(#p757e4d2e82)" d="M 659.781818 608.1192 
L 659.781818 81.9936 
" style="fill:none;stroke:#ffffff;stroke-linecap:round;"/>
     </g>
     <g id="text_7">
      <!-- 6 -->
      <g style="fill:#262626;" transform="translate(654.429416 631.397989)scale(0.1925 -0.1925)">
       <use xlink:href="#ArialMT-54"/>
      </g>
     </g>
    </g>
    <g id="text_8">
     <!-- x -->
     <defs>
      <path d="M 0.734375 0 
L 19.671875 26.953125 
L 2.15625 51.859375 
L 13.140625 51.859375 
L 21.09375 39.703125 
Q 23.34375 36.234375 24.703125 33.890625 
Q 26.859375 37.109375 28.65625 39.59375 
L 37.40625 51.859375 
L 47.90625 51.859375 
L 29.984375 27.4375 
L 49.265625 0 
L 38.484375 0 
L 27.828125 16.109375 
L 25 20.453125 
L 11.375 0 
z
" id="ArialMT-120"/>
     </defs>
     <g style="fill:#262626;" transform="translate(411.040909 654.255333)scale(0.21 -0.21)">
      <use xlink:href="#ArialMT-120"/>
     </g>
    </g>
   </g>
   <g id="matplotlib.axis_2">
    <g id="ytick_1">
     <g id="line2d_8">
      <path clip-path="url(#p757e4d2e82)" d="M 172.8 608.1192 
L 659.781818 608.1192 
" style="fill:none;stroke:#ffffff;stroke-linecap:round;"/>
     </g>
     <g id="text_9">
      <!-- 0 -->
      <g style="fill:#262626;" transform="translate(152.595195 615.008595)scale(0.1925 -0.1925)">
       <use xlink:href="#ArialMT-48"/>
      </g>
     </g>
    </g>
    <g id="ytick_2">
     <g id="line2d_9">
      <path clip-path="url(#p757e4d2e82)" d="M 172.8 520.4316 
L 659.781818 520.4316 
" style="fill:none;stroke:#ffffff;stroke-linecap:round;"/>
     </g>
     <g id="text_10">
      <!-- 1 -->
      <defs>
       <path d="M 37.25 0 
L 28.46875 0 
L 28.46875 56 
Q 25.296875 52.984375 20.140625 49.953125 
Q 14.984375 46.921875 10.890625 45.40625 
L 10.890625 53.90625 
Q 18.265625 57.375 23.78125 62.296875 
Q 29.296875 67.234375 31.59375 71.875 
L 37.25 71.875 
z
" id="ArialMT-49"/>
      </defs>
      <g style="fill:#262626;" transform="translate(152.595195 527.320995)scale(0.1925 -0.1925)">
       <use xlink:href="#ArialMT-49"/>
      </g>
     </g>
    </g>
    <g id="ytick_3">
     <g id="line2d_10">
      <path clip-path="url(#p757e4d2e82)" d="M 172.8 432.744 
L 659.781818 432.744 
" style="fill:none;stroke:#ffffff;stroke-linecap:round;"/>
     </g>
     <g id="text_11">
      <!-- 2 -->
      <g style="fill:#262626;" transform="translate(152.595195 439.633395)scale(0.1925 -0.1925)">
       <use xlink:href="#ArialMT-50"/>
      </g>
     </g>
    </g>
    <g id="ytick_4">
     <g id="line2d_11">
      <path clip-path="url(#p757e4d2e82)" d="M 172.8 345.0564 
L 659.781818 345.0564 
" style="fill:none;stroke:#ffffff;stroke-linecap:round;"/>
     </g>
     <g id="text_12">
      <!-- 3 -->
      <defs>
       <path d="M 4.203125 18.890625 
L 12.984375 20.0625 
Q 14.5 12.59375 18.140625 9.296875 
Q 21.78125 6 27 6 
Q 33.203125 6 37.46875 10.296875 
Q 41.75 14.59375 41.75 20.953125 
Q 41.75 27 37.796875 30.921875 
Q 33.84375 34.859375 27.734375 34.859375 
Q 25.25 34.859375 21.53125 33.890625 
L 22.515625 41.609375 
Q 23.390625 41.5 23.921875 41.5 
Q 29.546875 41.5 34.03125 44.421875 
Q 38.53125 47.359375 38.53125 53.46875 
Q 38.53125 58.296875 35.25 61.46875 
Q 31.984375 64.65625 26.8125 64.65625 
Q 21.6875 64.65625 18.265625 61.421875 
Q 14.84375 58.203125 13.875 51.765625 
L 5.078125 53.328125 
Q 6.6875 62.15625 12.390625 67.015625 
Q 18.109375 71.875 26.609375 71.875 
Q 32.46875 71.875 37.390625 69.359375 
Q 42.328125 66.84375 44.9375 62.5 
Q 47.5625 58.15625 47.5625 53.265625 
Q 47.5625 48.640625 45.0625 44.828125 
Q 42.578125 41.015625 37.703125 38.765625 
Q 44.046875 37.3125 47.5625 32.6875 
Q 51.078125 28.078125 51.078125 21.140625 
Q 51.078125 11.765625 44.234375 5.25 
Q 37.40625 -1.265625 26.953125 -1.265625 
Q 17.53125 -1.265625 11.296875 4.34375 
Q 5.078125 9.96875 4.203125 18.890625 
z
" id="ArialMT-51"/>
      </defs>
      <g style="fill:#262626;" transform="translate(152.595195 351.945795)scale(0.1925 -0.1925)">
       <use xlink:href="#ArialMT-51"/>
      </g>
     </g>
    </g>
    <g id="ytick_5">
     <g id="line2d_12">
      <path clip-path="url(#p757e4d2e82)" d="M 172.8 257.3688 
L 659.781818 257.3688 
" style="fill:none;stroke:#ffffff;stroke-linecap:round;"/>
     </g>
     <g id="text_13">
      <!-- 4 -->
      <g style="fill:#262626;" transform="translate(152.595195 264.258195)scale(0.1925 -0.1925)">
       <use xlink:href="#ArialMT-52"/>
      </g>
     </g>
    </g>
    <g id="ytick_6">
     <g id="line2d_13">
      <path clip-path="url(#p757e4d2e82)" d="M 172.8 169.6812 
L 659.781818 169.6812 
" style="fill:none;stroke:#ffffff;stroke-linecap:round;"/>
     </g>
     <g id="text_14">
      <!-- 5 -->
      <defs>
       <path d="M 4.15625 18.75 
L 13.375 19.53125 
Q 14.40625 12.796875 18.140625 9.390625 
Q 21.875 6 27.15625 6 
Q 33.5 6 37.890625 10.78125 
Q 42.28125 15.578125 42.28125 23.484375 
Q 42.28125 31 38.0625 35.34375 
Q 33.84375 39.703125 27 39.703125 
Q 22.75 39.703125 19.328125 37.765625 
Q 15.921875 35.84375 13.96875 32.765625 
L 5.71875 33.84375 
L 12.640625 70.609375 
L 48.25 70.609375 
L 48.25 62.203125 
L 19.671875 62.203125 
L 15.828125 42.96875 
Q 22.265625 47.46875 29.34375 47.46875 
Q 38.71875 47.46875 45.15625 40.96875 
Q 51.609375 34.46875 51.609375 24.265625 
Q 51.609375 14.546875 45.953125 7.46875 
Q 39.0625 -1.21875 27.15625 -1.21875 
Q 17.390625 -1.21875 11.203125 4.25 
Q 5.03125 9.71875 4.15625 18.75 
z
" id="ArialMT-53"/>
      </defs>
      <g style="fill:#262626;" transform="translate(152.595195 176.570595)scale(0.1925 -0.1925)">
       <use xlink:href="#ArialMT-53"/>
      </g>
     </g>
    </g>
    <g id="ytick_7">
     <g id="line2d_14">
      <path clip-path="url(#p757e4d2e82)" d="M 172.8 81.9936 
L 659.781818 81.9936 
" style="fill:none;stroke:#ffffff;stroke-linecap:round;"/>
     </g>
     <g id="text_15">
      <!-- 6 -->
      <g style="fill:#262626;" transform="translate(152.595195 88.882995)scale(0.1925 -0.1925)">
       <use xlink:href="#ArialMT-54"/>
      </g>
     </g>
    </g>
    <g id="text_16">
     <!-- y -->
     <defs>
      <path d="M 6.203125 -19.96875 
L 5.21875 -11.71875 
Q 8.109375 -12.5 10.25 -12.5 
Q 13.1875 -12.5 14.9375 -11.515625 
Q 16.703125 -10.546875 17.828125 -8.796875 
Q 18.65625 -7.46875 20.515625 -2.25 
Q 20.75 -1.515625 21.296875 -0.09375 
L 1.609375 51.859375 
L 11.078125 51.859375 
L 21.875 21.828125 
Q 23.96875 16.109375 25.640625 9.8125 
Q 27.15625 15.875 29.25 21.625 
L 40.328125 51.859375 
L 49.125 51.859375 
L 29.390625 -0.875 
Q 26.21875 -9.421875 24.46875 -12.640625 
Q 22.125 -17 19.09375 -19.015625 
Q 16.0625 -21.046875 11.859375 -21.046875 
Q 9.328125 -21.046875 6.203125 -19.96875 
z
" id="ArialMT-121"/>
     </defs>
     <g style="fill:#262626;" transform="translate(144.175352 350.3064)rotate(-90)scale(0.21 -0.21)">
      <use xlink:href="#ArialMT-121"/>
     </g>
    </g>
   </g>
   <g id="PathCollection_1">
    <defs>
     <path d="M 0 3 
C 0.795609 3 1.55874 2.683901 2.12132 2.12132 
C 2.683901 1.55874 3 0.795609 3 0 
C 3 -0.795609 2.683901 -1.55874 2.12132 -2.12132 
C 1.55874 -2.683901 0.795609 -3 0 -3 
C -0.795609 -3 -1.55874 -2.683901 -2.12132 -2.12132 
C -2.683901 -1.55874 -3 -0.795609 -3 0 
C -3 0.795609 -2.683901 1.55874 -2.12132 2.12132 
C -1.55874 2.683901 -0.795609 3 0 3 
z
" id="m3ba4885e99" style="stroke:#ffffff;stroke-width:0.75;"/>
    </defs>
    <g clip-path="url(#p757e4d2e82)">
     <use style="fill:#0000ff;stroke:#ffffff;stroke-width:0.75;" x="492.298005" xlink:href="#m3ba4885e99" y="362.326929"/>
     <use style="fill:#0000ff;stroke:#ffffff;stroke-width:0.75;" x="491.676497" xlink:href="#m3ba4885e99" y="346.170437"/>
     <use style="fill:#0000ff;stroke:#ffffff;stroke-width:0.75;" x="489.652342" xlink:href="#m3ba4885e99" y="333.560561"/>
     <use style="fill:#0000ff;stroke:#ffffff;stroke-width:0.75;" x="488.25956" xlink:href="#m3ba4885e99" y="317.185994"/>
     <use style="fill:#0000ff;stroke:#ffffff;stroke-width:0.75;" x="486.446437" xlink:href="#m3ba4885e99" y="300.726485"/>
     <use style="fill:#0000ff;stroke:#ffffff;stroke-width:0.75;" x="484.209083" xlink:href="#m3ba4885e99" y="284.224181"/>
     <use style="fill:#0000ff;stroke:#ffffff;stroke-width:0.75;" x="480.026948" xlink:href="#m3ba4885e99" y="275.637775"/>
     <use style="fill:#0000ff;stroke:#ffffff;stroke-width:0.75;" x="474.958251" xlink:href="#m3ba4885e99" y="271.309762"/>
     <use style="fill:#0000ff;stroke:#ffffff;stroke-width:0.75;" x="474.259828" xlink:href="#m3ba4885e99" y="275.319413"/>
     <use style="fill:#0000ff;stroke:#ffffff;stroke-width:0.75;" x="479.268179" xlink:href="#m3ba4885e99" y="279.595912"/>
     <use style="fill:#0000ff;stroke:#ffffff;stroke-width:0.75;" x="477.750656" xlink:href="#m3ba4885e99" y="287.512123"/>
     <use style="fill:#0000ff;stroke:#ffffff;stroke-width:0.75;" x="485.027381" xlink:href="#m3ba4885e99" y="280.321801"/>
     <use style="fill:#0000ff;stroke:#ffffff;stroke-width:0.75;" x="482.572504" xlink:href="#m3ba4885e99" y="292.028857"/>
     <use style="fill:#0000ff;stroke:#ffffff;stroke-width:0.75;" x="481.754211" xlink:href="#m3ba4885e99" y="295.931216"/>
     <use style="fill:#0000ff;stroke:#ffffff;stroke-width:0.75;" x="480.935924" xlink:href="#m3ba4885e99" y="299.833554"/>
     <use style="fill:#0000ff;stroke:#ffffff;stroke-width:0.75;" x="480.117632" xlink:href="#m3ba4885e99" y="303.735913"/>
     <use style="fill:#0000ff;stroke:#ffffff;stroke-width:0.75;" x="487.323382" xlink:href="#m3ba4885e99" y="296.884065"/>
     <use style="fill:#0000ff;stroke:#ffffff;stroke-width:0.75;" x="489.077267" xlink:href="#m3ba4885e99" y="289.199266"/>
     <use style="fill:#0000ff;stroke:#ffffff;stroke-width:0.75;" x="488.200327" xlink:href="#m3ba4885e99" y="293.041666"/>
     <use style="fill:#0000ff;stroke:#ffffff;stroke-width:0.75;" x="485.569497" xlink:href="#m3ba4885e99" y="304.568885"/>
     <use style="fill:#0000ff;stroke:#ffffff;stroke-width:0.75;" x="484.692552" xlink:href="#m3ba4885e99" y="308.411305"/>
     <use style="fill:#0000ff;stroke:#ffffff;stroke-width:0.75;" x="483.815607" xlink:href="#m3ba4885e99" y="312.253705"/>
     <use style="fill:#0000ff;stroke:#ffffff;stroke-width:0.75;" x="482.061722" xlink:href="#m3ba4885e99" y="319.938525"/>
     <use style="fill:#0000ff;stroke:#ffffff;stroke-width:0.75;" x="489.194219" xlink:href="#m3ba4885e99" y="313.407631"/>
     <use style="fill:#0000ff;stroke:#ffffff;stroke-width:0.75;" x="491.998186" xlink:href="#m3ba4885e99" y="302.072583"/>
     <use style="fill:#0000ff;stroke:#ffffff;stroke-width:0.75;" x="491.063532" xlink:href="#m3ba4885e99" y="305.850925"/>
     <use style="fill:#0000ff;stroke:#ffffff;stroke-width:0.75;" x="490.128878" xlink:href="#m3ba4885e99" y="309.629268"/>
     <use style="fill:#0000ff;stroke:#ffffff;stroke-width:0.75;" x="487.324901" xlink:href="#m3ba4885e99" y="320.964337"/>
     <use style="fill:#0000ff;stroke:#ffffff;stroke-width:0.75;" x="486.390246" xlink:href="#m3ba4885e99" y="324.742679"/>
     <use style="fill:#0000ff;stroke:#ffffff;stroke-width:0.75;" x="485.455587" xlink:href="#m3ba4885e99" y="328.521043"/>
     <use style="fill:#0000ff;stroke:#ffffff;stroke-width:0.75;" x="484.520928" xlink:href="#m3ba4885e99" y="332.299406"/>
     <use style="fill:#0000ff;stroke:#ffffff;stroke-width:0.75;" x="483.586269" xlink:href="#m3ba4885e99" y="336.077749"/>
     <use style="fill:#0000ff;stroke:#ffffff;stroke-width:0.75;" x="482.65161" xlink:href="#m3ba4885e99" y="339.856112"/>
     <use style="fill:#0000ff;stroke:#ffffff;stroke-width:0.75;" x="488.66097" xlink:href="#m3ba4885e99" y="337.270811"/>
     <use style="fill:#0000ff;stroke:#ffffff;stroke-width:0.75;" x="491.635081" xlink:href="#m3ba4885e99" y="326.140081"/>
     <use style="fill:#0000ff;stroke:#ffffff;stroke-width:0.75;" x="495.600563" xlink:href="#m3ba4885e99" y="311.299058"/>
     <use style="fill:#0000ff;stroke:#ffffff;stroke-width:0.75;" x="487.669599" xlink:href="#m3ba4885e99" y="340.981083"/>
     <use style="fill:#0000ff;stroke:#ffffff;stroke-width:0.75;" x="486.678227" xlink:href="#m3ba4885e99" y="344.691333"/>
     <use style="fill:#0000ff;stroke:#ffffff;stroke-width:0.75;" x="485.68686" xlink:href="#m3ba4885e99" y="348.401563"/>
     <use style="fill:#0000ff;stroke:#ffffff;stroke-width:0.75;" x="484.695488" xlink:href="#m3ba4885e99" y="352.111834"/>
     <use style="fill:#0000ff;stroke:#ffffff;stroke-width:0.75;" x="490.629472" xlink:href="#m3ba4885e99" y="349.808623"/>
     <use style="fill:#0000ff;stroke:#ffffff;stroke-width:0.75;" x="492.723522" xlink:href="#m3ba4885e99" y="342.532271"/>
     <use style="fill:#0000ff;stroke:#ffffff;stroke-width:0.75;" x="489.582456" xlink:href="#m3ba4885e99" y="353.446788"/>
     <use style="fill:#0000ff;stroke:#ffffff;stroke-width:0.75;" x="488.535431" xlink:href="#m3ba4885e99" y="357.084975"/>
     <use style="fill:#0000ff;stroke:#ffffff;stroke-width:0.75;" x="487.488411" xlink:href="#m3ba4885e99" y="360.723161"/>
     <use style="fill:#0000ff;stroke:#ffffff;stroke-width:0.75;" x="494.501107" xlink:href="#m3ba4885e99" y="355.202525"/>
     <use style="fill:#0000ff;stroke:#ffffff;stroke-width:0.75;" x="495.602663" xlink:href="#m3ba4885e99" y="351.640312"/>
     <use style="fill:#0000ff;stroke:#ffffff;stroke-width:0.75;" x="493.39956" xlink:href="#m3ba4885e99" y="358.764717"/>
    </g>
   </g>
   <g id="patch_3">
    <path d="M 172.8 608.1192 
L 172.8 81.9936 
" style="fill:none;stroke:#ffffff;stroke-linecap:square;stroke-linejoin:miter;stroke-width:1.25;"/>
   </g>
   <g id="patch_4">
    <path d="M 659.781818 608.1192 
L 659.781818 81.9936 
" style="fill:none;stroke:#ffffff;stroke-linecap:square;stroke-linejoin:miter;stroke-width:1.25;"/>
   </g>
   <g id="patch_5">
    <path d="M 172.8 608.1192 
L 659.781818 608.1192 
" style="fill:none;stroke:#ffffff;stroke-linecap:square;stroke-linejoin:miter;stroke-width:1.25;"/>
   </g>
   <g id="patch_6">
    <path d="M 172.8 81.9936 
L 659.781818 81.9936 
" style="fill:none;stroke:#ffffff;stroke-linecap:square;stroke-linejoin:miter;stroke-width:1.25;"/>
   </g>
   <g id="text_17">
    <!-- Before SNR Filtering -->
    <defs>
     <path d="M 7.328125 0 
L 7.328125 71.578125 
L 34.1875 71.578125 
Q 42.390625 71.578125 47.34375 69.40625 
Q 52.296875 67.234375 55.09375 62.71875 
Q 57.90625 58.203125 57.90625 53.265625 
Q 57.90625 48.6875 55.421875 44.625 
Q 52.9375 40.578125 47.90625 38.09375 
Q 54.390625 36.1875 57.875 31.59375 
Q 61.375 27 61.375 20.75 
Q 61.375 15.71875 59.25 11.390625 
Q 57.125 7.078125 54 4.734375 
Q 50.875 2.390625 46.15625 1.1875 
Q 41.453125 0 34.625 0 
z
M 16.796875 41.5 
L 32.28125 41.5 
Q 38.578125 41.5 41.3125 42.328125 
Q 44.921875 43.40625 46.75 45.890625 
Q 48.578125 48.390625 48.578125 52.15625 
Q 48.578125 55.71875 46.875 58.421875 
Q 45.171875 61.140625 41.984375 62.140625 
Q 38.8125 63.140625 31.109375 63.140625 
L 16.796875 63.140625 
z
M 16.796875 8.453125 
L 34.625 8.453125 
Q 39.203125 8.453125 41.0625 8.796875 
Q 44.34375 9.375 46.53125 10.734375 
Q 48.734375 12.109375 50.140625 14.71875 
Q 51.5625 17.328125 51.5625 20.75 
Q 51.5625 24.75 49.515625 27.703125 
Q 47.46875 30.671875 43.828125 31.859375 
Q 40.1875 33.0625 33.34375 33.0625 
L 16.796875 33.0625 
z
" id="ArialMT-66"/>
     <path d="M 42.09375 16.703125 
L 51.171875 15.578125 
Q 49.03125 7.625 43.21875 3.21875 
Q 37.40625 -1.171875 28.375 -1.171875 
Q 17 -1.171875 10.328125 5.828125 
Q 3.65625 12.84375 3.65625 25.484375 
Q 3.65625 38.578125 10.390625 45.796875 
Q 17.140625 53.03125 27.875 53.03125 
Q 38.28125 53.03125 44.875 45.953125 
Q 51.46875 38.875 51.46875 26.03125 
Q 51.46875 25.25 51.421875 23.6875 
L 12.75 23.6875 
Q 13.234375 15.140625 17.578125 10.59375 
Q 21.921875 6.0625 28.421875 6.0625 
Q 33.25 6.0625 36.671875 8.59375 
Q 40.09375 11.140625 42.09375 16.703125 
z
M 13.234375 30.90625 
L 42.1875 30.90625 
Q 41.609375 37.453125 38.875 40.71875 
Q 34.671875 45.796875 27.984375 45.796875 
Q 21.921875 45.796875 17.796875 41.75 
Q 13.671875 37.703125 13.234375 30.90625 
z
" id="ArialMT-101"/>
     <path d="M 8.6875 0 
L 8.6875 45.015625 
L 0.921875 45.015625 
L 0.921875 51.859375 
L 8.6875 51.859375 
L 8.6875 57.375 
Q 8.6875 62.59375 9.625 65.140625 
Q 10.890625 68.5625 14.078125 70.671875 
Q 17.28125 72.796875 23.046875 72.796875 
Q 26.765625 72.796875 31.25 71.921875 
L 29.9375 64.265625 
Q 27.203125 64.75 24.75 64.75 
Q 20.75 64.75 19.09375 63.03125 
Q 17.4375 61.328125 17.4375 56.640625 
L 17.4375 51.859375 
L 27.546875 51.859375 
L 27.546875 45.015625 
L 17.4375 45.015625 
L 17.4375 0 
z
" id="ArialMT-102"/>
     <path d="M 3.328125 25.921875 
Q 3.328125 40.328125 11.328125 47.265625 
Q 18.015625 53.03125 27.640625 53.03125 
Q 38.328125 53.03125 45.109375 46.015625 
Q 51.90625 39.015625 51.90625 26.65625 
Q 51.90625 16.65625 48.90625 10.90625 
Q 45.90625 5.171875 40.15625 2 
Q 34.421875 -1.171875 27.640625 -1.171875 
Q 16.75 -1.171875 10.03125 5.8125 
Q 3.328125 12.796875 3.328125 25.921875 
z
M 12.359375 25.921875 
Q 12.359375 15.96875 16.703125 11.015625 
Q 21.046875 6.0625 27.640625 6.0625 
Q 34.1875 6.0625 38.53125 11.03125 
Q 42.875 16.015625 42.875 26.21875 
Q 42.875 35.84375 38.5 40.796875 
Q 34.125 45.75 27.640625 45.75 
Q 21.046875 45.75 16.703125 40.8125 
Q 12.359375 35.890625 12.359375 25.921875 
z
" id="ArialMT-111"/>
     <path d="M 6.5 0 
L 6.5 51.859375 
L 14.40625 51.859375 
L 14.40625 44 
Q 17.4375 49.515625 20 51.265625 
Q 22.5625 53.03125 25.640625 53.03125 
Q 30.078125 53.03125 34.671875 50.203125 
L 31.640625 42.046875 
Q 28.421875 43.953125 25.203125 43.953125 
Q 22.3125 43.953125 20.015625 42.21875 
Q 17.71875 40.484375 16.75 37.40625 
Q 15.28125 32.71875 15.28125 27.15625 
L 15.28125 0 
z
" id="ArialMT-114"/>
     <path id="ArialMT-32"/>
     <path d="M 4.5 23 
L 13.421875 23.78125 
Q 14.0625 18.40625 16.375 14.96875 
Q 18.703125 11.53125 23.578125 9.40625 
Q 28.46875 7.28125 34.578125 7.28125 
Q 39.984375 7.28125 44.140625 8.890625 
Q 48.296875 10.5 50.3125 13.296875 
Q 52.34375 16.109375 52.34375 19.4375 
Q 52.34375 22.796875 50.390625 25.3125 
Q 48.4375 27.828125 43.953125 29.546875 
Q 41.0625 30.671875 31.203125 33.03125 
Q 21.34375 35.40625 17.390625 37.5 
Q 12.25 40.1875 9.734375 44.15625 
Q 7.234375 48.140625 7.234375 53.078125 
Q 7.234375 58.5 10.296875 63.203125 
Q 13.375 67.921875 19.28125 70.359375 
Q 25.203125 72.796875 32.421875 72.796875 
Q 40.375 72.796875 46.453125 70.234375 
Q 52.546875 67.671875 55.8125 62.6875 
Q 59.078125 57.71875 59.328125 51.421875 
L 50.25 50.734375 
Q 49.515625 57.515625 45.28125 60.984375 
Q 41.0625 64.453125 32.8125 64.453125 
Q 24.21875 64.453125 20.28125 61.296875 
Q 16.359375 58.15625 16.359375 53.71875 
Q 16.359375 49.859375 19.140625 47.359375 
Q 21.875 44.875 33.421875 42.265625 
Q 44.96875 39.65625 49.265625 37.703125 
Q 55.515625 34.8125 58.484375 30.390625 
Q 61.46875 25.984375 61.46875 20.21875 
Q 61.46875 14.5 58.203125 9.4375 
Q 54.9375 4.390625 48.796875 1.578125 
Q 42.671875 -1.21875 35.015625 -1.21875 
Q 25.296875 -1.21875 18.71875 1.609375 
Q 12.15625 4.4375 8.421875 10.125 
Q 4.6875 15.828125 4.5 23 
z
" id="ArialMT-83"/>
     <path d="M 7.625 0 
L 7.625 71.578125 
L 17.328125 71.578125 
L 54.9375 15.375 
L 54.9375 71.578125 
L 64.015625 71.578125 
L 64.015625 0 
L 54.296875 0 
L 16.703125 56.25 
L 16.703125 0 
z
" id="ArialMT-78"/>
     <path d="M 7.859375 0 
L 7.859375 71.578125 
L 39.59375 71.578125 
Q 49.171875 71.578125 54.140625 69.640625 
Q 59.125 67.71875 62.109375 62.828125 
Q 65.09375 57.953125 65.09375 52.046875 
Q 65.09375 44.4375 60.15625 39.203125 
Q 55.21875 33.984375 44.921875 32.5625 
Q 48.6875 30.765625 50.640625 29 
Q 54.78125 25.203125 58.5 19.484375 
L 70.953125 0 
L 59.03125 0 
L 49.5625 14.890625 
Q 45.40625 21.34375 42.71875 24.75 
Q 40.046875 28.171875 37.921875 29.53125 
Q 35.796875 30.90625 33.59375 31.453125 
Q 31.984375 31.78125 28.328125 31.78125 
L 17.328125 31.78125 
L 17.328125 0 
z
M 17.328125 39.984375 
L 37.703125 39.984375 
Q 44.1875 39.984375 47.84375 41.328125 
Q 51.515625 42.671875 53.421875 45.625 
Q 55.328125 48.578125 55.328125 52.046875 
Q 55.328125 57.125 51.640625 60.390625 
Q 47.953125 63.671875 39.984375 63.671875 
L 17.328125 63.671875 
z
" id="ArialMT-82"/>
     <path d="M 8.203125 0 
L 8.203125 71.578125 
L 56.5 71.578125 
L 56.5 63.140625 
L 17.671875 63.140625 
L 17.671875 40.96875 
L 51.265625 40.96875 
L 51.265625 32.515625 
L 17.671875 32.515625 
L 17.671875 0 
z
" id="ArialMT-70"/>
     <path d="M 6.640625 61.46875 
L 6.640625 71.578125 
L 15.4375 71.578125 
L 15.4375 61.46875 
z
M 6.640625 0 
L 6.640625 51.859375 
L 15.4375 51.859375 
L 15.4375 0 
z
" id="ArialMT-105"/>
     <path d="M 6.390625 0 
L 6.390625 71.578125 
L 15.1875 71.578125 
L 15.1875 0 
z
" id="ArialMT-108"/>
     <path d="M 25.78125 7.859375 
L 27.046875 0.09375 
Q 23.34375 -0.6875 20.40625 -0.6875 
Q 15.625 -0.6875 12.984375 0.828125 
Q 10.359375 2.34375 9.28125 4.8125 
Q 8.203125 7.28125 8.203125 15.1875 
L 8.203125 45.015625 
L 1.765625 45.015625 
L 1.765625 51.859375 
L 8.203125 51.859375 
L 8.203125 64.703125 
L 16.9375 69.96875 
L 16.9375 51.859375 
L 25.78125 51.859375 
L 25.78125 45.015625 
L 16.9375 45.015625 
L 16.9375 14.703125 
Q 16.9375 10.9375 17.40625 9.859375 
Q 17.875 8.796875 18.921875 8.15625 
Q 19.96875 7.515625 21.921875 7.515625 
Q 23.390625 7.515625 25.78125 7.859375 
z
" id="ArialMT-116"/>
     <path d="M 6.59375 0 
L 6.59375 51.859375 
L 14.5 51.859375 
L 14.5 44.484375 
Q 20.21875 53.03125 31 53.03125 
Q 35.6875 53.03125 39.625 51.34375 
Q 43.5625 49.65625 45.515625 46.921875 
Q 47.46875 44.1875 48.25 40.4375 
Q 48.734375 37.984375 48.734375 31.890625 
L 48.734375 0 
L 39.9375 0 
L 39.9375 31.546875 
Q 39.9375 36.921875 38.90625 39.578125 
Q 37.890625 42.234375 35.28125 43.8125 
Q 32.671875 45.40625 29.15625 45.40625 
Q 23.53125 45.40625 19.453125 41.84375 
Q 15.375 38.28125 15.375 28.328125 
L 15.375 0 
z
" id="ArialMT-110"/>
     <path d="M 4.984375 -4.296875 
L 13.53125 -5.5625 
Q 14.0625 -9.515625 16.5 -11.328125 
Q 19.78125 -13.765625 25.4375 -13.765625 
Q 31.546875 -13.765625 34.859375 -11.328125 
Q 38.1875 -8.890625 39.359375 -4.5 
Q 40.046875 -1.8125 39.984375 6.78125 
Q 34.234375 0 25.640625 0 
Q 14.9375 0 9.078125 7.71875 
Q 3.21875 15.4375 3.21875 26.21875 
Q 3.21875 33.640625 5.90625 39.90625 
Q 8.59375 46.1875 13.6875 49.609375 
Q 18.796875 53.03125 25.6875 53.03125 
Q 34.859375 53.03125 40.828125 45.609375 
L 40.828125 51.859375 
L 48.921875 51.859375 
L 48.921875 7.03125 
Q 48.921875 -5.078125 46.453125 -10.125 
Q 44 -15.1875 38.640625 -18.109375 
Q 33.296875 -21.046875 25.484375 -21.046875 
Q 16.21875 -21.046875 10.5 -16.875 
Q 4.78125 -12.703125 4.984375 -4.296875 
z
M 12.25 26.859375 
Q 12.25 16.65625 16.296875 11.96875 
Q 20.359375 7.28125 26.46875 7.28125 
Q 32.515625 7.28125 36.609375 11.9375 
Q 40.71875 16.609375 40.71875 26.5625 
Q 40.71875 36.078125 36.5 40.90625 
Q 32.28125 45.75 26.3125 45.75 
Q 20.453125 45.75 16.34375 40.984375 
Q 12.25 36.234375 12.25 26.859375 
z
" id="ArialMT-103"/>
    </defs>
    <g style="fill:#262626;" transform="translate(320.010831 75.9936)scale(0.21 -0.21)">
     <use xlink:href="#ArialMT-66"/>
     <use x="66.699219" xlink:href="#ArialMT-101"/>
     <use x="122.314453" xlink:href="#ArialMT-102"/>
     <use x="150.097656" xlink:href="#ArialMT-111"/>
     <use x="205.712891" xlink:href="#ArialMT-114"/>
     <use x="239.013672" xlink:href="#ArialMT-101"/>
     <use x="294.628906" xlink:href="#ArialMT-32"/>
     <use x="322.412109" xlink:href="#ArialMT-83"/>
     <use x="389.111328" xlink:href="#ArialMT-78"/>
     <use x="461.328125" xlink:href="#ArialMT-82"/>
     <use x="533.544922" xlink:href="#ArialMT-32"/>
     <use x="561.328125" xlink:href="#ArialMT-70"/>
     <use x="622.412109" xlink:href="#ArialMT-105"/>
     <use x="644.628906" xlink:href="#ArialMT-108"/>
     <use x="666.845703" xlink:href="#ArialMT-116"/>
     <use x="694.628906" xlink:href="#ArialMT-101"/>
     <use x="750.244141" xlink:href="#ArialMT-114"/>
     <use x="783.544922" xlink:href="#ArialMT-105"/>
     <use x="805.761719" xlink:href="#ArialMT-110"/>
     <use x="861.376953" xlink:href="#ArialMT-103"/>
    </g>
   </g>
  </g>
  <g id="axes_2">
   <g id="patch_7">
    <path d="M 757.178182 608.1192 
L 1244.16 608.1192 
L 1244.16 81.9936 
L 757.178182 81.9936 
z
" style="fill:#eaeaf2;"/>
   </g>
   <g id="matplotlib.axis_3">
    <g id="xtick_8">
     <g id="line2d_15">
      <path clip-path="url(#p7a58fb8772)" d="M 757.178182 608.1192 
L 757.178182 81.9936 
" style="fill:none;stroke:#ffffff;stroke-linecap:round;"/>
     </g>
     <g id="text_18">
      <!-- −6 -->
      <g style="fill:#262626;" transform="translate(746.204178 631.397989)scale(0.1925 -0.1925)">
       <use xlink:href="#ArialMT-8722"/>
       <use x="58.398438" xlink:href="#ArialMT-54"/>
      </g>
     </g>
    </g>
    <g id="xtick_9">
     <g id="line2d_16">
      <path clip-path="url(#p7a58fb8772)" d="M 838.341818 608.1192 
L 838.341818 81.9936 
" style="fill:none;stroke:#ffffff;stroke-linecap:round;"/>
     </g>
     <g id="text_19">
      <!-- −4 -->
      <g style="fill:#262626;" transform="translate(827.367814 631.397989)scale(0.1925 -0.1925)">
       <use xlink:href="#ArialMT-8722"/>
       <use x="58.398438" xlink:href="#ArialMT-52"/>
      </g>
     </g>
    </g>
    <g id="xtick_10">
     <g id="line2d_17">
      <path clip-path="url(#p7a58fb8772)" d="M 919.505455 608.1192 
L 919.505455 81.9936 
" style="fill:none;stroke:#ffffff;stroke-linecap:round;"/>
     </g>
     <g id="text_20">
      <!-- −2 -->
      <g style="fill:#262626;" transform="translate(908.531451 631.397989)scale(0.1925 -0.1925)">
       <use xlink:href="#ArialMT-8722"/>
       <use x="58.398438" xlink:href="#ArialMT-50"/>
      </g>
     </g>
    </g>
    <g id="xtick_11">
     <g id="line2d_18">
      <path clip-path="url(#p7a58fb8772)" d="M 1000.669091 608.1192 
L 1000.669091 81.9936 
" style="fill:none;stroke:#ffffff;stroke-linecap:round;"/>
     </g>
     <g id="text_21">
      <!-- 0 -->
      <g style="fill:#262626;" transform="translate(995.316689 631.397989)scale(0.1925 -0.1925)">
       <use xlink:href="#ArialMT-48"/>
      </g>
     </g>
    </g>
    <g id="xtick_12">
     <g id="line2d_19">
      <path clip-path="url(#p7a58fb8772)" d="M 1081.832727 608.1192 
L 1081.832727 81.9936 
" style="fill:none;stroke:#ffffff;stroke-linecap:round;"/>
     </g>
     <g id="text_22">
      <!-- 2 -->
      <g style="fill:#262626;" transform="translate(1076.480325 631.397989)scale(0.1925 -0.1925)">
       <use xlink:href="#ArialMT-50"/>
      </g>
     </g>
    </g>
    <g id="xtick_13">
     <g id="line2d_20">
      <path clip-path="url(#p7a58fb8772)" d="M 1162.996364 608.1192 
L 1162.996364 81.9936 
" style="fill:none;stroke:#ffffff;stroke-linecap:round;"/>
     </g>
     <g id="text_23">
      <!-- 4 -->
      <g style="fill:#262626;" transform="translate(1157.643961 631.397989)scale(0.1925 -0.1925)">
       <use xlink:href="#ArialMT-52"/>
      </g>
     </g>
    </g>
    <g id="xtick_14">
     <g id="line2d_21">
      <path clip-path="url(#p7a58fb8772)" d="M 1244.16 608.1192 
L 1244.16 81.9936 
" style="fill:none;stroke:#ffffff;stroke-linecap:round;"/>
     </g>
     <g id="text_24">
      <!-- 6 -->
      <g style="fill:#262626;" transform="translate(1238.807598 631.397989)scale(0.1925 -0.1925)">
       <use xlink:href="#ArialMT-54"/>
      </g>
     </g>
    </g>
    <g id="text_25">
     <!-- x -->
     <g style="fill:#262626;" transform="translate(995.419091 654.255333)scale(0.21 -0.21)">
      <use xlink:href="#ArialMT-120"/>
     </g>
    </g>
   </g>
   <g id="matplotlib.axis_4">
    <g id="ytick_8">
     <g id="line2d_22">
      <path clip-path="url(#p7a58fb8772)" d="M 757.178182 608.1192 
L 1244.16 608.1192 
" style="fill:none;stroke:#ffffff;stroke-linecap:round;"/>
     </g>
     <g id="text_26">
      <!-- 0 -->
      <g style="fill:#262626;" transform="translate(736.973377 615.008595)scale(0.1925 -0.1925)">
       <use xlink:href="#ArialMT-48"/>
      </g>
     </g>
    </g>
    <g id="ytick_9">
     <g id="line2d_23">
      <path clip-path="url(#p7a58fb8772)" d="M 757.178182 520.4316 
L 1244.16 520.4316 
" style="fill:none;stroke:#ffffff;stroke-linecap:round;"/>
     </g>
     <g id="text_27">
      <!-- 1 -->
      <g style="fill:#262626;" transform="translate(736.973377 527.320995)scale(0.1925 -0.1925)">
       <use xlink:href="#ArialMT-49"/>
      </g>
     </g>
    </g>
    <g id="ytick_10">
     <g id="line2d_24">
      <path clip-path="url(#p7a58fb8772)" d="M 757.178182 432.744 
L 1244.16 432.744 
" style="fill:none;stroke:#ffffff;stroke-linecap:round;"/>
     </g>
     <g id="text_28">
      <!-- 2 -->
      <g style="fill:#262626;" transform="translate(736.973377 439.633395)scale(0.1925 -0.1925)">
       <use xlink:href="#ArialMT-50"/>
      </g>
     </g>
    </g>
    <g id="ytick_11">
     <g id="line2d_25">
      <path clip-path="url(#p7a58fb8772)" d="M 757.178182 345.0564 
L 1244.16 345.0564 
" style="fill:none;stroke:#ffffff;stroke-linecap:round;"/>
     </g>
     <g id="text_29">
      <!-- 3 -->
      <g style="fill:#262626;" transform="translate(736.973377 351.945795)scale(0.1925 -0.1925)">
       <use xlink:href="#ArialMT-51"/>
      </g>
     </g>
    </g>
    <g id="ytick_12">
     <g id="line2d_26">
      <path clip-path="url(#p7a58fb8772)" d="M 757.178182 257.3688 
L 1244.16 257.3688 
" style="fill:none;stroke:#ffffff;stroke-linecap:round;"/>
     </g>
     <g id="text_30">
      <!-- 4 -->
      <g style="fill:#262626;" transform="translate(736.973377 264.258195)scale(0.1925 -0.1925)">
       <use xlink:href="#ArialMT-52"/>
      </g>
     </g>
    </g>
    <g id="ytick_13">
     <g id="line2d_27">
      <path clip-path="url(#p7a58fb8772)" d="M 757.178182 169.6812 
L 1244.16 169.6812 
" style="fill:none;stroke:#ffffff;stroke-linecap:round;"/>
     </g>
     <g id="text_31">
      <!-- 5 -->
      <g style="fill:#262626;" transform="translate(736.973377 176.570595)scale(0.1925 -0.1925)">
       <use xlink:href="#ArialMT-53"/>
      </g>
     </g>
    </g>
    <g id="ytick_14">
     <g id="line2d_28">
      <path clip-path="url(#p7a58fb8772)" d="M 757.178182 81.9936 
L 1244.16 81.9936 
" style="fill:none;stroke:#ffffff;stroke-linecap:round;"/>
     </g>
     <g id="text_32">
      <!-- 6 -->
      <g style="fill:#262626;" transform="translate(736.973377 88.882995)scale(0.1925 -0.1925)">
       <use xlink:href="#ArialMT-54"/>
      </g>
     </g>
    </g>
    <g id="text_33">
     <!-- y -->
     <g style="fill:#262626;" transform="translate(728.553533 350.3064)rotate(-90)scale(0.21 -0.21)">
      <use xlink:href="#ArialMT-121"/>
     </g>
    </g>
   </g>
   <g id="PathCollection_2">
    <g clip-path="url(#p7a58fb8772)">
     <use style="fill:#0000ff;stroke:#ffffff;stroke-width:0.75;" x="1076.054678" xlink:href="#m3ba4885e99" y="346.170437"/>
     <use style="fill:#0000ff;stroke:#ffffff;stroke-width:0.75;" x="1070.824618" xlink:href="#m3ba4885e99" y="300.726485"/>
     <use style="fill:#0000ff;stroke:#ffffff;stroke-width:0.75;" x="1065.314106" xlink:href="#m3ba4885e99" y="299.833554"/>
     <use style="fill:#0000ff;stroke:#ffffff;stroke-width:0.75;" x="1064.495813" xlink:href="#m3ba4885e99" y="303.735913"/>
     <use style="fill:#0000ff;stroke:#ffffff;stroke-width:0.75;" x="1069.947678" xlink:href="#m3ba4885e99" y="304.568885"/>
     <use style="fill:#0000ff;stroke:#ffffff;stroke-width:0.75;" x="1069.070733" xlink:href="#m3ba4885e99" y="308.411305"/>
     <use style="fill:#0000ff;stroke:#ffffff;stroke-width:0.75;" x="1073.572401" xlink:href="#m3ba4885e99" y="313.407631"/>
     <use style="fill:#0000ff;stroke:#ffffff;stroke-width:0.75;" x="1075.441714" xlink:href="#m3ba4885e99" y="305.850925"/>
     <use style="fill:#0000ff;stroke:#ffffff;stroke-width:0.75;" x="1068.89911" xlink:href="#m3ba4885e99" y="332.299406"/>
     <use style="fill:#0000ff;stroke:#ffffff;stroke-width:0.75;" x="1067.964451" xlink:href="#m3ba4885e99" y="336.077749"/>
     <use style="fill:#0000ff;stroke:#ffffff;stroke-width:0.75;" x="1067.029792" xlink:href="#m3ba4885e99" y="339.856112"/>
     <use style="fill:#0000ff;stroke:#ffffff;stroke-width:0.75;" x="1073.039152" xlink:href="#m3ba4885e99" y="337.270811"/>
     <use style="fill:#0000ff;stroke:#ffffff;stroke-width:0.75;" x="1072.04778" xlink:href="#m3ba4885e99" y="340.981083"/>
     <use style="fill:#0000ff;stroke:#ffffff;stroke-width:0.75;" x="1071.056409" xlink:href="#m3ba4885e99" y="344.691333"/>
     <use style="fill:#0000ff;stroke:#ffffff;stroke-width:0.75;" x="1070.065042" xlink:href="#m3ba4885e99" y="348.401563"/>
     <use style="fill:#0000ff;stroke:#ffffff;stroke-width:0.75;" x="1075.007653" xlink:href="#m3ba4885e99" y="349.808623"/>
     <use style="fill:#0000ff;stroke:#ffffff;stroke-width:0.75;" x="1077.101703" xlink:href="#m3ba4885e99" y="342.532271"/>
     <use style="fill:#0000ff;stroke:#ffffff;stroke-width:0.75;" x="1073.960638" xlink:href="#m3ba4885e99" y="353.446788"/>
     <use style="fill:#0000ff;stroke:#ffffff;stroke-width:0.75;" x="1072.913613" xlink:href="#m3ba4885e99" y="357.084975"/>
     <use style="fill:#0000ff;stroke:#ffffff;stroke-width:0.75;" x="1077.777742" xlink:href="#m3ba4885e99" y="358.764717"/>
    </g>
   </g>
   <g id="patch_8">
    <path d="M 757.178182 608.1192 
L 757.178182 81.9936 
" style="fill:none;stroke:#ffffff;stroke-linecap:square;stroke-linejoin:miter;stroke-width:1.25;"/>
   </g>
   <g id="patch_9">
    <path d="M 1244.16 608.1192 
L 1244.16 81.9936 
" style="fill:none;stroke:#ffffff;stroke-linecap:square;stroke-linejoin:miter;stroke-width:1.25;"/>
   </g>
   <g id="patch_10">
    <path d="M 757.178182 608.1192 
L 1244.16 608.1192 
" style="fill:none;stroke:#ffffff;stroke-linecap:square;stroke-linejoin:miter;stroke-width:1.25;"/>
   </g>
   <g id="patch_11">
    <path d="M 757.178182 81.9936 
L 1244.16 81.9936 
" style="fill:none;stroke:#ffffff;stroke-linecap:square;stroke-linejoin:miter;stroke-width:1.25;"/>
   </g>
   <g id="text_34">
    <!-- After SNR Filtering -->
    <defs>
     <path d="M -0.140625 0 
L 27.34375 71.578125 
L 37.546875 71.578125 
L 66.84375 0 
L 56.0625 0 
L 47.703125 21.6875 
L 17.78125 21.6875 
L 9.90625 0 
z
M 20.515625 29.390625 
L 44.78125 29.390625 
L 37.3125 49.21875 
Q 33.890625 58.25 32.234375 64.0625 
Q 30.859375 57.171875 28.375 50.390625 
z
" id="ArialMT-65"/>
    </defs>
    <g style="fill:#262626;" transform="translate(913.14995 75.9936)scale(0.21 -0.21)">
     <use xlink:href="#ArialMT-65"/>
     <use x="66.699219" xlink:href="#ArialMT-102"/>
     <use x="94.482422" xlink:href="#ArialMT-116"/>
     <use x="122.265625" xlink:href="#ArialMT-101"/>
     <use x="177.880859" xlink:href="#ArialMT-114"/>
     <use x="211.181641" xlink:href="#ArialMT-32"/>
     <use x="238.964844" xlink:href="#ArialMT-83"/>
     <use x="305.664062" xlink:href="#ArialMT-78"/>
     <use x="377.880859" xlink:href="#ArialMT-82"/>
     <use x="450.097656" xlink:href="#ArialMT-32"/>
     <use x="477.880859" xlink:href="#ArialMT-70"/>
     <use x="538.964844" xlink:href="#ArialMT-105"/>
     <use x="561.181641" xlink:href="#ArialMT-108"/>
     <use x="583.398438" xlink:href="#ArialMT-116"/>
     <use x="611.181641" xlink:href="#ArialMT-101"/>
     <use x="666.796875" xlink:href="#ArialMT-114"/>
     <use x="700.097656" xlink:href="#ArialMT-105"/>
     <use x="722.314453" xlink:href="#ArialMT-110"/>
     <use x="777.929688" xlink:href="#ArialMT-103"/>
    </g>
   </g>
  </g>
 </g>
 <defs>
  <clipPath id="p757e4d2e82">
   <rect height="526.1256" width="486.981818" x="172.8" y="81.9936"/>
  </clipPath>
  <clipPath id="p7a58fb8772">
   <rect height="526.1256" width="486.981818" x="757.178182" y="81.9936"/>
  </clipPath>
 </defs>
</svg>
