<?xml version="1.0" encoding="utf-8" standalone="no"?>
<!DOCTYPE svg PUBLIC "-//W3C//DTD SVG 1.1//EN"
  "http://www.w3.org/Graphics/SVG/1.1/DTD/svg11.dtd">
<!-- Created with matplotlib (https://matplotlib.org/) -->
<svg height="683.28pt" version="1.1" viewBox="0 0 1382.4 683.28" width="1382.4pt" xmlns="http://www.w3.org/2000/svg" xmlns:xlink="http://www.w3.org/1999/xlink">
 <defs>
  <style type="text/css">
*{stroke-linecap:butt;stroke-linejoin:round;white-space:pre;}
  </style>
 </defs>
 <g id="figure_1">
  <g id="patch_1">
   <path d="M 0 683.28 
L 1382.4 683.28 
L 1382.4 0 
L 0 0 
z
" style="fill:#ffffff;"/>
  </g>
  <g id="axes_1">
   <g id="patch_2">
    <path d="M 172.8 608.1192 
L 1244.16 608.1192 
L 1244.16 81.9936 
L 172.8 81.9936 
z
" style="fill:#ffffff;"/>
   </g>
   <g id="patch_3">
    <path clip-path="url(#pb913cd231c)" d="M 172.8 84.098102 
L 1190.284742 84.098102 
L 1190.284742 92.516112 
L 172.8 92.516112 
z
" style="fill:#3274a1;"/>
   </g>
   <g id="patch_4">
    <path clip-path="url(#pb913cd231c)" d="M 172.8 105.143126 
L 1193.142857 105.143126 
L 1193.142857 113.561136 
L 172.8 113.561136 
z
" style="fill:#3274a1;"/>
   </g>
   <g id="patch_5">
    <path clip-path="url(#pb913cd231c)" d="M 172.8 126.18815 
L 1193.142857 126.18815 
L 1193.142857 134.60616 
L 172.8 134.60616 
z
" style="fill:#3274a1;"/>
   </g>
   <g id="patch_6">
    <path clip-path="url(#pb913cd231c)" d="M 172.8 147.233174 
L 1193.142857 147.233174 
L 1193.142857 155.651184 
L 172.8 155.651184 
z
" style="fill:#3274a1;"/>
   </g>
   <g id="patch_7">
    <path clip-path="url(#pb913cd231c)" d="M 172.8 168.278198 
L 1193.142857 168.278198 
L 1193.142857 176.696208 
L 172.8 176.696208 
z
" style="fill:#3274a1;"/>
   </g>
   <g id="patch_8">
    <path clip-path="url(#pb913cd231c)" d="M 172.8 189.323222 
L 1188.763709 189.323222 
L 1188.763709 197.741232 
L 172.8 197.741232 
z
" style="fill:#3274a1;"/>
   </g>
   <g id="patch_9">
    <path clip-path="url(#pb913cd231c)" d="M 172.8 210.368246 
L 1128.223045 210.368246 
L 1128.223045 218.786256 
L 172.8 218.786256 
z
" style="fill:#3274a1;"/>
   </g>
   <g id="patch_10">
    <path clip-path="url(#pb913cd231c)" d="M 172.8 231.41327 
L 1193.142857 231.41327 
L 1193.142857 239.83128 
L 172.8 239.83128 
z
" style="fill:#3274a1;"/>
   </g>
   <g id="patch_11">
    <path clip-path="url(#pb913cd231c)" d="M 172.8 252.458294 
L 1051.918958 252.458294 
L 1051.918958 260.876304 
L 172.8 260.876304 
z
" style="fill:#3274a1;"/>
   </g>
   <g id="patch_12">
    <path clip-path="url(#pb913cd231c)" d="M 172.8 273.503318 
L 1175.684494 273.503318 
L 1175.684494 281.921328 
L 172.8 281.921328 
z
" style="fill:#3274a1;"/>
   </g>
   <g id="patch_13">
    <path clip-path="url(#pb913cd231c)" d="M 172.8 294.548342 
L 1190.79728 294.548342 
L 1190.79728 302.966352 
L 172.8 302.966352 
z
" style="fill:#3274a1;"/>
   </g>
   <g id="patch_14">
    <path clip-path="url(#pb913cd231c)" d="M 172.8 315.593366 
L 1076.57784 315.593366 
L 1076.57784 324.011376 
L 172.8 324.011376 
z
" style="fill:#3274a1;"/>
   </g>
   <g id="patch_15">
    <path clip-path="url(#pb913cd231c)" d="M 172.8 336.63839 
L 980.390489 336.63839 
L 980.390489 345.0564 
L 172.8 345.0564 
z
" style="fill:#3274a1;"/>
   </g>
   <g id="patch_16">
    <path clip-path="url(#pb913cd231c)" d="M 172.8 357.683414 
L 1138.911999 357.683414 
L 1138.911999 366.101424 
L 172.8 366.101424 
z
" style="fill:#3274a1;"/>
   </g>
   <g id="patch_17">
    <path clip-path="url(#pb913cd231c)" d="M 172.8 378.728438 
L 1119.117945 378.728438 
L 1119.117945 387.146448 
L 172.8 387.146448 
z
" style="fill:#3274a1;"/>
   </g>
   <g id="patch_18">
    <path clip-path="url(#pb913cd231c)" d="M 172.8 399.773462 
L 1131.122029 399.773462 
L 1131.122029 408.191472 
L 172.8 408.191472 
z
" style="fill:#3274a1;"/>
   </g>
   <g id="patch_19">
    <path clip-path="url(#pb913cd231c)" d="M 172.8 420.818486 
L 1137.080049 420.818486 
L 1137.080049 429.236496 
L 172.8 429.236496 
z
" style="fill:#3274a1;"/>
   </g>
   <g id="patch_20">
    <path clip-path="url(#pb913cd231c)" d="M 172.8 441.86351 
L 973.769143 441.86351 
L 973.769143 450.28152 
L 172.8 450.28152 
z
" style="fill:#3274a1;"/>
   </g>
   <g id="patch_21">
    <path clip-path="url(#pb913cd231c)" d="M 172.8 462.908534 
L 781.959912 462.908534 
L 781.959912 471.326544 
L 172.8 471.326544 
z
" style="fill:#3274a1;"/>
   </g>
   <g id="patch_22">
    <path clip-path="url(#pb913cd231c)" d="M 172.8 483.953558 
L 1168.939996 483.953558 
L 1168.939996 492.371568 
L 172.8 492.371568 
z
" style="fill:#3274a1;"/>
   </g>
   <g id="patch_23">
    <path clip-path="url(#pb913cd231c)" d="M 172.8 504.998582 
L 1125.696475 504.998582 
L 1125.696475 513.416592 
L 172.8 513.416592 
z
" style="fill:#3274a1;"/>
   </g>
   <g id="patch_24">
    <path clip-path="url(#pb913cd231c)" d="M 172.8 526.043606 
L 542.618587 526.043606 
L 542.618587 534.461616 
L 172.8 534.461616 
z
" style="fill:#3274a1;"/>
   </g>
   <g id="patch_25">
    <path clip-path="url(#pb913cd231c)" d="M 172.8 547.08863 
L 1023.282301 547.08863 
L 1023.282301 555.50664 
L 172.8 555.50664 
z
" style="fill:#3274a1;"/>
   </g>
   <g id="patch_26">
    <path clip-path="url(#pb913cd231c)" d="M 172.8 568.133654 
L 1056.282537 568.133654 
L 1056.282537 576.551664 
L 172.8 576.551664 
z
" style="fill:#3274a1;"/>
   </g>
   <g id="patch_27">
    <path clip-path="url(#pb913cd231c)" d="M 172.8 589.178678 
L 938.554423 589.178678 
L 938.554423 597.596688 
L 172.8 597.596688 
z
" style="fill:#3274a1;"/>
   </g>
   <g id="patch_28">
    <path clip-path="url(#pb913cd231c)" d="M 172.8 92.516112 
L 1193.142857 92.516112 
L 1193.142857 100.934122 
L 172.8 100.934122 
z
" style="fill:#e1812c;"/>
   </g>
   <g id="patch_29">
    <path clip-path="url(#pb913cd231c)" d="M 172.8 113.561136 
L 1193.142857 113.561136 
L 1193.142857 121.979146 
L 172.8 121.979146 
z
" style="fill:#e1812c;"/>
   </g>
   <g id="patch_30">
    <path clip-path="url(#pb913cd231c)" d="M 172.8 134.60616 
L 1193.142857 134.60616 
L 1193.142857 143.02417 
L 172.8 143.02417 
z
" style="fill:#e1812c;"/>
   </g>
   <g id="patch_31">
    <path clip-path="url(#pb913cd231c)" d="M 172.8 155.651184 
L 1193.142857 155.651184 
L 1193.142857 164.069194 
L 172.8 164.069194 
z
" style="fill:#e1812c;"/>
   </g>
   <g id="patch_32">
    <path clip-path="url(#pb913cd231c)" d="M 172.8 176.696208 
L 1180.849575 176.696208 
L 1180.849575 185.114218 
L 172.8 185.114218 
z
" style="fill:#e1812c;"/>
   </g>
   <g id="patch_33">
    <path clip-path="url(#pb913cd231c)" d="M 172.8 197.741232 
L 1149.351301 197.741232 
L 1149.351301 206.159242 
L 172.8 206.159242 
z
" style="fill:#e1812c;"/>
   </g>
   <g id="patch_34">
    <path clip-path="url(#pb913cd231c)" d="M 172.8 218.786256 
L 1052.279229 218.786256 
L 1052.279229 227.204266 
L 172.8 227.204266 
z
" style="fill:#e1812c;"/>
   </g>
   <g id="patch_35">
    <path clip-path="url(#pb913cd231c)" d="M 172.8 239.83128 
L 1193.142857 239.83128 
L 1193.142857 248.24929 
L 172.8 248.24929 
z
" style="fill:#e1812c;"/>
   </g>
   <g id="patch_36">
    <path clip-path="url(#pb913cd231c)" d="M 172.8 260.876304 
L 246.942562 260.876304 
L 246.942562 269.294314 
L 172.8 269.294314 
z
" style="fill:#e1812c;"/>
   </g>
   <g id="patch_37">
    <path clip-path="url(#pb913cd231c)" d="M 172.8 281.921328 
L 857.554822 281.921328 
L 857.554822 290.339338 
L 172.8 290.339338 
z
" style="fill:#e1812c;"/>
   </g>
   <g id="patch_38">
    <path clip-path="url(#pb913cd231c)" d="M 172.8 302.966352 
L 993.765518 302.966352 
L 993.765518 311.384362 
L 172.8 311.384362 
z
" style="fill:#e1812c;"/>
   </g>
   <g id="patch_39">
    <path clip-path="url(#pb913cd231c)" d="M 172.8 324.011376 
L 726.882907 324.011376 
L 726.882907 332.429386 
L 172.8 332.429386 
z
" style="fill:#e1812c;"/>
   </g>
   <g id="patch_40">
    <path clip-path="url(#pb913cd231c)" d="M 172.8 345.0564 
L 757.507127 345.0564 
L 757.507127 353.47441 
L 172.8 353.47441 
z
" style="fill:#e1812c;"/>
   </g>
   <g id="patch_41">
    <path clip-path="url(#pb913cd231c)" d="M 172.8 366.101424 
L 988.270837 366.101424 
L 988.270837 374.519434 
L 172.8 374.519434 
z
" style="fill:#e1812c;"/>
   </g>
   <g id="patch_42">
    <path clip-path="url(#pb913cd231c)" d="M 172.8 387.146448 
L 777.003031 387.146448 
L 777.003031 395.564458 
L 172.8 395.564458 
z
" style="fill:#e1812c;"/>
   </g>
   <g id="patch_43">
    <path clip-path="url(#pb913cd231c)" d="M 172.8 408.191472 
L 777.003031 408.191472 
L 777.003031 416.609482 
L 172.8 416.609482 
z
" style="fill:#e1812c;"/>
   </g>
   <g id="patch_44">
    <path clip-path="url(#pb913cd231c)" d="M 172.8 429.236496 
L 607.847292 429.236496 
L 607.847292 437.654506 
L 172.8 437.654506 
z
" style="fill:#e1812c;"/>
   </g>
   <g id="patch_45">
    <path clip-path="url(#pb913cd231c)" d="M 172.8 450.28152 
L 320.749714 450.28152 
L 320.749714 458.69953 
L 172.8 458.69953 
z
" style="fill:#e1812c;"/>
   </g>
   <g id="patch_46">
    <path clip-path="url(#pb913cd231c)" d="M 172.8 471.326544 
L 903.79191 471.326544 
L 903.79191 479.744554 
L 172.8 479.744554 
z
" style="fill:#e1812c;"/>
   </g>
   <g id="patch_47">
    <path clip-path="url(#pb913cd231c)" d="M 172.8 492.371568 
L 595.713634 492.371568 
L 595.713634 500.789578 
L 172.8 500.789578 
z
" style="fill:#e1812c;"/>
   </g>
   <g id="patch_48">
    <path clip-path="url(#pb913cd231c)" d="M 172.8 513.416592 
L 842.075771 513.416592 
L 842.075771 521.834602 
L 172.8 521.834602 
z
" style="fill:#e1812c;"/>
   </g>
   <g id="patch_49">
    <path clip-path="url(#pb913cd231c)" d="M 172.8 534.461616 
L 769.856536 534.461616 
L 769.856536 542.879626 
L 172.8 542.879626 
z
" style="fill:#e1812c;"/>
   </g>
   <g id="patch_50">
    <path clip-path="url(#pb913cd231c)" d="M 172.8 555.50664 
L 545.549527 555.50664 
L 545.549527 563.92465 
L 172.8 563.92465 
z
" style="fill:#e1812c;"/>
   </g>
   <g id="patch_51">
    <path clip-path="url(#pb913cd231c)" d="M 172.8 576.551664 
L 664.030917 576.551664 
L 664.030917 584.969674 
L 172.8 584.969674 
z
" style="fill:#e1812c;"/>
   </g>
   <g id="patch_52">
    <path clip-path="url(#pb913cd231c)" d="M 172.8 597.596688 
L 610.373939 597.596688 
L 610.373939 606.014698 
L 172.8 606.014698 
z
" style="fill:#e1812c;"/>
   </g>
   <g id="matplotlib.axis_1">
    <g id="xtick_1">
     <g id="line2d_1">
      <defs>
       <path d="M 0 0 
L 0 3.5 
" id="m11b91b581d" style="stroke:#000000;stroke-width:0.8;"/>
      </defs>
      <g>
       <use style="stroke:#000000;stroke-width:0.8;" x="172.8" xlink:href="#m11b91b581d" y="608.1192"/>
      </g>
     </g>
     <g id="text_1">
      <!-- 0 -->
      <defs>
       <path d="M 31.78125 66.40625 
Q 24.171875 66.40625 20.328125 58.90625 
Q 16.5 51.421875 16.5 36.375 
Q 16.5 21.390625 20.328125 13.890625 
Q 24.171875 6.390625 31.78125 6.390625 
Q 39.453125 6.390625 43.28125 13.890625 
Q 47.125 21.390625 47.125 36.375 
Q 47.125 51.421875 43.28125 58.90625 
Q 39.453125 66.40625 31.78125 66.40625 
z
M 31.78125 74.21875 
Q 44.046875 74.21875 50.515625 64.515625 
Q 56.984375 54.828125 56.984375 36.375 
Q 56.984375 17.96875 50.515625 8.265625 
Q 44.046875 -1.421875 31.78125 -1.421875 
Q 19.53125 -1.421875 13.0625 8.265625 
Q 6.59375 17.96875 6.59375 36.375 
Q 6.59375 54.828125 13.0625 64.515625 
Q 19.53125 74.21875 31.78125 74.21875 
z
" id="DejaVuSans-48"/>
      </defs>
      <g transform="translate(169.61875 622.717638)scale(0.1 -0.1)">
       <use xlink:href="#DejaVuSans-48"/>
      </g>
     </g>
    </g>
    <g id="xtick_2">
     <g id="line2d_2">
      <g>
       <use style="stroke:#000000;stroke-width:0.8;" x="376.868571" xlink:href="#m11b91b581d" y="608.1192"/>
      </g>
     </g>
     <g id="text_2">
      <!-- 20 -->
      <defs>
       <path d="M 19.1875 8.296875 
L 53.609375 8.296875 
L 53.609375 0 
L 7.328125 0 
L 7.328125 8.296875 
Q 12.9375 14.109375 22.625 23.890625 
Q 32.328125 33.6875 34.8125 36.53125 
Q 39.546875 41.84375 41.421875 45.53125 
Q 43.3125 49.21875 43.3125 52.78125 
Q 43.3125 58.59375 39.234375 62.25 
Q 35.15625 65.921875 28.609375 65.921875 
Q 23.96875 65.921875 18.8125 64.3125 
Q 13.671875 62.703125 7.8125 59.421875 
L 7.8125 69.390625 
Q 13.765625 71.78125 18.9375 73 
Q 24.125 74.21875 28.421875 74.21875 
Q 39.75 74.21875 46.484375 68.546875 
Q 53.21875 62.890625 53.21875 53.421875 
Q 53.21875 48.921875 51.53125 44.890625 
Q 49.859375 40.875 45.40625 35.40625 
Q 44.1875 33.984375 37.640625 27.21875 
Q 31.109375 20.453125 19.1875 8.296875 
z
" id="DejaVuSans-50"/>
      </defs>
      <g transform="translate(370.506071 622.717638)scale(0.1 -0.1)">
       <use xlink:href="#DejaVuSans-50"/>
       <use x="63.623047" xlink:href="#DejaVuSans-48"/>
      </g>
     </g>
    </g>
    <g id="xtick_3">
     <g id="line2d_3">
      <g>
       <use style="stroke:#000000;stroke-width:0.8;" x="580.937143" xlink:href="#m11b91b581d" y="608.1192"/>
      </g>
     </g>
     <g id="text_3">
      <!-- 40 -->
      <defs>
       <path d="M 37.796875 64.3125 
L 12.890625 25.390625 
L 37.796875 25.390625 
z
M 35.203125 72.90625 
L 47.609375 72.90625 
L 47.609375 25.390625 
L 58.015625 25.390625 
L 58.015625 17.1875 
L 47.609375 17.1875 
L 47.609375 0 
L 37.796875 0 
L 37.796875 17.1875 
L 4.890625 17.1875 
L 4.890625 26.703125 
z
" id="DejaVuSans-52"/>
      </defs>
      <g transform="translate(574.574643 622.717638)scale(0.1 -0.1)">
       <use xlink:href="#DejaVuSans-52"/>
       <use x="63.623047" xlink:href="#DejaVuSans-48"/>
      </g>
     </g>
    </g>
    <g id="xtick_4">
     <g id="line2d_4">
      <g>
       <use style="stroke:#000000;stroke-width:0.8;" x="785.005714" xlink:href="#m11b91b581d" y="608.1192"/>
      </g>
     </g>
     <g id="text_4">
      <!-- 60 -->
      <defs>
       <path d="M 33.015625 40.375 
Q 26.375 40.375 22.484375 35.828125 
Q 18.609375 31.296875 18.609375 23.390625 
Q 18.609375 15.53125 22.484375 10.953125 
Q 26.375 6.390625 33.015625 6.390625 
Q 39.65625 6.390625 43.53125 10.953125 
Q 47.40625 15.53125 47.40625 23.390625 
Q 47.40625 31.296875 43.53125 35.828125 
Q 39.65625 40.375 33.015625 40.375 
z
M 52.59375 71.296875 
L 52.59375 62.3125 
Q 48.875 64.0625 45.09375 64.984375 
Q 41.3125 65.921875 37.59375 65.921875 
Q 27.828125 65.921875 22.671875 59.328125 
Q 17.53125 52.734375 16.796875 39.40625 
Q 19.671875 43.65625 24.015625 45.921875 
Q 28.375 48.1875 33.59375 48.1875 
Q 44.578125 48.1875 50.953125 41.515625 
Q 57.328125 34.859375 57.328125 23.390625 
Q 57.328125 12.15625 50.6875 5.359375 
Q 44.046875 -1.421875 33.015625 -1.421875 
Q 20.359375 -1.421875 13.671875 8.265625 
Q 6.984375 17.96875 6.984375 36.375 
Q 6.984375 53.65625 15.1875 63.9375 
Q 23.390625 74.21875 37.203125 74.21875 
Q 40.921875 74.21875 44.703125 73.484375 
Q 48.484375 72.75 52.59375 71.296875 
z
" id="DejaVuSans-54"/>
      </defs>
      <g transform="translate(778.643214 622.717638)scale(0.1 -0.1)">
       <use xlink:href="#DejaVuSans-54"/>
       <use x="63.623047" xlink:href="#DejaVuSans-48"/>
      </g>
     </g>
    </g>
    <g id="xtick_5">
     <g id="line2d_5">
      <g>
       <use style="stroke:#000000;stroke-width:0.8;" x="989.074286" xlink:href="#m11b91b581d" y="608.1192"/>
      </g>
     </g>
     <g id="text_5">
      <!-- 80 -->
      <defs>
       <path d="M 31.78125 34.625 
Q 24.75 34.625 20.71875 30.859375 
Q 16.703125 27.09375 16.703125 20.515625 
Q 16.703125 13.921875 20.71875 10.15625 
Q 24.75 6.390625 31.78125 6.390625 
Q 38.8125 6.390625 42.859375 10.171875 
Q 46.921875 13.96875 46.921875 20.515625 
Q 46.921875 27.09375 42.890625 30.859375 
Q 38.875 34.625 31.78125 34.625 
z
M 21.921875 38.8125 
Q 15.578125 40.375 12.03125 44.71875 
Q 8.5 49.078125 8.5 55.328125 
Q 8.5 64.0625 14.71875 69.140625 
Q 20.953125 74.21875 31.78125 74.21875 
Q 42.671875 74.21875 48.875 69.140625 
Q 55.078125 64.0625 55.078125 55.328125 
Q 55.078125 49.078125 51.53125 44.71875 
Q 48 40.375 41.703125 38.8125 
Q 48.828125 37.15625 52.796875 32.3125 
Q 56.78125 27.484375 56.78125 20.515625 
Q 56.78125 9.90625 50.3125 4.234375 
Q 43.84375 -1.421875 31.78125 -1.421875 
Q 19.734375 -1.421875 13.25 4.234375 
Q 6.78125 9.90625 6.78125 20.515625 
Q 6.78125 27.484375 10.78125 32.3125 
Q 14.796875 37.15625 21.921875 38.8125 
z
M 18.3125 54.390625 
Q 18.3125 48.734375 21.84375 45.5625 
Q 25.390625 42.390625 31.78125 42.390625 
Q 38.140625 42.390625 41.71875 45.5625 
Q 45.3125 48.734375 45.3125 54.390625 
Q 45.3125 60.0625 41.71875 63.234375 
Q 38.140625 66.40625 31.78125 66.40625 
Q 25.390625 66.40625 21.84375 63.234375 
Q 18.3125 60.0625 18.3125 54.390625 
z
" id="DejaVuSans-56"/>
      </defs>
      <g transform="translate(982.711786 622.717638)scale(0.1 -0.1)">
       <use xlink:href="#DejaVuSans-56"/>
       <use x="63.623047" xlink:href="#DejaVuSans-48"/>
      </g>
     </g>
    </g>
    <g id="xtick_6">
     <g id="line2d_6">
      <g>
       <use style="stroke:#000000;stroke-width:0.8;" x="1193.142857" xlink:href="#m11b91b581d" y="608.1192"/>
      </g>
     </g>
     <g id="text_6">
      <!-- 100 -->
      <defs>
       <path d="M 12.40625 8.296875 
L 28.515625 8.296875 
L 28.515625 63.921875 
L 10.984375 60.40625 
L 10.984375 69.390625 
L 28.421875 72.90625 
L 38.28125 72.90625 
L 38.28125 8.296875 
L 54.390625 8.296875 
L 54.390625 0 
L 12.40625 0 
z
" id="DejaVuSans-49"/>
      </defs>
      <g transform="translate(1183.599107 622.717638)scale(0.1 -0.1)">
       <use xlink:href="#DejaVuSans-49"/>
       <use x="63.623047" xlink:href="#DejaVuSans-48"/>
       <use x="127.246094" xlink:href="#DejaVuSans-48"/>
      </g>
     </g>
    </g>
    <g id="text_7">
     <!-- Accuracy % -->
     <defs>
      <path d="M 34.1875 63.1875 
L 20.796875 26.90625 
L 47.609375 26.90625 
z
M 28.609375 72.90625 
L 39.796875 72.90625 
L 67.578125 0 
L 57.328125 0 
L 50.6875 18.703125 
L 17.828125 18.703125 
L 11.1875 0 
L 0.78125 0 
z
" id="DejaVuSans-65"/>
      <path d="M 48.78125 52.59375 
L 48.78125 44.1875 
Q 44.96875 46.296875 41.140625 47.34375 
Q 37.3125 48.390625 33.40625 48.390625 
Q 24.65625 48.390625 19.8125 42.84375 
Q 14.984375 37.3125 14.984375 27.296875 
Q 14.984375 17.28125 19.8125 11.734375 
Q 24.65625 6.203125 33.40625 6.203125 
Q 37.3125 6.203125 41.140625 7.25 
Q 44.96875 8.296875 48.78125 10.40625 
L 48.78125 2.09375 
Q 45.015625 0.34375 40.984375 -0.53125 
Q 36.96875 -1.421875 32.421875 -1.421875 
Q 20.0625 -1.421875 12.78125 6.34375 
Q 5.515625 14.109375 5.515625 27.296875 
Q 5.515625 40.671875 12.859375 48.328125 
Q 20.21875 56 33.015625 56 
Q 37.15625 56 41.109375 55.140625 
Q 45.0625 54.296875 48.78125 52.59375 
z
" id="DejaVuSans-99"/>
      <path d="M 8.5 21.578125 
L 8.5 54.6875 
L 17.484375 54.6875 
L 17.484375 21.921875 
Q 17.484375 14.15625 20.5 10.265625 
Q 23.53125 6.390625 29.59375 6.390625 
Q 36.859375 6.390625 41.078125 11.03125 
Q 45.3125 15.671875 45.3125 23.6875 
L 45.3125 54.6875 
L 54.296875 54.6875 
L 54.296875 0 
L 45.3125 0 
L 45.3125 8.40625 
Q 42.046875 3.421875 37.71875 1 
Q 33.40625 -1.421875 27.6875 -1.421875 
Q 18.265625 -1.421875 13.375 4.4375 
Q 8.5 10.296875 8.5 21.578125 
z
M 31.109375 56 
z
" id="DejaVuSans-117"/>
      <path d="M 41.109375 46.296875 
Q 39.59375 47.171875 37.8125 47.578125 
Q 36.03125 48 33.890625 48 
Q 26.265625 48 22.1875 43.046875 
Q 18.109375 38.09375 18.109375 28.8125 
L 18.109375 0 
L 9.078125 0 
L 9.078125 54.6875 
L 18.109375 54.6875 
L 18.109375 46.1875 
Q 20.953125 51.171875 25.484375 53.578125 
Q 30.03125 56 36.53125 56 
Q 37.453125 56 38.578125 55.875 
Q 39.703125 55.765625 41.0625 55.515625 
z
" id="DejaVuSans-114"/>
      <path d="M 34.28125 27.484375 
Q 23.390625 27.484375 19.1875 25 
Q 14.984375 22.515625 14.984375 16.5 
Q 14.984375 11.71875 18.140625 8.90625 
Q 21.296875 6.109375 26.703125 6.109375 
Q 34.1875 6.109375 38.703125 11.40625 
Q 43.21875 16.703125 43.21875 25.484375 
L 43.21875 27.484375 
z
M 52.203125 31.203125 
L 52.203125 0 
L 43.21875 0 
L 43.21875 8.296875 
Q 40.140625 3.328125 35.546875 0.953125 
Q 30.953125 -1.421875 24.3125 -1.421875 
Q 15.921875 -1.421875 10.953125 3.296875 
Q 6 8.015625 6 15.921875 
Q 6 25.140625 12.171875 29.828125 
Q 18.359375 34.515625 30.609375 34.515625 
L 43.21875 34.515625 
L 43.21875 35.40625 
Q 43.21875 41.609375 39.140625 45 
Q 35.0625 48.390625 27.6875 48.390625 
Q 23 48.390625 18.546875 47.265625 
Q 14.109375 46.140625 10.015625 43.890625 
L 10.015625 52.203125 
Q 14.9375 54.109375 19.578125 55.046875 
Q 24.21875 56 28.609375 56 
Q 40.484375 56 46.34375 49.84375 
Q 52.203125 43.703125 52.203125 31.203125 
z
" id="DejaVuSans-97"/>
      <path d="M 32.171875 -5.078125 
Q 28.375 -14.84375 24.75 -17.8125 
Q 21.140625 -20.796875 15.09375 -20.796875 
L 7.90625 -20.796875 
L 7.90625 -13.28125 
L 13.1875 -13.28125 
Q 16.890625 -13.28125 18.9375 -11.515625 
Q 21 -9.765625 23.484375 -3.21875 
L 25.09375 0.875 
L 2.984375 54.6875 
L 12.5 54.6875 
L 29.59375 11.921875 
L 46.6875 54.6875 
L 56.203125 54.6875 
z
" id="DejaVuSans-121"/>
      <path id="DejaVuSans-32"/>
      <path d="M 72.703125 32.078125 
Q 68.453125 32.078125 66.03125 28.46875 
Q 63.625 24.859375 63.625 18.40625 
Q 63.625 12.0625 66.03125 8.421875 
Q 68.453125 4.78125 72.703125 4.78125 
Q 76.859375 4.78125 79.265625 8.421875 
Q 81.6875 12.0625 81.6875 18.40625 
Q 81.6875 24.8125 79.265625 28.4375 
Q 76.859375 32.078125 72.703125 32.078125 
z
M 72.703125 38.28125 
Q 80.421875 38.28125 84.953125 32.90625 
Q 89.5 27.546875 89.5 18.40625 
Q 89.5 9.28125 84.9375 3.921875 
Q 80.375 -1.421875 72.703125 -1.421875 
Q 64.890625 -1.421875 60.34375 3.921875 
Q 55.8125 9.28125 55.8125 18.40625 
Q 55.8125 27.59375 60.375 32.9375 
Q 64.9375 38.28125 72.703125 38.28125 
z
M 22.3125 68.015625 
Q 18.109375 68.015625 15.6875 64.375 
Q 13.28125 60.75 13.28125 54.390625 
Q 13.28125 47.953125 15.671875 44.328125 
Q 18.0625 40.71875 22.3125 40.71875 
Q 26.5625 40.71875 28.96875 44.328125 
Q 31.390625 47.953125 31.390625 54.390625 
Q 31.390625 60.6875 28.953125 64.34375 
Q 26.515625 68.015625 22.3125 68.015625 
z
M 66.40625 74.21875 
L 74.21875 74.21875 
L 28.609375 -1.421875 
L 20.796875 -1.421875 
z
M 22.3125 74.21875 
Q 30.03125 74.21875 34.609375 68.875 
Q 39.203125 63.53125 39.203125 54.390625 
Q 39.203125 45.171875 34.640625 39.84375 
Q 30.078125 34.515625 22.3125 34.515625 
Q 14.546875 34.515625 10.03125 39.859375 
Q 5.515625 45.21875 5.515625 54.390625 
Q 5.515625 63.484375 10.046875 68.84375 
Q 14.59375 74.21875 22.3125 74.21875 
z
" id="DejaVuSans-37"/>
     </defs>
     <g transform="translate(679.225312 636.395762)scale(0.1 -0.1)">
      <use xlink:href="#DejaVuSans-65"/>
      <use x="68.392578" xlink:href="#DejaVuSans-99"/>
      <use x="123.373047" xlink:href="#DejaVuSans-99"/>
      <use x="178.353516" xlink:href="#DejaVuSans-117"/>
      <use x="241.732422" xlink:href="#DejaVuSans-114"/>
      <use x="282.845703" xlink:href="#DejaVuSans-97"/>
      <use x="344.125" xlink:href="#DejaVuSans-99"/>
      <use x="399.105469" xlink:href="#DejaVuSans-121"/>
      <use x="458.285156" xlink:href="#DejaVuSans-32"/>
      <use x="490.072266" xlink:href="#DejaVuSans-37"/>
     </g>
    </g>
   </g>
   <g id="matplotlib.axis_2">
    <g id="ytick_1">
     <g id="line2d_7">
      <defs>
       <path d="M 0 0 
L -3.5 0 
" id="m9de188b788" style="stroke:#000000;stroke-width:0.8;"/>
      </defs>
      <g>
       <use style="stroke:#000000;stroke-width:0.8;" x="172.8" xlink:href="#m9de188b788" y="92.516112"/>
      </g>
     </g>
     <g id="text_8">
      <!-- 1PersonStanding - D1 -->
      <defs>
       <path d="M 19.671875 64.796875 
L 19.671875 37.40625 
L 32.078125 37.40625 
Q 38.96875 37.40625 42.71875 40.96875 
Q 46.484375 44.53125 46.484375 51.125 
Q 46.484375 57.671875 42.71875 61.234375 
Q 38.96875 64.796875 32.078125 64.796875 
z
M 9.8125 72.90625 
L 32.078125 72.90625 
Q 44.34375 72.90625 50.609375 67.359375 
Q 56.890625 61.8125 56.890625 51.125 
Q 56.890625 40.328125 50.609375 34.8125 
Q 44.34375 29.296875 32.078125 29.296875 
L 19.671875 29.296875 
L 19.671875 0 
L 9.8125 0 
z
" id="DejaVuSans-80"/>
       <path d="M 56.203125 29.59375 
L 56.203125 25.203125 
L 14.890625 25.203125 
Q 15.484375 15.921875 20.484375 11.0625 
Q 25.484375 6.203125 34.421875 6.203125 
Q 39.59375 6.203125 44.453125 7.46875 
Q 49.3125 8.734375 54.109375 11.28125 
L 54.109375 2.78125 
Q 49.265625 0.734375 44.1875 -0.34375 
Q 39.109375 -1.421875 33.890625 -1.421875 
Q 20.796875 -1.421875 13.15625 6.1875 
Q 5.515625 13.8125 5.515625 26.8125 
Q 5.515625 40.234375 12.765625 48.109375 
Q 20.015625 56 32.328125 56 
Q 43.359375 56 49.78125 48.890625 
Q 56.203125 41.796875 56.203125 29.59375 
z
M 47.21875 32.234375 
Q 47.125 39.59375 43.09375 43.984375 
Q 39.0625 48.390625 32.421875 48.390625 
Q 24.90625 48.390625 20.390625 44.140625 
Q 15.875 39.890625 15.1875 32.171875 
z
" id="DejaVuSans-101"/>
       <path d="M 44.28125 53.078125 
L 44.28125 44.578125 
Q 40.484375 46.53125 36.375 47.5 
Q 32.28125 48.484375 27.875 48.484375 
Q 21.1875 48.484375 17.84375 46.4375 
Q 14.5 44.390625 14.5 40.28125 
Q 14.5 37.15625 16.890625 35.375 
Q 19.28125 33.59375 26.515625 31.984375 
L 29.59375 31.296875 
Q 39.15625 29.25 43.1875 25.515625 
Q 47.21875 21.78125 47.21875 15.09375 
Q 47.21875 7.46875 41.1875 3.015625 
Q 35.15625 -1.421875 24.609375 -1.421875 
Q 20.21875 -1.421875 15.453125 -0.5625 
Q 10.6875 0.296875 5.421875 2 
L 5.421875 11.28125 
Q 10.40625 8.6875 15.234375 7.390625 
Q 20.0625 6.109375 24.8125 6.109375 
Q 31.15625 6.109375 34.5625 8.28125 
Q 37.984375 10.453125 37.984375 14.40625 
Q 37.984375 18.0625 35.515625 20.015625 
Q 33.0625 21.96875 24.703125 23.78125 
L 21.578125 24.515625 
Q 13.234375 26.265625 9.515625 29.90625 
Q 5.8125 33.546875 5.8125 39.890625 
Q 5.8125 47.609375 11.28125 51.796875 
Q 16.75 56 26.8125 56 
Q 31.78125 56 36.171875 55.265625 
Q 40.578125 54.546875 44.28125 53.078125 
z
" id="DejaVuSans-115"/>
       <path d="M 30.609375 48.390625 
Q 23.390625 48.390625 19.1875 42.75 
Q 14.984375 37.109375 14.984375 27.296875 
Q 14.984375 17.484375 19.15625 11.84375 
Q 23.34375 6.203125 30.609375 6.203125 
Q 37.796875 6.203125 41.984375 11.859375 
Q 46.1875 17.53125 46.1875 27.296875 
Q 46.1875 37.015625 41.984375 42.703125 
Q 37.796875 48.390625 30.609375 48.390625 
z
M 30.609375 56 
Q 42.328125 56 49.015625 48.375 
Q 55.71875 40.765625 55.71875 27.296875 
Q 55.71875 13.875 49.015625 6.21875 
Q 42.328125 -1.421875 30.609375 -1.421875 
Q 18.84375 -1.421875 12.171875 6.21875 
Q 5.515625 13.875 5.515625 27.296875 
Q 5.515625 40.765625 12.171875 48.375 
Q 18.84375 56 30.609375 56 
z
" id="DejaVuSans-111"/>
       <path d="M 54.890625 33.015625 
L 54.890625 0 
L 45.90625 0 
L 45.90625 32.71875 
Q 45.90625 40.484375 42.875 44.328125 
Q 39.84375 48.1875 33.796875 48.1875 
Q 26.515625 48.1875 22.3125 43.546875 
Q 18.109375 38.921875 18.109375 30.90625 
L 18.109375 0 
L 9.078125 0 
L 9.078125 54.6875 
L 18.109375 54.6875 
L 18.109375 46.1875 
Q 21.34375 51.125 25.703125 53.5625 
Q 30.078125 56 35.796875 56 
Q 45.21875 56 50.046875 50.171875 
Q 54.890625 44.34375 54.890625 33.015625 
z
" id="DejaVuSans-110"/>
       <path d="M 53.515625 70.515625 
L 53.515625 60.890625 
Q 47.90625 63.578125 42.921875 64.890625 
Q 37.9375 66.21875 33.296875 66.21875 
Q 25.25 66.21875 20.875 63.09375 
Q 16.5 59.96875 16.5 54.203125 
Q 16.5 49.359375 19.40625 46.890625 
Q 22.3125 44.4375 30.421875 42.921875 
L 36.375 41.703125 
Q 47.40625 39.59375 52.65625 34.296875 
Q 57.90625 29 57.90625 20.125 
Q 57.90625 9.515625 50.796875 4.046875 
Q 43.703125 -1.421875 29.984375 -1.421875 
Q 24.8125 -1.421875 18.96875 -0.25 
Q 13.140625 0.921875 6.890625 3.21875 
L 6.890625 13.375 
Q 12.890625 10.015625 18.65625 8.296875 
Q 24.421875 6.59375 29.984375 6.59375 
Q 38.421875 6.59375 43.015625 9.90625 
Q 47.609375 13.234375 47.609375 19.390625 
Q 47.609375 24.75 44.3125 27.78125 
Q 41.015625 30.8125 33.5 32.328125 
L 27.484375 33.5 
Q 16.453125 35.6875 11.515625 40.375 
Q 6.59375 45.0625 6.59375 53.421875 
Q 6.59375 63.09375 13.40625 68.65625 
Q 20.21875 74.21875 32.171875 74.21875 
Q 37.3125 74.21875 42.625 73.28125 
Q 47.953125 72.359375 53.515625 70.515625 
z
" id="DejaVuSans-83"/>
       <path d="M 18.3125 70.21875 
L 18.3125 54.6875 
L 36.8125 54.6875 
L 36.8125 47.703125 
L 18.3125 47.703125 
L 18.3125 18.015625 
Q 18.3125 11.328125 20.140625 9.421875 
Q 21.96875 7.515625 27.59375 7.515625 
L 36.8125 7.515625 
L 36.8125 0 
L 27.59375 0 
Q 17.1875 0 13.234375 3.875 
Q 9.28125 7.765625 9.28125 18.015625 
L 9.28125 47.703125 
L 2.6875 47.703125 
L 2.6875 54.6875 
L 9.28125 54.6875 
L 9.28125 70.21875 
z
" id="DejaVuSans-116"/>
       <path d="M 45.40625 46.390625 
L 45.40625 75.984375 
L 54.390625 75.984375 
L 54.390625 0 
L 45.40625 0 
L 45.40625 8.203125 
Q 42.578125 3.328125 38.25 0.953125 
Q 33.9375 -1.421875 27.875 -1.421875 
Q 17.96875 -1.421875 11.734375 6.484375 
Q 5.515625 14.40625 5.515625 27.296875 
Q 5.515625 40.1875 11.734375 48.09375 
Q 17.96875 56 27.875 56 
Q 33.9375 56 38.25 53.625 
Q 42.578125 51.265625 45.40625 46.390625 
z
M 14.796875 27.296875 
Q 14.796875 17.390625 18.875 11.75 
Q 22.953125 6.109375 30.078125 6.109375 
Q 37.203125 6.109375 41.296875 11.75 
Q 45.40625 17.390625 45.40625 27.296875 
Q 45.40625 37.203125 41.296875 42.84375 
Q 37.203125 48.484375 30.078125 48.484375 
Q 22.953125 48.484375 18.875 42.84375 
Q 14.796875 37.203125 14.796875 27.296875 
z
" id="DejaVuSans-100"/>
       <path d="M 9.421875 54.6875 
L 18.40625 54.6875 
L 18.40625 0 
L 9.421875 0 
z
M 9.421875 75.984375 
L 18.40625 75.984375 
L 18.40625 64.59375 
L 9.421875 64.59375 
z
" id="DejaVuSans-105"/>
       <path d="M 45.40625 27.984375 
Q 45.40625 37.75 41.375 43.109375 
Q 37.359375 48.484375 30.078125 48.484375 
Q 22.859375 48.484375 18.828125 43.109375 
Q 14.796875 37.75 14.796875 27.984375 
Q 14.796875 18.265625 18.828125 12.890625 
Q 22.859375 7.515625 30.078125 7.515625 
Q 37.359375 7.515625 41.375 12.890625 
Q 45.40625 18.265625 45.40625 27.984375 
z
M 54.390625 6.78125 
Q 54.390625 -7.171875 48.1875 -13.984375 
Q 42 -20.796875 29.203125 -20.796875 
Q 24.46875 -20.796875 20.265625 -20.09375 
Q 16.0625 -19.390625 12.109375 -17.921875 
L 12.109375 -9.1875 
Q 16.0625 -11.328125 19.921875 -12.34375 
Q 23.78125 -13.375 27.78125 -13.375 
Q 36.625 -13.375 41.015625 -8.765625 
Q 45.40625 -4.15625 45.40625 5.171875 
L 45.40625 9.625 
Q 42.625 4.78125 38.28125 2.390625 
Q 33.9375 0 27.875 0 
Q 17.828125 0 11.671875 7.65625 
Q 5.515625 15.328125 5.515625 27.984375 
Q 5.515625 40.671875 11.671875 48.328125 
Q 17.828125 56 27.875 56 
Q 33.9375 56 38.28125 53.609375 
Q 42.625 51.21875 45.40625 46.390625 
L 45.40625 54.6875 
L 54.390625 54.6875 
z
" id="DejaVuSans-103"/>
       <path d="M 4.890625 31.390625 
L 31.203125 31.390625 
L 31.203125 23.390625 
L 4.890625 23.390625 
z
" id="DejaVuSans-45"/>
       <path d="M 19.671875 64.796875 
L 19.671875 8.109375 
L 31.59375 8.109375 
Q 46.6875 8.109375 53.6875 14.9375 
Q 60.6875 21.78125 60.6875 36.53125 
Q 60.6875 51.171875 53.6875 57.984375 
Q 46.6875 64.796875 31.59375 64.796875 
z
M 9.8125 72.90625 
L 30.078125 72.90625 
Q 51.265625 72.90625 61.171875 64.09375 
Q 71.09375 55.28125 71.09375 36.53125 
Q 71.09375 17.671875 61.125 8.828125 
Q 51.171875 0 30.078125 0 
L 9.8125 0 
z
" id="DejaVuSans-68"/>
      </defs>
      <g transform="translate(56.909375 96.315331)scale(0.1 -0.1)">
       <use xlink:href="#DejaVuSans-49"/>
       <use x="63.623047" xlink:href="#DejaVuSans-80"/>
       <use x="123.878906" xlink:href="#DejaVuSans-101"/>
       <use x="185.402344" xlink:href="#DejaVuSans-114"/>
       <use x="226.515625" xlink:href="#DejaVuSans-115"/>
       <use x="278.615234" xlink:href="#DejaVuSans-111"/>
       <use x="339.796875" xlink:href="#DejaVuSans-110"/>
       <use x="403.175781" xlink:href="#DejaVuSans-83"/>
       <use x="466.652344" xlink:href="#DejaVuSans-116"/>
       <use x="505.861328" xlink:href="#DejaVuSans-97"/>
       <use x="567.140625" xlink:href="#DejaVuSans-110"/>
       <use x="630.519531" xlink:href="#DejaVuSans-100"/>
       <use x="693.996094" xlink:href="#DejaVuSans-105"/>
       <use x="721.779297" xlink:href="#DejaVuSans-110"/>
       <use x="785.158203" xlink:href="#DejaVuSans-103"/>
       <use x="848.634766" xlink:href="#DejaVuSans-32"/>
       <use x="880.421875" xlink:href="#DejaVuSans-45"/>
       <use x="916.505859" xlink:href="#DejaVuSans-32"/>
       <use x="948.292969" xlink:href="#DejaVuSans-68"/>
       <use x="1025.294922" xlink:href="#DejaVuSans-49"/>
      </g>
     </g>
    </g>
    <g id="ytick_2">
     <g id="line2d_8">
      <g>
       <use style="stroke:#000000;stroke-width:0.8;" x="172.8" xlink:href="#m9de188b788" y="113.561136"/>
      </g>
     </g>
     <g id="text_9">
      <!-- 1PersonStanding - D2 -->
      <g transform="translate(56.909375 117.360355)scale(0.1 -0.1)">
       <use xlink:href="#DejaVuSans-49"/>
       <use x="63.623047" xlink:href="#DejaVuSans-80"/>
       <use x="123.878906" xlink:href="#DejaVuSans-101"/>
       <use x="185.402344" xlink:href="#DejaVuSans-114"/>
       <use x="226.515625" xlink:href="#DejaVuSans-115"/>
       <use x="278.615234" xlink:href="#DejaVuSans-111"/>
       <use x="339.796875" xlink:href="#DejaVuSans-110"/>
       <use x="403.175781" xlink:href="#DejaVuSans-83"/>
       <use x="466.652344" xlink:href="#DejaVuSans-116"/>
       <use x="505.861328" xlink:href="#DejaVuSans-97"/>
       <use x="567.140625" xlink:href="#DejaVuSans-110"/>
       <use x="630.519531" xlink:href="#DejaVuSans-100"/>
       <use x="693.996094" xlink:href="#DejaVuSans-105"/>
       <use x="721.779297" xlink:href="#DejaVuSans-110"/>
       <use x="785.158203" xlink:href="#DejaVuSans-103"/>
       <use x="848.634766" xlink:href="#DejaVuSans-32"/>
       <use x="880.421875" xlink:href="#DejaVuSans-45"/>
       <use x="916.505859" xlink:href="#DejaVuSans-32"/>
       <use x="948.292969" xlink:href="#DejaVuSans-68"/>
       <use x="1025.294922" xlink:href="#DejaVuSans-50"/>
      </g>
     </g>
    </g>
    <g id="ytick_3">
     <g id="line2d_9">
      <g>
       <use style="stroke:#000000;stroke-width:0.8;" x="172.8" xlink:href="#m9de188b788" y="134.60616"/>
      </g>
     </g>
     <g id="text_10">
      <!-- 1PersonStanding - D3 -->
      <defs>
       <path d="M 40.578125 39.3125 
Q 47.65625 37.796875 51.625 33 
Q 55.609375 28.21875 55.609375 21.1875 
Q 55.609375 10.40625 48.1875 4.484375 
Q 40.765625 -1.421875 27.09375 -1.421875 
Q 22.515625 -1.421875 17.65625 -0.515625 
Q 12.796875 0.390625 7.625 2.203125 
L 7.625 11.71875 
Q 11.71875 9.328125 16.59375 8.109375 
Q 21.484375 6.890625 26.8125 6.890625 
Q 36.078125 6.890625 40.9375 10.546875 
Q 45.796875 14.203125 45.796875 21.1875 
Q 45.796875 27.640625 41.28125 31.265625 
Q 36.765625 34.90625 28.71875 34.90625 
L 20.21875 34.90625 
L 20.21875 43.015625 
L 29.109375 43.015625 
Q 36.375 43.015625 40.234375 45.921875 
Q 44.09375 48.828125 44.09375 54.296875 
Q 44.09375 59.90625 40.109375 62.90625 
Q 36.140625 65.921875 28.71875 65.921875 
Q 24.65625 65.921875 20.015625 65.03125 
Q 15.375 64.15625 9.8125 62.3125 
L 9.8125 71.09375 
Q 15.4375 72.65625 20.34375 73.4375 
Q 25.25 74.21875 29.59375 74.21875 
Q 40.828125 74.21875 47.359375 69.109375 
Q 53.90625 64.015625 53.90625 55.328125 
Q 53.90625 49.265625 50.4375 45.09375 
Q 46.96875 40.921875 40.578125 39.3125 
z
" id="DejaVuSans-51"/>
      </defs>
      <g transform="translate(56.909375 138.405379)scale(0.1 -0.1)">
       <use xlink:href="#DejaVuSans-49"/>
       <use x="63.623047" xlink:href="#DejaVuSans-80"/>
       <use x="123.878906" xlink:href="#DejaVuSans-101"/>
       <use x="185.402344" xlink:href="#DejaVuSans-114"/>
       <use x="226.515625" xlink:href="#DejaVuSans-115"/>
       <use x="278.615234" xlink:href="#DejaVuSans-111"/>
       <use x="339.796875" xlink:href="#DejaVuSans-110"/>
       <use x="403.175781" xlink:href="#DejaVuSans-83"/>
       <use x="466.652344" xlink:href="#DejaVuSans-116"/>
       <use x="505.861328" xlink:href="#DejaVuSans-97"/>
       <use x="567.140625" xlink:href="#DejaVuSans-110"/>
       <use x="630.519531" xlink:href="#DejaVuSans-100"/>
       <use x="693.996094" xlink:href="#DejaVuSans-105"/>
       <use x="721.779297" xlink:href="#DejaVuSans-110"/>
       <use x="785.158203" xlink:href="#DejaVuSans-103"/>
       <use x="848.634766" xlink:href="#DejaVuSans-32"/>
       <use x="880.421875" xlink:href="#DejaVuSans-45"/>
       <use x="916.505859" xlink:href="#DejaVuSans-32"/>
       <use x="948.292969" xlink:href="#DejaVuSans-68"/>
       <use x="1025.294922" xlink:href="#DejaVuSans-51"/>
      </g>
     </g>
    </g>
    <g id="ytick_4">
     <g id="line2d_10">
      <g>
       <use style="stroke:#000000;stroke-width:0.8;" x="172.8" xlink:href="#m9de188b788" y="155.651184"/>
      </g>
     </g>
     <g id="text_11">
      <!-- 1PersonWalking - D1 -->
      <defs>
       <path d="M 3.328125 72.90625 
L 13.28125 72.90625 
L 28.609375 11.28125 
L 43.890625 72.90625 
L 54.984375 72.90625 
L 70.3125 11.28125 
L 85.59375 72.90625 
L 95.609375 72.90625 
L 77.296875 0 
L 64.890625 0 
L 49.515625 63.28125 
L 33.984375 0 
L 21.578125 0 
z
" id="DejaVuSans-87"/>
       <path d="M 9.421875 75.984375 
L 18.40625 75.984375 
L 18.40625 0 
L 9.421875 0 
z
" id="DejaVuSans-108"/>
       <path d="M 9.078125 75.984375 
L 18.109375 75.984375 
L 18.109375 31.109375 
L 44.921875 54.6875 
L 56.390625 54.6875 
L 27.390625 29.109375 
L 57.625 0 
L 45.90625 0 
L 18.109375 26.703125 
L 18.109375 0 
L 9.078125 0 
z
" id="DejaVuSans-107"/>
      </defs>
      <g transform="translate(61.417187 159.450403)scale(0.1 -0.1)">
       <use xlink:href="#DejaVuSans-49"/>
       <use x="63.623047" xlink:href="#DejaVuSans-80"/>
       <use x="123.878906" xlink:href="#DejaVuSans-101"/>
       <use x="185.402344" xlink:href="#DejaVuSans-114"/>
       <use x="226.515625" xlink:href="#DejaVuSans-115"/>
       <use x="278.615234" xlink:href="#DejaVuSans-111"/>
       <use x="339.796875" xlink:href="#DejaVuSans-110"/>
       <use x="403.175781" xlink:href="#DejaVuSans-87"/>
       <use x="501.958984" xlink:href="#DejaVuSans-97"/>
       <use x="563.238281" xlink:href="#DejaVuSans-108"/>
       <use x="591.021484" xlink:href="#DejaVuSans-107"/>
       <use x="648.931641" xlink:href="#DejaVuSans-105"/>
       <use x="676.714844" xlink:href="#DejaVuSans-110"/>
       <use x="740.09375" xlink:href="#DejaVuSans-103"/>
       <use x="803.570312" xlink:href="#DejaVuSans-32"/>
       <use x="835.357422" xlink:href="#DejaVuSans-45"/>
       <use x="871.441406" xlink:href="#DejaVuSans-32"/>
       <use x="903.228516" xlink:href="#DejaVuSans-68"/>
       <use x="980.230469" xlink:href="#DejaVuSans-49"/>
      </g>
     </g>
    </g>
    <g id="ytick_5">
     <g id="line2d_11">
      <g>
       <use style="stroke:#000000;stroke-width:0.8;" x="172.8" xlink:href="#m9de188b788" y="176.696208"/>
      </g>
     </g>
     <g id="text_12">
      <!-- 1PersonWalking - D2 -->
      <g transform="translate(61.417187 180.495427)scale(0.1 -0.1)">
       <use xlink:href="#DejaVuSans-49"/>
       <use x="63.623047" xlink:href="#DejaVuSans-80"/>
       <use x="123.878906" xlink:href="#DejaVuSans-101"/>
       <use x="185.402344" xlink:href="#DejaVuSans-114"/>
       <use x="226.515625" xlink:href="#DejaVuSans-115"/>
       <use x="278.615234" xlink:href="#DejaVuSans-111"/>
       <use x="339.796875" xlink:href="#DejaVuSans-110"/>
       <use x="403.175781" xlink:href="#DejaVuSans-87"/>
       <use x="501.958984" xlink:href="#DejaVuSans-97"/>
       <use x="563.238281" xlink:href="#DejaVuSans-108"/>
       <use x="591.021484" xlink:href="#DejaVuSans-107"/>
       <use x="648.931641" xlink:href="#DejaVuSans-105"/>
       <use x="676.714844" xlink:href="#DejaVuSans-110"/>
       <use x="740.09375" xlink:href="#DejaVuSans-103"/>
       <use x="803.570312" xlink:href="#DejaVuSans-32"/>
       <use x="835.357422" xlink:href="#DejaVuSans-45"/>
       <use x="871.441406" xlink:href="#DejaVuSans-32"/>
       <use x="903.228516" xlink:href="#DejaVuSans-68"/>
       <use x="980.230469" xlink:href="#DejaVuSans-50"/>
      </g>
     </g>
    </g>
    <g id="ytick_6">
     <g id="line2d_12">
      <g>
       <use style="stroke:#000000;stroke-width:0.8;" x="172.8" xlink:href="#m9de188b788" y="197.741232"/>
      </g>
     </g>
     <g id="text_13">
      <!-- 1PersonWalking - D3 -->
      <g transform="translate(61.417187 201.540451)scale(0.1 -0.1)">
       <use xlink:href="#DejaVuSans-49"/>
       <use x="63.623047" xlink:href="#DejaVuSans-80"/>
       <use x="123.878906" xlink:href="#DejaVuSans-101"/>
       <use x="185.402344" xlink:href="#DejaVuSans-114"/>
       <use x="226.515625" xlink:href="#DejaVuSans-115"/>
       <use x="278.615234" xlink:href="#DejaVuSans-111"/>
       <use x="339.796875" xlink:href="#DejaVuSans-110"/>
       <use x="403.175781" xlink:href="#DejaVuSans-87"/>
       <use x="501.958984" xlink:href="#DejaVuSans-97"/>
       <use x="563.238281" xlink:href="#DejaVuSans-108"/>
       <use x="591.021484" xlink:href="#DejaVuSans-107"/>
       <use x="648.931641" xlink:href="#DejaVuSans-105"/>
       <use x="676.714844" xlink:href="#DejaVuSans-110"/>
       <use x="740.09375" xlink:href="#DejaVuSans-103"/>
       <use x="803.570312" xlink:href="#DejaVuSans-32"/>
       <use x="835.357422" xlink:href="#DejaVuSans-45"/>
       <use x="871.441406" xlink:href="#DejaVuSans-32"/>
       <use x="903.228516" xlink:href="#DejaVuSans-68"/>
       <use x="980.230469" xlink:href="#DejaVuSans-51"/>
      </g>
     </g>
    </g>
    <g id="ytick_7">
     <g id="line2d_13">
      <g>
       <use style="stroke:#000000;stroke-width:0.8;" x="172.8" xlink:href="#m9de188b788" y="218.786256"/>
      </g>
     </g>
     <g id="text_14">
      <!-- 1PersonWalkingTrack - D1 -->
      <defs>
       <path d="M -0.296875 72.90625 
L 61.375 72.90625 
L 61.375 64.59375 
L 35.5 64.59375 
L 35.5 0 
L 25.59375 0 
L 25.59375 64.59375 
L -0.296875 64.59375 
z
" id="DejaVuSans-84"/>
      </defs>
      <g transform="translate(33.803125 222.585475)scale(0.1 -0.1)">
       <use xlink:href="#DejaVuSans-49"/>
       <use x="63.623047" xlink:href="#DejaVuSans-80"/>
       <use x="123.878906" xlink:href="#DejaVuSans-101"/>
       <use x="185.402344" xlink:href="#DejaVuSans-114"/>
       <use x="226.515625" xlink:href="#DejaVuSans-115"/>
       <use x="278.615234" xlink:href="#DejaVuSans-111"/>
       <use x="339.796875" xlink:href="#DejaVuSans-110"/>
       <use x="403.175781" xlink:href="#DejaVuSans-87"/>
       <use x="501.958984" xlink:href="#DejaVuSans-97"/>
       <use x="563.238281" xlink:href="#DejaVuSans-108"/>
       <use x="591.021484" xlink:href="#DejaVuSans-107"/>
       <use x="648.931641" xlink:href="#DejaVuSans-105"/>
       <use x="676.714844" xlink:href="#DejaVuSans-110"/>
       <use x="740.09375" xlink:href="#DejaVuSans-103"/>
       <use x="803.570312" xlink:href="#DejaVuSans-84"/>
       <use x="864.435547" xlink:href="#DejaVuSans-114"/>
       <use x="905.548828" xlink:href="#DejaVuSans-97"/>
       <use x="966.828125" xlink:href="#DejaVuSans-99"/>
       <use x="1021.808594" xlink:href="#DejaVuSans-107"/>
       <use x="1079.71875" xlink:href="#DejaVuSans-32"/>
       <use x="1111.505859" xlink:href="#DejaVuSans-45"/>
       <use x="1147.589844" xlink:href="#DejaVuSans-32"/>
       <use x="1179.376953" xlink:href="#DejaVuSans-68"/>
       <use x="1256.378906" xlink:href="#DejaVuSans-49"/>
      </g>
     </g>
    </g>
    <g id="ytick_8">
     <g id="line2d_14">
      <g>
       <use style="stroke:#000000;stroke-width:0.8;" x="172.8" xlink:href="#m9de188b788" y="239.83128"/>
      </g>
     </g>
     <g id="text_15">
      <!-- 1PersonWalkingTrack - D2 -->
      <g transform="translate(33.803125 243.630499)scale(0.1 -0.1)">
       <use xlink:href="#DejaVuSans-49"/>
       <use x="63.623047" xlink:href="#DejaVuSans-80"/>
       <use x="123.878906" xlink:href="#DejaVuSans-101"/>
       <use x="185.402344" xlink:href="#DejaVuSans-114"/>
       <use x="226.515625" xlink:href="#DejaVuSans-115"/>
       <use x="278.615234" xlink:href="#DejaVuSans-111"/>
       <use x="339.796875" xlink:href="#DejaVuSans-110"/>
       <use x="403.175781" xlink:href="#DejaVuSans-87"/>
       <use x="501.958984" xlink:href="#DejaVuSans-97"/>
       <use x="563.238281" xlink:href="#DejaVuSans-108"/>
       <use x="591.021484" xlink:href="#DejaVuSans-107"/>
       <use x="648.931641" xlink:href="#DejaVuSans-105"/>
       <use x="676.714844" xlink:href="#DejaVuSans-110"/>
       <use x="740.09375" xlink:href="#DejaVuSans-103"/>
       <use x="803.570312" xlink:href="#DejaVuSans-84"/>
       <use x="864.435547" xlink:href="#DejaVuSans-114"/>
       <use x="905.548828" xlink:href="#DejaVuSans-97"/>
       <use x="966.828125" xlink:href="#DejaVuSans-99"/>
       <use x="1021.808594" xlink:href="#DejaVuSans-107"/>
       <use x="1079.71875" xlink:href="#DejaVuSans-32"/>
       <use x="1111.505859" xlink:href="#DejaVuSans-45"/>
       <use x="1147.589844" xlink:href="#DejaVuSans-32"/>
       <use x="1179.376953" xlink:href="#DejaVuSans-68"/>
       <use x="1256.378906" xlink:href="#DejaVuSans-50"/>
      </g>
     </g>
    </g>
    <g id="ytick_9">
     <g id="line2d_15">
      <g>
       <use style="stroke:#000000;stroke-width:0.8;" x="172.8" xlink:href="#m9de188b788" y="260.876304"/>
      </g>
     </g>
     <g id="text_16">
      <!-- 2PeopleSitting - D1 -->
      <defs>
       <path d="M 18.109375 8.203125 
L 18.109375 -20.796875 
L 9.078125 -20.796875 
L 9.078125 54.6875 
L 18.109375 54.6875 
L 18.109375 46.390625 
Q 20.953125 51.265625 25.265625 53.625 
Q 29.59375 56 35.59375 56 
Q 45.5625 56 51.78125 48.09375 
Q 58.015625 40.1875 58.015625 27.296875 
Q 58.015625 14.40625 51.78125 6.484375 
Q 45.5625 -1.421875 35.59375 -1.421875 
Q 29.59375 -1.421875 25.265625 0.953125 
Q 20.953125 3.328125 18.109375 8.203125 
z
M 48.6875 27.296875 
Q 48.6875 37.203125 44.609375 42.84375 
Q 40.53125 48.484375 33.40625 48.484375 
Q 26.265625 48.484375 22.1875 42.84375 
Q 18.109375 37.203125 18.109375 27.296875 
Q 18.109375 17.390625 22.1875 11.75 
Q 26.265625 6.109375 33.40625 6.109375 
Q 40.53125 6.109375 44.609375 11.75 
Q 48.6875 17.390625 48.6875 27.296875 
z
" id="DejaVuSans-112"/>
      </defs>
      <g transform="translate(69.403125 264.675523)scale(0.1 -0.1)">
       <use xlink:href="#DejaVuSans-50"/>
       <use x="63.623047" xlink:href="#DejaVuSans-80"/>
       <use x="123.878906" xlink:href="#DejaVuSans-101"/>
       <use x="185.402344" xlink:href="#DejaVuSans-111"/>
       <use x="246.583984" xlink:href="#DejaVuSans-112"/>
       <use x="310.060547" xlink:href="#DejaVuSans-108"/>
       <use x="337.84375" xlink:href="#DejaVuSans-101"/>
       <use x="399.367188" xlink:href="#DejaVuSans-83"/>
       <use x="462.84375" xlink:href="#DejaVuSans-105"/>
       <use x="490.626953" xlink:href="#DejaVuSans-116"/>
       <use x="529.835938" xlink:href="#DejaVuSans-116"/>
       <use x="569.044922" xlink:href="#DejaVuSans-105"/>
       <use x="596.828125" xlink:href="#DejaVuSans-110"/>
       <use x="660.207031" xlink:href="#DejaVuSans-103"/>
       <use x="723.683594" xlink:href="#DejaVuSans-32"/>
       <use x="755.470703" xlink:href="#DejaVuSans-45"/>
       <use x="791.554688" xlink:href="#DejaVuSans-32"/>
       <use x="823.341797" xlink:href="#DejaVuSans-68"/>
       <use x="900.34375" xlink:href="#DejaVuSans-49"/>
      </g>
     </g>
    </g>
    <g id="ytick_10">
     <g id="line2d_16">
      <g>
       <use style="stroke:#000000;stroke-width:0.8;" x="172.8" xlink:href="#m9de188b788" y="281.921328"/>
      </g>
     </g>
     <g id="text_17">
      <!-- 2PeopleSitting - D2 -->
      <g transform="translate(69.403125 285.720547)scale(0.1 -0.1)">
       <use xlink:href="#DejaVuSans-50"/>
       <use x="63.623047" xlink:href="#DejaVuSans-80"/>
       <use x="123.878906" xlink:href="#DejaVuSans-101"/>
       <use x="185.402344" xlink:href="#DejaVuSans-111"/>
       <use x="246.583984" xlink:href="#DejaVuSans-112"/>
       <use x="310.060547" xlink:href="#DejaVuSans-108"/>
       <use x="337.84375" xlink:href="#DejaVuSans-101"/>
       <use x="399.367188" xlink:href="#DejaVuSans-83"/>
       <use x="462.84375" xlink:href="#DejaVuSans-105"/>
       <use x="490.626953" xlink:href="#DejaVuSans-116"/>
       <use x="529.835938" xlink:href="#DejaVuSans-116"/>
       <use x="569.044922" xlink:href="#DejaVuSans-105"/>
       <use x="596.828125" xlink:href="#DejaVuSans-110"/>
       <use x="660.207031" xlink:href="#DejaVuSans-103"/>
       <use x="723.683594" xlink:href="#DejaVuSans-32"/>
       <use x="755.470703" xlink:href="#DejaVuSans-45"/>
       <use x="791.554688" xlink:href="#DejaVuSans-32"/>
       <use x="823.341797" xlink:href="#DejaVuSans-68"/>
       <use x="900.34375" xlink:href="#DejaVuSans-50"/>
      </g>
     </g>
    </g>
    <g id="ytick_11">
     <g id="line2d_17">
      <g>
       <use style="stroke:#000000;stroke-width:0.8;" x="172.8" xlink:href="#m9de188b788" y="302.966352"/>
      </g>
     </g>
     <g id="text_18">
      <!-- 2PeopleSitting - D3 -->
      <g transform="translate(69.403125 306.765571)scale(0.1 -0.1)">
       <use xlink:href="#DejaVuSans-50"/>
       <use x="63.623047" xlink:href="#DejaVuSans-80"/>
       <use x="123.878906" xlink:href="#DejaVuSans-101"/>
       <use x="185.402344" xlink:href="#DejaVuSans-111"/>
       <use x="246.583984" xlink:href="#DejaVuSans-112"/>
       <use x="310.060547" xlink:href="#DejaVuSans-108"/>
       <use x="337.84375" xlink:href="#DejaVuSans-101"/>
       <use x="399.367188" xlink:href="#DejaVuSans-83"/>
       <use x="462.84375" xlink:href="#DejaVuSans-105"/>
       <use x="490.626953" xlink:href="#DejaVuSans-116"/>
       <use x="529.835938" xlink:href="#DejaVuSans-116"/>
       <use x="569.044922" xlink:href="#DejaVuSans-105"/>
       <use x="596.828125" xlink:href="#DejaVuSans-110"/>
       <use x="660.207031" xlink:href="#DejaVuSans-103"/>
       <use x="723.683594" xlink:href="#DejaVuSans-32"/>
       <use x="755.470703" xlink:href="#DejaVuSans-45"/>
       <use x="791.554688" xlink:href="#DejaVuSans-32"/>
       <use x="823.341797" xlink:href="#DejaVuSans-68"/>
       <use x="900.34375" xlink:href="#DejaVuSans-51"/>
      </g>
     </g>
    </g>
    <g id="ytick_12">
     <g id="line2d_18">
      <g>
       <use style="stroke:#000000;stroke-width:0.8;" x="172.8" xlink:href="#m9de188b788" y="324.011376"/>
      </g>
     </g>
     <g id="text_19">
      <!-- 2PeopleTableInterview - D2 -->
      <defs>
       <path d="M 48.6875 27.296875 
Q 48.6875 37.203125 44.609375 42.84375 
Q 40.53125 48.484375 33.40625 48.484375 
Q 26.265625 48.484375 22.1875 42.84375 
Q 18.109375 37.203125 18.109375 27.296875 
Q 18.109375 17.390625 22.1875 11.75 
Q 26.265625 6.109375 33.40625 6.109375 
Q 40.53125 6.109375 44.609375 11.75 
Q 48.6875 17.390625 48.6875 27.296875 
z
M 18.109375 46.390625 
Q 20.953125 51.265625 25.265625 53.625 
Q 29.59375 56 35.59375 56 
Q 45.5625 56 51.78125 48.09375 
Q 58.015625 40.1875 58.015625 27.296875 
Q 58.015625 14.40625 51.78125 6.484375 
Q 45.5625 -1.421875 35.59375 -1.421875 
Q 29.59375 -1.421875 25.265625 0.953125 
Q 20.953125 3.328125 18.109375 8.203125 
L 18.109375 0 
L 9.078125 0 
L 9.078125 75.984375 
L 18.109375 75.984375 
z
" id="DejaVuSans-98"/>
       <path d="M 9.8125 72.90625 
L 19.671875 72.90625 
L 19.671875 0 
L 9.8125 0 
z
" id="DejaVuSans-73"/>
       <path d="M 2.984375 54.6875 
L 12.5 54.6875 
L 29.59375 8.796875 
L 46.6875 54.6875 
L 56.203125 54.6875 
L 35.6875 0 
L 23.484375 0 
z
" id="DejaVuSans-118"/>
       <path d="M 4.203125 54.6875 
L 13.1875 54.6875 
L 24.421875 12.015625 
L 35.59375 54.6875 
L 46.1875 54.6875 
L 57.421875 12.015625 
L 68.609375 54.6875 
L 77.59375 54.6875 
L 63.28125 0 
L 52.6875 0 
L 40.921875 44.828125 
L 29.109375 0 
L 18.5 0 
z
" id="DejaVuSans-119"/>
      </defs>
      <g transform="translate(27.84375 327.810595)scale(0.1 -0.1)">
       <use xlink:href="#DejaVuSans-50"/>
       <use x="63.623047" xlink:href="#DejaVuSans-80"/>
       <use x="123.878906" xlink:href="#DejaVuSans-101"/>
       <use x="185.402344" xlink:href="#DejaVuSans-111"/>
       <use x="246.583984" xlink:href="#DejaVuSans-112"/>
       <use x="310.060547" xlink:href="#DejaVuSans-108"/>
       <use x="337.84375" xlink:href="#DejaVuSans-101"/>
       <use x="399.367188" xlink:href="#DejaVuSans-84"/>
       <use x="460.201172" xlink:href="#DejaVuSans-97"/>
       <use x="521.480469" xlink:href="#DejaVuSans-98"/>
       <use x="584.957031" xlink:href="#DejaVuSans-108"/>
       <use x="612.740234" xlink:href="#DejaVuSans-101"/>
       <use x="674.263672" xlink:href="#DejaVuSans-73"/>
       <use x="703.755859" xlink:href="#DejaVuSans-110"/>
       <use x="767.134766" xlink:href="#DejaVuSans-116"/>
       <use x="806.34375" xlink:href="#DejaVuSans-101"/>
       <use x="867.867188" xlink:href="#DejaVuSans-114"/>
       <use x="908.980469" xlink:href="#DejaVuSans-118"/>
       <use x="968.160156" xlink:href="#DejaVuSans-105"/>
       <use x="995.943359" xlink:href="#DejaVuSans-101"/>
       <use x="1057.466797" xlink:href="#DejaVuSans-119"/>
       <use x="1139.253906" xlink:href="#DejaVuSans-32"/>
       <use x="1171.041016" xlink:href="#DejaVuSans-45"/>
       <use x="1207.125" xlink:href="#DejaVuSans-32"/>
       <use x="1238.912109" xlink:href="#DejaVuSans-68"/>
       <use x="1315.914062" xlink:href="#DejaVuSans-50"/>
      </g>
     </g>
    </g>
    <g id="ytick_13">
     <g id="line2d_19">
      <g>
       <use style="stroke:#000000;stroke-width:0.8;" x="172.8" xlink:href="#m9de188b788" y="345.0564"/>
      </g>
     </g>
     <g id="text_20">
      <!-- 2PeopleWalking - D1 -->
      <g transform="translate(61.795312 348.855619)scale(0.1 -0.1)">
       <use xlink:href="#DejaVuSans-50"/>
       <use x="63.623047" xlink:href="#DejaVuSans-80"/>
       <use x="123.878906" xlink:href="#DejaVuSans-101"/>
       <use x="185.402344" xlink:href="#DejaVuSans-111"/>
       <use x="246.583984" xlink:href="#DejaVuSans-112"/>
       <use x="310.060547" xlink:href="#DejaVuSans-108"/>
       <use x="337.84375" xlink:href="#DejaVuSans-101"/>
       <use x="399.367188" xlink:href="#DejaVuSans-87"/>
       <use x="498.150391" xlink:href="#DejaVuSans-97"/>
       <use x="559.429688" xlink:href="#DejaVuSans-108"/>
       <use x="587.212891" xlink:href="#DejaVuSans-107"/>
       <use x="645.123047" xlink:href="#DejaVuSans-105"/>
       <use x="672.90625" xlink:href="#DejaVuSans-110"/>
       <use x="736.285156" xlink:href="#DejaVuSans-103"/>
       <use x="799.761719" xlink:href="#DejaVuSans-32"/>
       <use x="831.548828" xlink:href="#DejaVuSans-45"/>
       <use x="867.632812" xlink:href="#DejaVuSans-32"/>
       <use x="899.419922" xlink:href="#DejaVuSans-68"/>
       <use x="976.421875" xlink:href="#DejaVuSans-49"/>
      </g>
     </g>
    </g>
    <g id="ytick_14">
     <g id="line2d_20">
      <g>
       <use style="stroke:#000000;stroke-width:0.8;" x="172.8" xlink:href="#m9de188b788" y="366.101424"/>
      </g>
     </g>
     <g id="text_21">
      <!-- 2PeopleWalking - D2 -->
      <g transform="translate(61.795312 369.900643)scale(0.1 -0.1)">
       <use xlink:href="#DejaVuSans-50"/>
       <use x="63.623047" xlink:href="#DejaVuSans-80"/>
       <use x="123.878906" xlink:href="#DejaVuSans-101"/>
       <use x="185.402344" xlink:href="#DejaVuSans-111"/>
       <use x="246.583984" xlink:href="#DejaVuSans-112"/>
       <use x="310.060547" xlink:href="#DejaVuSans-108"/>
       <use x="337.84375" xlink:href="#DejaVuSans-101"/>
       <use x="399.367188" xlink:href="#DejaVuSans-87"/>
       <use x="498.150391" xlink:href="#DejaVuSans-97"/>
       <use x="559.429688" xlink:href="#DejaVuSans-108"/>
       <use x="587.212891" xlink:href="#DejaVuSans-107"/>
       <use x="645.123047" xlink:href="#DejaVuSans-105"/>
       <use x="672.90625" xlink:href="#DejaVuSans-110"/>
       <use x="736.285156" xlink:href="#DejaVuSans-103"/>
       <use x="799.761719" xlink:href="#DejaVuSans-32"/>
       <use x="831.548828" xlink:href="#DejaVuSans-45"/>
       <use x="867.632812" xlink:href="#DejaVuSans-32"/>
       <use x="899.419922" xlink:href="#DejaVuSans-68"/>
       <use x="976.421875" xlink:href="#DejaVuSans-50"/>
      </g>
     </g>
    </g>
    <g id="ytick_15">
     <g id="line2d_21">
      <g>
       <use style="stroke:#000000;stroke-width:0.8;" x="172.8" xlink:href="#m9de188b788" y="387.146448"/>
      </g>
     </g>
     <g id="text_22">
      <!-- 2PeopleWalking - D3 -->
      <g transform="translate(61.795312 390.945667)scale(0.1 -0.1)">
       <use xlink:href="#DejaVuSans-50"/>
       <use x="63.623047" xlink:href="#DejaVuSans-80"/>
       <use x="123.878906" xlink:href="#DejaVuSans-101"/>
       <use x="185.402344" xlink:href="#DejaVuSans-111"/>
       <use x="246.583984" xlink:href="#DejaVuSans-112"/>
       <use x="310.060547" xlink:href="#DejaVuSans-108"/>
       <use x="337.84375" xlink:href="#DejaVuSans-101"/>
       <use x="399.367188" xlink:href="#DejaVuSans-87"/>
       <use x="498.150391" xlink:href="#DejaVuSans-97"/>
       <use x="559.429688" xlink:href="#DejaVuSans-108"/>
       <use x="587.212891" xlink:href="#DejaVuSans-107"/>
       <use x="645.123047" xlink:href="#DejaVuSans-105"/>
       <use x="672.90625" xlink:href="#DejaVuSans-110"/>
       <use x="736.285156" xlink:href="#DejaVuSans-103"/>
       <use x="799.761719" xlink:href="#DejaVuSans-32"/>
       <use x="831.548828" xlink:href="#DejaVuSans-45"/>
       <use x="867.632812" xlink:href="#DejaVuSans-32"/>
       <use x="899.419922" xlink:href="#DejaVuSans-68"/>
       <use x="976.421875" xlink:href="#DejaVuSans-51"/>
      </g>
     </g>
    </g>
    <g id="ytick_16">
     <g id="line2d_22">
      <g>
       <use style="stroke:#000000;stroke-width:0.8;" x="172.8" xlink:href="#m9de188b788" y="408.191472"/>
      </g>
     </g>
     <g id="text_23">
      <!-- 2PeopleWalkingTrack - D1 -->
      <g transform="translate(34.18125 411.990691)scale(0.1 -0.1)">
       <use xlink:href="#DejaVuSans-50"/>
       <use x="63.623047" xlink:href="#DejaVuSans-80"/>
       <use x="123.878906" xlink:href="#DejaVuSans-101"/>
       <use x="185.402344" xlink:href="#DejaVuSans-111"/>
       <use x="246.583984" xlink:href="#DejaVuSans-112"/>
       <use x="310.060547" xlink:href="#DejaVuSans-108"/>
       <use x="337.84375" xlink:href="#DejaVuSans-101"/>
       <use x="399.367188" xlink:href="#DejaVuSans-87"/>
       <use x="498.150391" xlink:href="#DejaVuSans-97"/>
       <use x="559.429688" xlink:href="#DejaVuSans-108"/>
       <use x="587.212891" xlink:href="#DejaVuSans-107"/>
       <use x="645.123047" xlink:href="#DejaVuSans-105"/>
       <use x="672.90625" xlink:href="#DejaVuSans-110"/>
       <use x="736.285156" xlink:href="#DejaVuSans-103"/>
       <use x="799.761719" xlink:href="#DejaVuSans-84"/>
       <use x="860.626953" xlink:href="#DejaVuSans-114"/>
       <use x="901.740234" xlink:href="#DejaVuSans-97"/>
       <use x="963.019531" xlink:href="#DejaVuSans-99"/>
       <use x="1018" xlink:href="#DejaVuSans-107"/>
       <use x="1075.910156" xlink:href="#DejaVuSans-32"/>
       <use x="1107.697266" xlink:href="#DejaVuSans-45"/>
       <use x="1143.78125" xlink:href="#DejaVuSans-32"/>
       <use x="1175.568359" xlink:href="#DejaVuSans-68"/>
       <use x="1252.570312" xlink:href="#DejaVuSans-49"/>
      </g>
     </g>
    </g>
    <g id="ytick_17">
     <g id="line2d_23">
      <g>
       <use style="stroke:#000000;stroke-width:0.8;" x="172.8" xlink:href="#m9de188b788" y="429.236496"/>
      </g>
     </g>
     <g id="text_24">
      <!-- 2PeopleWalkingTrack - D2 -->
      <g transform="translate(34.18125 433.035715)scale(0.1 -0.1)">
       <use xlink:href="#DejaVuSans-50"/>
       <use x="63.623047" xlink:href="#DejaVuSans-80"/>
       <use x="123.878906" xlink:href="#DejaVuSans-101"/>
       <use x="185.402344" xlink:href="#DejaVuSans-111"/>
       <use x="246.583984" xlink:href="#DejaVuSans-112"/>
       <use x="310.060547" xlink:href="#DejaVuSans-108"/>
       <use x="337.84375" xlink:href="#DejaVuSans-101"/>
       <use x="399.367188" xlink:href="#DejaVuSans-87"/>
       <use x="498.150391" xlink:href="#DejaVuSans-97"/>
       <use x="559.429688" xlink:href="#DejaVuSans-108"/>
       <use x="587.212891" xlink:href="#DejaVuSans-107"/>
       <use x="645.123047" xlink:href="#DejaVuSans-105"/>
       <use x="672.90625" xlink:href="#DejaVuSans-110"/>
       <use x="736.285156" xlink:href="#DejaVuSans-103"/>
       <use x="799.761719" xlink:href="#DejaVuSans-84"/>
       <use x="860.626953" xlink:href="#DejaVuSans-114"/>
       <use x="901.740234" xlink:href="#DejaVuSans-97"/>
       <use x="963.019531" xlink:href="#DejaVuSans-99"/>
       <use x="1018" xlink:href="#DejaVuSans-107"/>
       <use x="1075.910156" xlink:href="#DejaVuSans-32"/>
       <use x="1107.697266" xlink:href="#DejaVuSans-45"/>
       <use x="1143.78125" xlink:href="#DejaVuSans-32"/>
       <use x="1175.568359" xlink:href="#DejaVuSans-68"/>
       <use x="1252.570312" xlink:href="#DejaVuSans-50"/>
      </g>
     </g>
    </g>
    <g id="ytick_18">
     <g id="line2d_24">
      <g>
       <use style="stroke:#000000;stroke-width:0.8;" x="172.8" xlink:href="#m9de188b788" y="450.28152"/>
      </g>
     </g>
     <g id="text_25">
      <!-- 3PeopleInterview - D1 -->
      <g transform="translate(55.334375 454.080739)scale(0.1 -0.1)">
       <use xlink:href="#DejaVuSans-51"/>
       <use x="63.623047" xlink:href="#DejaVuSans-80"/>
       <use x="123.878906" xlink:href="#DejaVuSans-101"/>
       <use x="185.402344" xlink:href="#DejaVuSans-111"/>
       <use x="246.583984" xlink:href="#DejaVuSans-112"/>
       <use x="310.060547" xlink:href="#DejaVuSans-108"/>
       <use x="337.84375" xlink:href="#DejaVuSans-101"/>
       <use x="399.367188" xlink:href="#DejaVuSans-73"/>
       <use x="428.859375" xlink:href="#DejaVuSans-110"/>
       <use x="492.238281" xlink:href="#DejaVuSans-116"/>
       <use x="531.447266" xlink:href="#DejaVuSans-101"/>
       <use x="592.970703" xlink:href="#DejaVuSans-114"/>
       <use x="634.083984" xlink:href="#DejaVuSans-118"/>
       <use x="693.263672" xlink:href="#DejaVuSans-105"/>
       <use x="721.046875" xlink:href="#DejaVuSans-101"/>
       <use x="782.570312" xlink:href="#DejaVuSans-119"/>
       <use x="864.357422" xlink:href="#DejaVuSans-32"/>
       <use x="896.144531" xlink:href="#DejaVuSans-45"/>
       <use x="932.228516" xlink:href="#DejaVuSans-32"/>
       <use x="964.015625" xlink:href="#DejaVuSans-68"/>
       <use x="1041.017578" xlink:href="#DejaVuSans-49"/>
      </g>
     </g>
    </g>
    <g id="ytick_19">
     <g id="line2d_25">
      <g>
       <use style="stroke:#000000;stroke-width:0.8;" x="172.8" xlink:href="#m9de188b788" y="471.326544"/>
      </g>
     </g>
     <g id="text_26">
      <!-- 3PeopleInterview - D2 -->
      <g transform="translate(55.334375 475.125763)scale(0.1 -0.1)">
       <use xlink:href="#DejaVuSans-51"/>
       <use x="63.623047" xlink:href="#DejaVuSans-80"/>
       <use x="123.878906" xlink:href="#DejaVuSans-101"/>
       <use x="185.402344" xlink:href="#DejaVuSans-111"/>
       <use x="246.583984" xlink:href="#DejaVuSans-112"/>
       <use x="310.060547" xlink:href="#DejaVuSans-108"/>
       <use x="337.84375" xlink:href="#DejaVuSans-101"/>
       <use x="399.367188" xlink:href="#DejaVuSans-73"/>
       <use x="428.859375" xlink:href="#DejaVuSans-110"/>
       <use x="492.238281" xlink:href="#DejaVuSans-116"/>
       <use x="531.447266" xlink:href="#DejaVuSans-101"/>
       <use x="592.970703" xlink:href="#DejaVuSans-114"/>
       <use x="634.083984" xlink:href="#DejaVuSans-118"/>
       <use x="693.263672" xlink:href="#DejaVuSans-105"/>
       <use x="721.046875" xlink:href="#DejaVuSans-101"/>
       <use x="782.570312" xlink:href="#DejaVuSans-119"/>
       <use x="864.357422" xlink:href="#DejaVuSans-32"/>
       <use x="896.144531" xlink:href="#DejaVuSans-45"/>
       <use x="932.228516" xlink:href="#DejaVuSans-32"/>
       <use x="964.015625" xlink:href="#DejaVuSans-68"/>
       <use x="1041.017578" xlink:href="#DejaVuSans-50"/>
      </g>
     </g>
    </g>
    <g id="ytick_20">
     <g id="line2d_26">
      <g>
       <use style="stroke:#000000;stroke-width:0.8;" x="172.8" xlink:href="#m9de188b788" y="492.371568"/>
      </g>
     </g>
     <g id="text_27">
      <!-- 3PeopleWalking - D1 -->
      <g transform="translate(61.795312 496.170787)scale(0.1 -0.1)">
       <use xlink:href="#DejaVuSans-51"/>
       <use x="63.623047" xlink:href="#DejaVuSans-80"/>
       <use x="123.878906" xlink:href="#DejaVuSans-101"/>
       <use x="185.402344" xlink:href="#DejaVuSans-111"/>
       <use x="246.583984" xlink:href="#DejaVuSans-112"/>
       <use x="310.060547" xlink:href="#DejaVuSans-108"/>
       <use x="337.84375" xlink:href="#DejaVuSans-101"/>
       <use x="399.367188" xlink:href="#DejaVuSans-87"/>
       <use x="498.150391" xlink:href="#DejaVuSans-97"/>
       <use x="559.429688" xlink:href="#DejaVuSans-108"/>
       <use x="587.212891" xlink:href="#DejaVuSans-107"/>
       <use x="645.123047" xlink:href="#DejaVuSans-105"/>
       <use x="672.90625" xlink:href="#DejaVuSans-110"/>
       <use x="736.285156" xlink:href="#DejaVuSans-103"/>
       <use x="799.761719" xlink:href="#DejaVuSans-32"/>
       <use x="831.548828" xlink:href="#DejaVuSans-45"/>
       <use x="867.632812" xlink:href="#DejaVuSans-32"/>
       <use x="899.419922" xlink:href="#DejaVuSans-68"/>
       <use x="976.421875" xlink:href="#DejaVuSans-49"/>
      </g>
     </g>
    </g>
    <g id="ytick_21">
     <g id="line2d_27">
      <g>
       <use style="stroke:#000000;stroke-width:0.8;" x="172.8" xlink:href="#m9de188b788" y="513.416592"/>
      </g>
     </g>
     <g id="text_28">
      <!-- 3PeopleWalking - D2 -->
      <g transform="translate(61.795312 517.215811)scale(0.1 -0.1)">
       <use xlink:href="#DejaVuSans-51"/>
       <use x="63.623047" xlink:href="#DejaVuSans-80"/>
       <use x="123.878906" xlink:href="#DejaVuSans-101"/>
       <use x="185.402344" xlink:href="#DejaVuSans-111"/>
       <use x="246.583984" xlink:href="#DejaVuSans-112"/>
       <use x="310.060547" xlink:href="#DejaVuSans-108"/>
       <use x="337.84375" xlink:href="#DejaVuSans-101"/>
       <use x="399.367188" xlink:href="#DejaVuSans-87"/>
       <use x="498.150391" xlink:href="#DejaVuSans-97"/>
       <use x="559.429688" xlink:href="#DejaVuSans-108"/>
       <use x="587.212891" xlink:href="#DejaVuSans-107"/>
       <use x="645.123047" xlink:href="#DejaVuSans-105"/>
       <use x="672.90625" xlink:href="#DejaVuSans-110"/>
       <use x="736.285156" xlink:href="#DejaVuSans-103"/>
       <use x="799.761719" xlink:href="#DejaVuSans-32"/>
       <use x="831.548828" xlink:href="#DejaVuSans-45"/>
       <use x="867.632812" xlink:href="#DejaVuSans-32"/>
       <use x="899.419922" xlink:href="#DejaVuSans-68"/>
       <use x="976.421875" xlink:href="#DejaVuSans-50"/>
      </g>
     </g>
    </g>
    <g id="ytick_22">
     <g id="line2d_28">
      <g>
       <use style="stroke:#000000;stroke-width:0.8;" x="172.8" xlink:href="#m9de188b788" y="534.461616"/>
      </g>
     </g>
     <g id="text_29">
      <!-- 4PeopleTableInterview - D2 -->
      <g transform="translate(27.84375 538.260835)scale(0.1 -0.1)">
       <use xlink:href="#DejaVuSans-52"/>
       <use x="63.623047" xlink:href="#DejaVuSans-80"/>
       <use x="123.878906" xlink:href="#DejaVuSans-101"/>
       <use x="185.402344" xlink:href="#DejaVuSans-111"/>
       <use x="246.583984" xlink:href="#DejaVuSans-112"/>
       <use x="310.060547" xlink:href="#DejaVuSans-108"/>
       <use x="337.84375" xlink:href="#DejaVuSans-101"/>
       <use x="399.367188" xlink:href="#DejaVuSans-84"/>
       <use x="460.201172" xlink:href="#DejaVuSans-97"/>
       <use x="521.480469" xlink:href="#DejaVuSans-98"/>
       <use x="584.957031" xlink:href="#DejaVuSans-108"/>
       <use x="612.740234" xlink:href="#DejaVuSans-101"/>
       <use x="674.263672" xlink:href="#DejaVuSans-73"/>
       <use x="703.755859" xlink:href="#DejaVuSans-110"/>
       <use x="767.134766" xlink:href="#DejaVuSans-116"/>
       <use x="806.34375" xlink:href="#DejaVuSans-101"/>
       <use x="867.867188" xlink:href="#DejaVuSans-114"/>
       <use x="908.980469" xlink:href="#DejaVuSans-118"/>
       <use x="968.160156" xlink:href="#DejaVuSans-105"/>
       <use x="995.943359" xlink:href="#DejaVuSans-101"/>
       <use x="1057.466797" xlink:href="#DejaVuSans-119"/>
       <use x="1139.253906" xlink:href="#DejaVuSans-32"/>
       <use x="1171.041016" xlink:href="#DejaVuSans-45"/>
       <use x="1207.125" xlink:href="#DejaVuSans-32"/>
       <use x="1238.912109" xlink:href="#DejaVuSans-68"/>
       <use x="1315.914062" xlink:href="#DejaVuSans-50"/>
      </g>
     </g>
    </g>
    <g id="ytick_23">
     <g id="line2d_29">
      <g>
       <use style="stroke:#000000;stroke-width:0.8;" x="172.8" xlink:href="#m9de188b788" y="555.50664"/>
      </g>
     </g>
     <g id="text_30">
      <!-- 4PeopleWalking - D1 -->
      <g transform="translate(61.795312 559.305859)scale(0.1 -0.1)">
       <use xlink:href="#DejaVuSans-52"/>
       <use x="63.623047" xlink:href="#DejaVuSans-80"/>
       <use x="123.878906" xlink:href="#DejaVuSans-101"/>
       <use x="185.402344" xlink:href="#DejaVuSans-111"/>
       <use x="246.583984" xlink:href="#DejaVuSans-112"/>
       <use x="310.060547" xlink:href="#DejaVuSans-108"/>
       <use x="337.84375" xlink:href="#DejaVuSans-101"/>
       <use x="399.367188" xlink:href="#DejaVuSans-87"/>
       <use x="498.150391" xlink:href="#DejaVuSans-97"/>
       <use x="559.429688" xlink:href="#DejaVuSans-108"/>
       <use x="587.212891" xlink:href="#DejaVuSans-107"/>
       <use x="645.123047" xlink:href="#DejaVuSans-105"/>
       <use x="672.90625" xlink:href="#DejaVuSans-110"/>
       <use x="736.285156" xlink:href="#DejaVuSans-103"/>
       <use x="799.761719" xlink:href="#DejaVuSans-32"/>
       <use x="831.548828" xlink:href="#DejaVuSans-45"/>
       <use x="867.632812" xlink:href="#DejaVuSans-32"/>
       <use x="899.419922" xlink:href="#DejaVuSans-68"/>
       <use x="976.421875" xlink:href="#DejaVuSans-49"/>
      </g>
     </g>
    </g>
    <g id="ytick_24">
     <g id="line2d_30">
      <g>
       <use style="stroke:#000000;stroke-width:0.8;" x="172.8" xlink:href="#m9de188b788" y="576.551664"/>
      </g>
     </g>
     <g id="text_31">
      <!-- 4PeopleWalking - D2 -->
      <g transform="translate(61.795312 580.350883)scale(0.1 -0.1)">
       <use xlink:href="#DejaVuSans-52"/>
       <use x="63.623047" xlink:href="#DejaVuSans-80"/>
       <use x="123.878906" xlink:href="#DejaVuSans-101"/>
       <use x="185.402344" xlink:href="#DejaVuSans-111"/>
       <use x="246.583984" xlink:href="#DejaVuSans-112"/>
       <use x="310.060547" xlink:href="#DejaVuSans-108"/>
       <use x="337.84375" xlink:href="#DejaVuSans-101"/>
       <use x="399.367188" xlink:href="#DejaVuSans-87"/>
       <use x="498.150391" xlink:href="#DejaVuSans-97"/>
       <use x="559.429688" xlink:href="#DejaVuSans-108"/>
       <use x="587.212891" xlink:href="#DejaVuSans-107"/>
       <use x="645.123047" xlink:href="#DejaVuSans-105"/>
       <use x="672.90625" xlink:href="#DejaVuSans-110"/>
       <use x="736.285156" xlink:href="#DejaVuSans-103"/>
       <use x="799.761719" xlink:href="#DejaVuSans-32"/>
       <use x="831.548828" xlink:href="#DejaVuSans-45"/>
       <use x="867.632812" xlink:href="#DejaVuSans-32"/>
       <use x="899.419922" xlink:href="#DejaVuSans-68"/>
       <use x="976.421875" xlink:href="#DejaVuSans-50"/>
      </g>
     </g>
    </g>
    <g id="ytick_25">
     <g id="line2d_31">
      <g>
       <use style="stroke:#000000;stroke-width:0.8;" x="172.8" xlink:href="#m9de188b788" y="597.596688"/>
      </g>
     </g>
     <g id="text_32">
      <!-- 5PeopleWalking - D2 -->
      <defs>
       <path d="M 10.796875 72.90625 
L 49.515625 72.90625 
L 49.515625 64.59375 
L 19.828125 64.59375 
L 19.828125 46.734375 
Q 21.96875 47.46875 24.109375 47.828125 
Q 26.265625 48.1875 28.421875 48.1875 
Q 40.625 48.1875 47.75 41.5 
Q 54.890625 34.8125 54.890625 23.390625 
Q 54.890625 11.625 47.5625 5.09375 
Q 40.234375 -1.421875 26.90625 -1.421875 
Q 22.3125 -1.421875 17.546875 -0.640625 
Q 12.796875 0.140625 7.71875 1.703125 
L 7.71875 11.625 
Q 12.109375 9.234375 16.796875 8.0625 
Q 21.484375 6.890625 26.703125 6.890625 
Q 35.15625 6.890625 40.078125 11.328125 
Q 45.015625 15.765625 45.015625 23.390625 
Q 45.015625 31 40.078125 35.4375 
Q 35.15625 39.890625 26.703125 39.890625 
Q 22.75 39.890625 18.8125 39.015625 
Q 14.890625 38.140625 10.796875 36.28125 
z
" id="DejaVuSans-53"/>
      </defs>
      <g transform="translate(61.795312 601.395907)scale(0.1 -0.1)">
       <use xlink:href="#DejaVuSans-53"/>
       <use x="63.623047" xlink:href="#DejaVuSans-80"/>
       <use x="123.878906" xlink:href="#DejaVuSans-101"/>
       <use x="185.402344" xlink:href="#DejaVuSans-111"/>
       <use x="246.583984" xlink:href="#DejaVuSans-112"/>
       <use x="310.060547" xlink:href="#DejaVuSans-108"/>
       <use x="337.84375" xlink:href="#DejaVuSans-101"/>
       <use x="399.367188" xlink:href="#DejaVuSans-87"/>
       <use x="498.150391" xlink:href="#DejaVuSans-97"/>
       <use x="559.429688" xlink:href="#DejaVuSans-108"/>
       <use x="587.212891" xlink:href="#DejaVuSans-107"/>
       <use x="645.123047" xlink:href="#DejaVuSans-105"/>
       <use x="672.90625" xlink:href="#DejaVuSans-110"/>
       <use x="736.285156" xlink:href="#DejaVuSans-103"/>
       <use x="799.761719" xlink:href="#DejaVuSans-32"/>
       <use x="831.548828" xlink:href="#DejaVuSans-45"/>
       <use x="867.632812" xlink:href="#DejaVuSans-32"/>
       <use x="899.419922" xlink:href="#DejaVuSans-68"/>
       <use x="976.421875" xlink:href="#DejaVuSans-50"/>
      </g>
     </g>
    </g>
    <g id="text_33">
     <!-- Dataset -->
     <g transform="translate(21.764062 364.636087)rotate(-90)scale(0.1 -0.1)">
      <use xlink:href="#DejaVuSans-68"/>
      <use x="77.001953" xlink:href="#DejaVuSans-97"/>
      <use x="138.28125" xlink:href="#DejaVuSans-116"/>
      <use x="177.490234" xlink:href="#DejaVuSans-97"/>
      <use x="238.769531" xlink:href="#DejaVuSans-115"/>
      <use x="290.869141" xlink:href="#DejaVuSans-101"/>
      <use x="352.392578" xlink:href="#DejaVuSans-116"/>
     </g>
    </g>
   </g>
   <g id="line2d_32">
    <path clip-path="url(#pb913cd231c)" d="M 0 0 
" style="fill:none;stroke:#424242;stroke-linecap:square;stroke-width:2.7;"/>
   </g>
   <g id="line2d_33">
    <path clip-path="url(#pb913cd231c)" d="M 0 0 
" style="fill:none;stroke:#424242;stroke-linecap:square;stroke-width:2.7;"/>
   </g>
   <g id="line2d_34">
    <path clip-path="url(#pb913cd231c)" d="M 0 0 
" style="fill:none;stroke:#424242;stroke-linecap:square;stroke-width:2.7;"/>
   </g>
   <g id="line2d_35">
    <path clip-path="url(#pb913cd231c)" d="M 0 0 
" style="fill:none;stroke:#424242;stroke-linecap:square;stroke-width:2.7;"/>
   </g>
   <g id="line2d_36">
    <path clip-path="url(#pb913cd231c)" d="M 0 0 
" style="fill:none;stroke:#424242;stroke-linecap:square;stroke-width:2.7;"/>
   </g>
   <g id="line2d_37">
    <path clip-path="url(#pb913cd231c)" d="M 0 0 
" style="fill:none;stroke:#424242;stroke-linecap:square;stroke-width:2.7;"/>
   </g>
   <g id="line2d_38">
    <path clip-path="url(#pb913cd231c)" d="M 0 0 
" style="fill:none;stroke:#424242;stroke-linecap:square;stroke-width:2.7;"/>
   </g>
   <g id="line2d_39">
    <path clip-path="url(#pb913cd231c)" d="M 0 0 
" style="fill:none;stroke:#424242;stroke-linecap:square;stroke-width:2.7;"/>
   </g>
   <g id="line2d_40">
    <path clip-path="url(#pb913cd231c)" d="M 0 0 
" style="fill:none;stroke:#424242;stroke-linecap:square;stroke-width:2.7;"/>
   </g>
   <g id="line2d_41">
    <path clip-path="url(#pb913cd231c)" d="M 0 0 
" style="fill:none;stroke:#424242;stroke-linecap:square;stroke-width:2.7;"/>
   </g>
   <g id="line2d_42">
    <path clip-path="url(#pb913cd231c)" d="M 0 0 
" style="fill:none;stroke:#424242;stroke-linecap:square;stroke-width:2.7;"/>
   </g>
   <g id="line2d_43">
    <path clip-path="url(#pb913cd231c)" d="M 0 0 
" style="fill:none;stroke:#424242;stroke-linecap:square;stroke-width:2.7;"/>
   </g>
   <g id="line2d_44">
    <path clip-path="url(#pb913cd231c)" d="M 0 0 
" style="fill:none;stroke:#424242;stroke-linecap:square;stroke-width:2.7;"/>
   </g>
   <g id="line2d_45">
    <path clip-path="url(#pb913cd231c)" d="M 0 0 
" style="fill:none;stroke:#424242;stroke-linecap:square;stroke-width:2.7;"/>
   </g>
   <g id="line2d_46">
    <path clip-path="url(#pb913cd231c)" d="M 0 0 
" style="fill:none;stroke:#424242;stroke-linecap:square;stroke-width:2.7;"/>
   </g>
   <g id="line2d_47">
    <path clip-path="url(#pb913cd231c)" d="M 0 0 
" style="fill:none;stroke:#424242;stroke-linecap:square;stroke-width:2.7;"/>
   </g>
   <g id="line2d_48">
    <path clip-path="url(#pb913cd231c)" d="M 0 0 
" style="fill:none;stroke:#424242;stroke-linecap:square;stroke-width:2.7;"/>
   </g>
   <g id="line2d_49">
    <path clip-path="url(#pb913cd231c)" d="M 0 0 
" style="fill:none;stroke:#424242;stroke-linecap:square;stroke-width:2.7;"/>
   </g>
   <g id="line2d_50">
    <path clip-path="url(#pb913cd231c)" d="M 0 0 
" style="fill:none;stroke:#424242;stroke-linecap:square;stroke-width:2.7;"/>
   </g>
   <g id="line2d_51">
    <path clip-path="url(#pb913cd231c)" d="M 0 0 
" style="fill:none;stroke:#424242;stroke-linecap:square;stroke-width:2.7;"/>
   </g>
   <g id="line2d_52">
    <path clip-path="url(#pb913cd231c)" d="M 0 0 
" style="fill:none;stroke:#424242;stroke-linecap:square;stroke-width:2.7;"/>
   </g>
   <g id="line2d_53">
    <path clip-path="url(#pb913cd231c)" d="M 0 0 
" style="fill:none;stroke:#424242;stroke-linecap:square;stroke-width:2.7;"/>
   </g>
   <g id="line2d_54">
    <path clip-path="url(#pb913cd231c)" d="M 0 0 
" style="fill:none;stroke:#424242;stroke-linecap:square;stroke-width:2.7;"/>
   </g>
   <g id="line2d_55">
    <path clip-path="url(#pb913cd231c)" d="M 0 0 
" style="fill:none;stroke:#424242;stroke-linecap:square;stroke-width:2.7;"/>
   </g>
   <g id="line2d_56">
    <path clip-path="url(#pb913cd231c)" d="M 0 0 
" style="fill:none;stroke:#424242;stroke-linecap:square;stroke-width:2.7;"/>
   </g>
   <g id="line2d_57">
    <path clip-path="url(#pb913cd231c)" d="M 0 0 
" style="fill:none;stroke:#424242;stroke-linecap:square;stroke-width:2.7;"/>
   </g>
   <g id="line2d_58">
    <path clip-path="url(#pb913cd231c)" d="M 0 0 
" style="fill:none;stroke:#424242;stroke-linecap:square;stroke-width:2.7;"/>
   </g>
   <g id="line2d_59">
    <path clip-path="url(#pb913cd231c)" d="M 0 0 
" style="fill:none;stroke:#424242;stroke-linecap:square;stroke-width:2.7;"/>
   </g>
   <g id="line2d_60">
    <path clip-path="url(#pb913cd231c)" d="M 0 0 
" style="fill:none;stroke:#424242;stroke-linecap:square;stroke-width:2.7;"/>
   </g>
   <g id="line2d_61">
    <path clip-path="url(#pb913cd231c)" d="M 0 0 
" style="fill:none;stroke:#424242;stroke-linecap:square;stroke-width:2.7;"/>
   </g>
   <g id="line2d_62">
    <path clip-path="url(#pb913cd231c)" d="M 0 0 
" style="fill:none;stroke:#424242;stroke-linecap:square;stroke-width:2.7;"/>
   </g>
   <g id="line2d_63">
    <path clip-path="url(#pb913cd231c)" d="M 0 0 
" style="fill:none;stroke:#424242;stroke-linecap:square;stroke-width:2.7;"/>
   </g>
   <g id="line2d_64">
    <path clip-path="url(#pb913cd231c)" d="M 0 0 
" style="fill:none;stroke:#424242;stroke-linecap:square;stroke-width:2.7;"/>
   </g>
   <g id="line2d_65">
    <path clip-path="url(#pb913cd231c)" d="M 0 0 
" style="fill:none;stroke:#424242;stroke-linecap:square;stroke-width:2.7;"/>
   </g>
   <g id="line2d_66">
    <path clip-path="url(#pb913cd231c)" d="M 0 0 
" style="fill:none;stroke:#424242;stroke-linecap:square;stroke-width:2.7;"/>
   </g>
   <g id="line2d_67">
    <path clip-path="url(#pb913cd231c)" d="M 0 0 
" style="fill:none;stroke:#424242;stroke-linecap:square;stroke-width:2.7;"/>
   </g>
   <g id="line2d_68">
    <path clip-path="url(#pb913cd231c)" d="M 0 0 
" style="fill:none;stroke:#424242;stroke-linecap:square;stroke-width:2.7;"/>
   </g>
   <g id="line2d_69">
    <path clip-path="url(#pb913cd231c)" d="M 0 0 
" style="fill:none;stroke:#424242;stroke-linecap:square;stroke-width:2.7;"/>
   </g>
   <g id="line2d_70">
    <path clip-path="url(#pb913cd231c)" d="M 0 0 
" style="fill:none;stroke:#424242;stroke-linecap:square;stroke-width:2.7;"/>
   </g>
   <g id="line2d_71">
    <path clip-path="url(#pb913cd231c)" d="M 0 0 
" style="fill:none;stroke:#424242;stroke-linecap:square;stroke-width:2.7;"/>
   </g>
   <g id="line2d_72">
    <path clip-path="url(#pb913cd231c)" d="M 0 0 
" style="fill:none;stroke:#424242;stroke-linecap:square;stroke-width:2.7;"/>
   </g>
   <g id="line2d_73">
    <path clip-path="url(#pb913cd231c)" d="M 0 0 
" style="fill:none;stroke:#424242;stroke-linecap:square;stroke-width:2.7;"/>
   </g>
   <g id="line2d_74">
    <path clip-path="url(#pb913cd231c)" d="M 0 0 
" style="fill:none;stroke:#424242;stroke-linecap:square;stroke-width:2.7;"/>
   </g>
   <g id="line2d_75">
    <path clip-path="url(#pb913cd231c)" d="M 0 0 
" style="fill:none;stroke:#424242;stroke-linecap:square;stroke-width:2.7;"/>
   </g>
   <g id="line2d_76">
    <path clip-path="url(#pb913cd231c)" d="M 0 0 
" style="fill:none;stroke:#424242;stroke-linecap:square;stroke-width:2.7;"/>
   </g>
   <g id="line2d_77">
    <path clip-path="url(#pb913cd231c)" d="M 0 0 
" style="fill:none;stroke:#424242;stroke-linecap:square;stroke-width:2.7;"/>
   </g>
   <g id="line2d_78">
    <path clip-path="url(#pb913cd231c)" d="M 0 0 
" style="fill:none;stroke:#424242;stroke-linecap:square;stroke-width:2.7;"/>
   </g>
   <g id="line2d_79">
    <path clip-path="url(#pb913cd231c)" d="M 0 0 
" style="fill:none;stroke:#424242;stroke-linecap:square;stroke-width:2.7;"/>
   </g>
   <g id="line2d_80">
    <path clip-path="url(#pb913cd231c)" d="M 0 0 
" style="fill:none;stroke:#424242;stroke-linecap:square;stroke-width:2.7;"/>
   </g>
   <g id="line2d_81">
    <path clip-path="url(#pb913cd231c)" d="M 0 0 
" style="fill:none;stroke:#424242;stroke-linecap:square;stroke-width:2.7;"/>
   </g>
   <g id="patch_53">
    <path d="M 172.8 608.1192 
L 172.8 81.9936 
" style="fill:none;stroke:#000000;stroke-linecap:square;stroke-linejoin:miter;stroke-width:0.8;"/>
   </g>
   <g id="patch_54">
    <path d="M 1244.16 608.1192 
L 1244.16 81.9936 
" style="fill:none;stroke:#000000;stroke-linecap:square;stroke-linejoin:miter;stroke-width:0.8;"/>
   </g>
   <g id="patch_55">
    <path d="M 172.8 608.1192 
L 1244.16 608.1192 
" style="fill:none;stroke:#000000;stroke-linecap:square;stroke-linejoin:miter;stroke-width:0.8;"/>
   </g>
   <g id="patch_56">
    <path d="M 172.8 81.9936 
L 1244.16 81.9936 
" style="fill:none;stroke:#000000;stroke-linecap:square;stroke-linejoin:miter;stroke-width:0.8;"/>
   </g>
   <g id="text_34">
    <!-- Accuracy % versus Dataset -->
    <g transform="translate(626.301562 75.9936)scale(0.12 -0.12)">
     <use xlink:href="#DejaVuSans-65"/>
     <use x="68.392578" xlink:href="#DejaVuSans-99"/>
     <use x="123.373047" xlink:href="#DejaVuSans-99"/>
     <use x="178.353516" xlink:href="#DejaVuSans-117"/>
     <use x="241.732422" xlink:href="#DejaVuSans-114"/>
     <use x="282.845703" xlink:href="#DejaVuSans-97"/>
     <use x="344.125" xlink:href="#DejaVuSans-99"/>
     <use x="399.105469" xlink:href="#DejaVuSans-121"/>
     <use x="458.285156" xlink:href="#DejaVuSans-32"/>
     <use x="490.072266" xlink:href="#DejaVuSans-37"/>
     <use x="585.091797" xlink:href="#DejaVuSans-32"/>
     <use x="616.878906" xlink:href="#DejaVuSans-118"/>
     <use x="676.058594" xlink:href="#DejaVuSans-101"/>
     <use x="737.582031" xlink:href="#DejaVuSans-114"/>
     <use x="778.695312" xlink:href="#DejaVuSans-115"/>
     <use x="830.794922" xlink:href="#DejaVuSans-117"/>
     <use x="894.173828" xlink:href="#DejaVuSans-115"/>
     <use x="946.273438" xlink:href="#DejaVuSans-32"/>
     <use x="978.060547" xlink:href="#DejaVuSans-68"/>
     <use x="1055.0625" xlink:href="#DejaVuSans-97"/>
     <use x="1116.341797" xlink:href="#DejaVuSans-116"/>
     <use x="1155.550781" xlink:href="#DejaVuSans-97"/>
     <use x="1216.830078" xlink:href="#DejaVuSans-115"/>
     <use x="1268.929688" xlink:href="#DejaVuSans-101"/>
     <use x="1330.453125" xlink:href="#DejaVuSans-116"/>
    </g>
   </g>
   <g id="legend_1">
    <g id="patch_57">
     <path d="M 1161.774062 603.1192 
L 1237.16 603.1192 
Q 1239.16 603.1192 1239.16 601.1192 
L 1239.16 558.084825 
Q 1239.16 556.084825 1237.16 556.084825 
L 1161.774062 556.084825 
Q 1159.774062 556.084825 1159.774062 558.084825 
L 1159.774062 601.1192 
Q 1159.774062 603.1192 1161.774062 603.1192 
z
" style="fill:#ffffff;opacity:0.8;stroke:#cccccc;stroke-linejoin:miter;"/>
    </g>
    <g id="text_35">
     <!-- Group -->
     <defs>
      <path d="M 59.515625 10.40625 
L 59.515625 29.984375 
L 43.40625 29.984375 
L 43.40625 38.09375 
L 69.28125 38.09375 
L 69.28125 6.78125 
Q 63.578125 2.734375 56.6875 0.65625 
Q 49.8125 -1.421875 42 -1.421875 
Q 24.90625 -1.421875 15.25 8.5625 
Q 5.609375 18.5625 5.609375 36.375 
Q 5.609375 54.25 15.25 64.234375 
Q 24.90625 74.21875 42 74.21875 
Q 49.125 74.21875 55.546875 72.453125 
Q 61.96875 70.703125 67.390625 67.28125 
L 67.390625 56.78125 
Q 61.921875 61.421875 55.765625 63.765625 
Q 49.609375 66.109375 42.828125 66.109375 
Q 29.4375 66.109375 22.71875 58.640625 
Q 16.015625 51.171875 16.015625 36.375 
Q 16.015625 21.625 22.71875 14.15625 
Q 29.4375 6.6875 42.828125 6.6875 
Q 48.046875 6.6875 52.140625 7.59375 
Q 56.25 8.5 59.515625 10.40625 
z
" id="DejaVuSans-71"/>
     </defs>
     <g transform="translate(1184.136562 567.683262)scale(0.1 -0.1)">
      <use xlink:href="#DejaVuSans-71"/>
      <use x="77.490234" xlink:href="#DejaVuSans-114"/>
      <use x="118.572266" xlink:href="#DejaVuSans-111"/>
      <use x="179.753906" xlink:href="#DejaVuSans-117"/>
      <use x="243.132812" xlink:href="#DejaVuSans-112"/>
     </g>
    </g>
    <g id="patch_58">
     <path d="M 1163.774062 582.361387 
L 1183.774062 582.361387 
L 1183.774062 575.361387 
L 1163.774062 575.361387 
z
" style="fill:#3274a1;"/>
    </g>
    <g id="text_36">
     <!-- Group16 -->
     <g transform="translate(1191.774062 582.361387)scale(0.1 -0.1)">
      <use xlink:href="#DejaVuSans-71"/>
      <use x="77.490234" xlink:href="#DejaVuSans-114"/>
      <use x="118.572266" xlink:href="#DejaVuSans-111"/>
      <use x="179.753906" xlink:href="#DejaVuSans-117"/>
      <use x="243.132812" xlink:href="#DejaVuSans-112"/>
      <use x="306.609375" xlink:href="#DejaVuSans-49"/>
      <use x="370.232422" xlink:href="#DejaVuSans-54"/>
     </g>
    </g>
    <g id="patch_59">
     <path d="M 1163.774062 597.039513 
L 1183.774062 597.039513 
L 1183.774062 590.039513 
L 1163.774062 590.039513 
z
" style="fill:#e1812c;"/>
    </g>
    <g id="text_37">
     <!-- TI -->
     <g transform="translate(1191.774062 597.039513)scale(0.1 -0.1)">
      <use xlink:href="#DejaVuSans-84"/>
      <use x="61.083984" xlink:href="#DejaVuSans-73"/>
     </g>
    </g>
   </g>
  </g>
 </g>
 <defs>
  <clipPath id="pb913cd231c">
   <rect height="526.1256" width="1071.36" x="172.8" y="81.9936"/>
  </clipPath>
 </defs>
</svg>
