<?xml version="1.0" encoding="utf-8" standalone="no"?>
<!DOCTYPE svg PUBLIC "-//W3C//DTD SVG 1.1//EN"
  "http://www.w3.org/Graphics/SVG/1.1/DTD/svg11.dtd">
<!-- Created with matplotlib (https://matplotlib.org/) -->
<svg height="1440pt" version="1.1" viewBox="0 0 1440 1440" width="1440pt" xmlns="http://www.w3.org/2000/svg" xmlns:xlink="http://www.w3.org/1999/xlink">
 <defs>
  <style type="text/css">
*{stroke-linecap:butt;stroke-linejoin:round;white-space:pre;}
  </style>
 </defs>
 <g id="figure_1">
  <g id="patch_1">
   <path d="M 0 1440 
L 1440 1440 
L 1440 0 
L 0 0 
z
" style="fill:#ffffff;"/>
  </g>
  <g id="axes_1">
   <g id="patch_2">
    <path d="M 180 1260 
L 1296 1260 
L 1296 172.8 
L 180 172.8 
z
" style="fill:#ffffff;"/>
   </g>
   <g id="PathCollection_1">
    <defs>
     <path d="M 0 3 
C 0.795609 3 1.55874 2.683901 2.12132 2.12132 
C 2.683901 1.55874 3 0.795609 3 0 
C 3 -0.795609 2.683901 -1.55874 2.12132 -2.12132 
C 1.55874 -2.683901 0.795609 -3 0 -3 
C -0.795609 -3 -1.55874 -2.683901 -2.12132 -2.12132 
C -2.683901 -1.55874 -3 -0.795609 -3 0 
C -3 0.795609 -2.683901 1.55874 -2.12132 2.12132 
C -1.55874 2.683901 -0.795609 3 0 3 
z
" id="m1473cff2a5" style="stroke:#ffffff;stroke-width:0.75;"/>
    </defs>
    <g clip-path="url(#pf6887c6fd3)">
     <use style="fill:#0000ff;stroke:#ffffff;stroke-width:0.75;" x="924.054856" xlink:href="#m1473cff2a5" y="384.831058"/>
     <use style="fill:#0000ff;stroke:#ffffff;stroke-width:0.75;" x="909.258584" xlink:href="#m1473cff2a5" y="373.43875"/>
     <use style="fill:#0000ff;stroke:#ffffff;stroke-width:0.75;" x="876.493981" xlink:href="#m1473cff2a5" y="370.456986"/>
     <use style="fill:#0000ff;stroke:#ffffff;stroke-width:0.75;" x="873.856001" xlink:href="#m1473cff2a5" y="387.40068"/>
     <use style="fill:#0000ff;stroke:#ffffff;stroke-width:0.75;" x="857.953777" xlink:href="#m1473cff2a5" y="387.758561"/>
     <use style="fill:#0000ff;stroke:#ffffff;stroke-width:0.75;" x="872.537011" xlink:href="#m1473cff2a5" y="395.872484"/>
     <use style="fill:#0000ff;stroke:#ffffff;stroke-width:0.75;" x="888.436741" xlink:href="#m1473cff2a5" y="396.528714"/>
     <use style="fill:#0000ff;stroke:#ffffff;stroke-width:0.75;" x="892.818389" xlink:href="#m1473cff2a5" y="371.379078"/>
     <use style="fill:#0000ff;stroke:#ffffff;stroke-width:0.75;" x="891.357847" xlink:href="#m1473cff2a5" y="379.762232"/>
     <use style="fill:#0000ff;stroke:#ffffff;stroke-width:0.75;" x="889.897294" xlink:href="#m1473cff2a5" y="388.145387"/>
     <use style="fill:#0000ff;stroke:#ffffff;stroke-width:0.75;" x="886.976188" xlink:href="#m1473cff2a5" y="404.911868"/>
     <use style="fill:#0000ff;stroke:#ffffff;stroke-width:0.75;" x="885.515635" xlink:href="#m1473cff2a5" y="413.295109"/>
     <use style="fill:#0000ff;stroke:#ffffff;stroke-width:0.75;" x="902.856395" xlink:href="#m1473cff2a5" y="406.581258"/>
     <use style="fill:#0000ff;stroke:#ffffff;stroke-width:0.75;" x="907.658031" xlink:href="#m1473cff2a5" y="381.724356"/>
     <use style="fill:#0000ff;stroke:#ffffff;stroke-width:0.75;" x="906.057489" xlink:href="#m1473cff2a5" y="390.009961"/>
     <use style="fill:#0000ff;stroke:#ffffff;stroke-width:0.75;" x="904.456948" xlink:href="#m1473cff2a5" y="398.295566"/>
     <use style="fill:#0000ff;stroke:#ffffff;stroke-width:0.75;" x="901.255853" xlink:href="#m1473cff2a5" y="414.866864"/>
     <use style="fill:#0000ff;stroke:#ffffff;stroke-width:0.75;" x="917.099519" xlink:href="#m1473cff2a5" y="417.547686"/>
     <use style="fill:#0000ff;stroke:#ffffff;stroke-width:0.75;" x="922.31601" xlink:href="#m1473cff2a5" y="393.010301"/>
     <use style="fill:#0000ff;stroke:#ffffff;stroke-width:0.75;" x="920.577187" xlink:href="#m1473cff2a5" y="401.189372"/>
     <use style="fill:#0000ff;stroke:#ffffff;stroke-width:0.75;" x="918.838364" xlink:href="#m1473cff2a5" y="409.368529"/>
     <use style="fill:#0000ff;stroke:#ffffff;stroke-width:0.75;" x="915.360696" xlink:href="#m1473cff2a5" y="425.726843"/>
     <use style="fill:#0000ff;stroke:#ffffff;stroke-width:0.75;" x="938.651849" xlink:href="#m1473cff2a5" y="397.160492"/>
    </g>
   </g>
   <g id="PathCollection_2">
    <g clip-path="url(#pf6887c6fd3)">
     <use style="fill:#0000ff;stroke:#ffffff;stroke-width:0.75;" x="859.170738" xlink:href="#m1473cff2a5" y="906.6701"/>
     <use style="fill:#0000ff;stroke:#ffffff;stroke-width:0.75;" x="851.594559" xlink:href="#m1473cff2a5" y="876.651835"/>
     <use style="fill:#0000ff;stroke:#ffffff;stroke-width:0.75;" x="819.627927" xlink:href="#m1473cff2a5" y="837.433432"/>
     <use style="fill:#0000ff;stroke:#ffffff;stroke-width:0.75;" x="818.027374" xlink:href="#m1473cff2a5" y="845.719037"/>
     <use style="fill:#0000ff;stroke:#ffffff;stroke-width:0.75;" x="826.680348" xlink:href="#m1473cff2a5" y="842.863422"/>
     <use style="fill:#0000ff;stroke:#ffffff;stroke-width:0.75;" x="824.941519" xlink:href="#m1473cff2a5" y="851.042579"/>
     <use style="fill:#0000ff;stroke:#ffffff;stroke-width:0.75;" x="823.202685" xlink:href="#m1473cff2a5" y="859.221736"/>
     <use style="fill:#0000ff;stroke:#ffffff;stroke-width:0.75;" x="831.762549" xlink:href="#m1473cff2a5" y="856.80401"/>
     <use style="fill:#0000ff;stroke:#ffffff;stroke-width:0.75;" x="829.887296" xlink:href="#m1473cff2a5" y="864.867906"/>
     <use style="fill:#0000ff;stroke:#ffffff;stroke-width:0.75;" x="828.012048" xlink:href="#m1473cff2a5" y="872.931801"/>
     <use style="fill:#0000ff;stroke:#ffffff;stroke-width:0.75;" x="826.136795" xlink:href="#m1473cff2a5" y="880.99574"/>
     <use style="fill:#0000ff;stroke:#ffffff;stroke-width:0.75;" x="824.261542" xlink:href="#m1473cff2a5" y="889.059679"/>
     <use style="fill:#0000ff;stroke:#ffffff;stroke-width:0.75;" x="836.473509" xlink:href="#m1473cff2a5" y="870.937234"/>
     <use style="fill:#0000ff;stroke:#ffffff;stroke-width:0.75;" x="838.483175" xlink:href="#m1473cff2a5" y="862.997153"/>
     <use style="fill:#0000ff;stroke:#ffffff;stroke-width:0.75;" x="834.463855" xlink:href="#m1473cff2a5" y="878.877271"/>
     <use style="fill:#0000ff;stroke:#ffffff;stroke-width:0.75;" x="832.454189" xlink:href="#m1473cff2a5" y="886.817308"/>
     <use style="fill:#0000ff;stroke:#ffffff;stroke-width:0.75;" x="830.444524" xlink:href="#m1473cff2a5" y="894.757388"/>
     <use style="fill:#0000ff;stroke:#ffffff;stroke-width:0.75;" x="840.812363" xlink:href="#m1473cff2a5" y="885.230821"/>
     <use style="fill:#0000ff;stroke:#ffffff;stroke-width:0.75;" x="845.096206" xlink:href="#m1473cff2a5" y="869.615485"/>
     <use style="fill:#0000ff;stroke:#ffffff;stroke-width:0.75;" x="842.954279" xlink:href="#m1473cff2a5" y="877.423153"/>
     <use style="fill:#0000ff;stroke:#ffffff;stroke-width:0.75;" x="838.670436" xlink:href="#m1473cff2a5" y="893.038532"/>
     <use style="fill:#0000ff;stroke:#ffffff;stroke-width:0.75;" x="836.528509" xlink:href="#m1473cff2a5" y="900.846221"/>
     <use style="fill:#0000ff;stroke:#ffffff;stroke-width:0.75;" x="847.050783" xlink:href="#m1473cff2a5" y="891.985756"/>
     <use style="fill:#0000ff;stroke:#ffffff;stroke-width:0.75;" x="849.322665" xlink:href="#m1473cff2a5" y="884.318795"/>
     <use style="fill:#0000ff;stroke:#ffffff;stroke-width:0.75;" x="844.778889" xlink:href="#m1473cff2a5" y="899.652717"/>
     <use style="fill:#0000ff;stroke:#ffffff;stroke-width:0.75;" x="842.506996" xlink:href="#m1473cff2a5" y="907.319677"/>
     <use style="fill:#0000ff;stroke:#ffffff;stroke-width:0.75;" x="855.57185" xlink:href="#m1473cff2a5" y="891.616729"/>
     <use style="fill:#0000ff;stroke:#ffffff;stroke-width:0.75;" x="853.172429" xlink:href="#m1473cff2a5" y="899.13471"/>
    </g>
   </g>
   <g id="PathCollection_3">
    <g clip-path="url(#pf6887c6fd3)">
     <use style="fill:#0000ff;stroke:#ffffff;stroke-width:0.75;" x="721.986768" xlink:href="#m1473cff2a5" y="1023.012676"/>
     <use style="fill:#0000ff;stroke:#ffffff;stroke-width:0.75;" x="722.579851" xlink:href="#m1473cff2a5" y="1031.789979"/>
     <use style="fill:#0000ff;stroke:#ffffff;stroke-width:0.75;" x="718.015639" xlink:href="#m1473cff2a5" y="1024.160409"/>
     <use style="fill:#0000ff;stroke:#ffffff;stroke-width:0.75;" x="718.755799" xlink:href="#m1473cff2a5" y="1032.895201"/>
     <use style="fill:#0000ff;stroke:#ffffff;stroke-width:0.75;" x="719.495961" xlink:href="#m1473cff2a5" y="1041.630015"/>
     <use style="fill:#0000ff;stroke:#ffffff;stroke-width:0.75;" x="720.236121" xlink:href="#m1473cff2a5" y="1050.364808"/>
     <use style="fill:#0000ff;stroke:#ffffff;stroke-width:0.75;" x="714.065904" xlink:href="#m1473cff2a5" y="1025.560676"/>
     <use style="fill:#0000ff;stroke:#ffffff;stroke-width:0.75;" x="714.952352" xlink:href="#m1473cff2a5" y="1034.243605"/>
     <use style="fill:#0000ff;stroke:#ffffff;stroke-width:0.75;" x="715.8388" xlink:href="#m1473cff2a5" y="1042.926556"/>
     <use style="fill:#0000ff;stroke:#ffffff;stroke-width:0.75;" x="716.725248" xlink:href="#m1473cff2a5" y="1051.609485"/>
     <use style="fill:#0000ff;stroke:#ffffff;stroke-width:0.75;" x="710.141803" xlink:href="#m1473cff2a5" y="1027.211986"/>
     <use style="fill:#0000ff;stroke:#ffffff;stroke-width:0.75;" x="711.173587" xlink:href="#m1473cff2a5" y="1035.833764"/>
     <use style="fill:#0000ff;stroke:#ffffff;stroke-width:0.75;" x="712.205371" xlink:href="#m1473cff2a5" y="1044.455541"/>
     <use style="fill:#0000ff;stroke:#ffffff;stroke-width:0.75;" x="713.237155" xlink:href="#m1473cff2a5" y="1053.077297"/>
     <use style="fill:#0000ff;stroke:#ffffff;stroke-width:0.75;" x="706.24753" xlink:href="#m1473cff2a5" y="1029.112569"/>
     <use style="fill:#0000ff;stroke:#ffffff;stroke-width:0.75;" x="707.423546" xlink:href="#m1473cff2a5" y="1037.66395"/>
     <use style="fill:#0000ff;stroke:#ffffff;stroke-width:0.75;" x="709.775581" xlink:href="#m1473cff2a5" y="1054.766711"/>
     <use style="fill:#0000ff;stroke:#ffffff;stroke-width:0.75;" x="702.387262" xlink:href="#m1473cff2a5" y="1031.260372"/>
    </g>
   </g>
   <g id="PathCollection_4">
    <g clip-path="url(#pf6887c6fd3)">
     <use style="fill:#0000ff;stroke:#ffffff;stroke-width:0.75;" x="630.903794" xlink:href="#m1473cff2a5" y="869.615485"/>
     <use style="fill:#0000ff;stroke:#ffffff;stroke-width:0.75;" x="633.045721" xlink:href="#m1473cff2a5" y="877.423153"/>
     <use style="fill:#0000ff;stroke:#ffffff;stroke-width:0.75;" x="635.187637" xlink:href="#m1473cff2a5" y="885.230821"/>
     <use style="fill:#0000ff;stroke:#ffffff;stroke-width:0.75;" x="637.329564" xlink:href="#m1473cff2a5" y="893.038532"/>
     <use style="fill:#0000ff;stroke:#ffffff;stroke-width:0.75;" x="626.677335" xlink:href="#m1473cff2a5" y="884.318795"/>
     <use style="fill:#0000ff;stroke:#ffffff;stroke-width:0.75;" x="624.405441" xlink:href="#m1473cff2a5" y="876.651835"/>
     <use style="fill:#0000ff;stroke:#ffffff;stroke-width:0.75;" x="628.949217" xlink:href="#m1473cff2a5" y="891.985756"/>
     <use style="fill:#0000ff;stroke:#ffffff;stroke-width:0.75;" x="631.221111" xlink:href="#m1473cff2a5" y="899.652717"/>
     <use style="fill:#0000ff;stroke:#ffffff;stroke-width:0.75;" x="633.493004" xlink:href="#m1473cff2a5" y="907.319677"/>
     <use style="fill:#0000ff;stroke:#ffffff;stroke-width:0.75;" x="622.827571" xlink:href="#m1473cff2a5" y="899.13471"/>
     <use style="fill:#0000ff;stroke:#ffffff;stroke-width:0.75;" x="618.028718" xlink:href="#m1473cff2a5" y="884.098684"/>
     <use style="fill:#0000ff;stroke:#ffffff;stroke-width:0.75;" x="620.42815" xlink:href="#m1473cff2a5" y="891.616729"/>
     <use style="fill:#0000ff;stroke:#ffffff;stroke-width:0.75;" x="625.226992" xlink:href="#m1473cff2a5" y="906.652734"/>
     <use style="fill:#0000ff;stroke:#ffffff;stroke-width:0.75;" x="616.829262" xlink:href="#m1473cff2a5" y="906.6701"/>
     <use style="fill:#0000ff;stroke:#ffffff;stroke-width:0.75;" x="611.780486" xlink:href="#m1473cff2a5" y="891.948041"/>
     <use style="fill:#0000ff;stroke:#ffffff;stroke-width:0.75;" x="614.304874" xlink:href="#m1473cff2a5" y="899.309071"/>
     <use style="fill:#0000ff;stroke:#ffffff;stroke-width:0.75;" x="608.314059" xlink:href="#m1473cff2a5" y="907.387698"/>
    </g>
   </g>
   <g id="PathCollection_5">
    <g clip-path="url(#pf6887c6fd3)">
     <use style="fill:#0000ff;stroke:#ffffff;stroke-width:0.75;" x="618.046223" xlink:href="#m1473cff2a5" y="387.758561"/>
     <use style="fill:#0000ff;stroke:#ffffff;stroke-width:0.75;" x="632.757916" xlink:href="#m1473cff2a5" y="380.578567"/>
     <use style="fill:#0000ff;stroke:#ffffff;stroke-width:0.75;" x="678.691736" xlink:href="#m1473cff2a5" y="382.269212"/>
     <use style="fill:#0000ff;stroke:#ffffff;stroke-width:0.75;" x="693.908512" xlink:href="#m1473cff2a5" y="387.76867"/>
     <use style="fill:#0000ff;stroke:#ffffff;stroke-width:0.75;" x="679.284818" xlink:href="#m1473cff2a5" y="391.04645"/>
     <use style="fill:#0000ff;stroke:#ffffff;stroke-width:0.75;" x="680.470981" xlink:href="#m1473cff2a5" y="408.601099"/>
     <use style="fill:#0000ff;stroke:#ffffff;stroke-width:0.75;" x="681.064062" xlink:href="#m1473cff2a5" y="417.378337"/>
     <use style="fill:#0000ff;stroke:#ffffff;stroke-width:0.75;" x="666.204326" xlink:href="#m1473cff2a5" y="412.724417"/>
     <use style="fill:#0000ff;stroke:#ffffff;stroke-width:0.75;" x="663.983846" xlink:href="#m1473cff2a5" y="386.520062"/>
     <use style="fill:#0000ff;stroke:#ffffff;stroke-width:0.75;" x="664.724" xlink:href="#m1473cff2a5" y="395.254789"/>
     <use style="fill:#0000ff;stroke:#ffffff;stroke-width:0.75;" x="665.464166" xlink:href="#m1473cff2a5" y="403.98969"/>
     <use style="fill:#0000ff;stroke:#ffffff;stroke-width:0.75;" x="666.944486" xlink:href="#m1473cff2a5" y="421.459232"/>
     <use style="fill:#0000ff;stroke:#ffffff;stroke-width:0.75;" x="667.684651" xlink:href="#m1473cff2a5" y="430.194046"/>
     <use style="fill:#0000ff;stroke:#ffffff;stroke-width:0.75;" x="652.90099" xlink:href="#m1473cff2a5" y="426.437939"/>
     <use style="fill:#0000ff;stroke:#ffffff;stroke-width:0.75;" x="649.355201" xlink:href="#m1473cff2a5" y="391.706223"/>
     <use style="fill:#0000ff;stroke:#ffffff;stroke-width:0.75;" x="650.241647" xlink:href="#m1473cff2a5" y="400.389108"/>
     <use style="fill:#0000ff;stroke:#ffffff;stroke-width:0.75;" x="651.128098" xlink:href="#m1473cff2a5" y="409.072081"/>
     <use style="fill:#0000ff;stroke:#ffffff;stroke-width:0.75;" x="652.014544" xlink:href="#m1473cff2a5" y="417.755053"/>
     <use style="fill:#0000ff;stroke:#ffffff;stroke-width:0.75;" x="635.853268" xlink:href="#m1473cff2a5" y="406.443878"/>
     <use style="fill:#0000ff;stroke:#ffffff;stroke-width:0.75;" x="636.885063" xlink:href="#m1473cff2a5" y="415.065763"/>
    </g>
   </g>
   <g id="matplotlib.axis_1">
    <g id="xtick_1">
     <g id="line2d_1">
      <defs>
       <path d="M 0 0 
L 0 3.5 
" id="me10ae19ece" style="stroke:#000000;stroke-width:0.8;"/>
      </defs>
      <g>
       <use style="stroke:#000000;stroke-width:0.8;" x="180" xlink:href="#me10ae19ece" y="1260"/>
      </g>
     </g>
     <g id="text_1">
      <!-- −6 -->
      <defs>
       <path d="M 10.59375 35.5 
L 73.1875 35.5 
L 73.1875 27.203125 
L 10.59375 27.203125 
z
" id="DejaVuSans-8722"/>
       <path d="M 33.015625 40.375 
Q 26.375 40.375 22.484375 35.828125 
Q 18.609375 31.296875 18.609375 23.390625 
Q 18.609375 15.53125 22.484375 10.953125 
Q 26.375 6.390625 33.015625 6.390625 
Q 39.65625 6.390625 43.53125 10.953125 
Q 47.40625 15.53125 47.40625 23.390625 
Q 47.40625 31.296875 43.53125 35.828125 
Q 39.65625 40.375 33.015625 40.375 
z
M 52.59375 71.296875 
L 52.59375 62.3125 
Q 48.875 64.0625 45.09375 64.984375 
Q 41.3125 65.921875 37.59375 65.921875 
Q 27.828125 65.921875 22.671875 59.328125 
Q 17.53125 52.734375 16.796875 39.40625 
Q 19.671875 43.65625 24.015625 45.921875 
Q 28.375 48.1875 33.59375 48.1875 
Q 44.578125 48.1875 50.953125 41.515625 
Q 57.328125 34.859375 57.328125 23.390625 
Q 57.328125 12.15625 50.6875 5.359375 
Q 44.046875 -1.421875 33.015625 -1.421875 
Q 20.359375 -1.421875 13.671875 8.265625 
Q 6.984375 17.96875 6.984375 36.375 
Q 6.984375 53.65625 15.1875 63.9375 
Q 23.390625 74.21875 37.203125 74.21875 
Q 40.921875 74.21875 44.703125 73.484375 
Q 48.484375 72.75 52.59375 71.296875 
z
" id="DejaVuSans-54"/>
      </defs>
      <g transform="translate(172.628906 1274.598438)scale(0.1 -0.1)">
       <use xlink:href="#DejaVuSans-8722"/>
       <use x="83.789062" xlink:href="#DejaVuSans-54"/>
      </g>
     </g>
    </g>
    <g id="xtick_2">
     <g id="line2d_2">
      <g>
       <use style="stroke:#000000;stroke-width:0.8;" x="366" xlink:href="#me10ae19ece" y="1260"/>
      </g>
     </g>
     <g id="text_2">
      <!-- −4 -->
      <defs>
       <path d="M 37.796875 64.3125 
L 12.890625 25.390625 
L 37.796875 25.390625 
z
M 35.203125 72.90625 
L 47.609375 72.90625 
L 47.609375 25.390625 
L 58.015625 25.390625 
L 58.015625 17.1875 
L 47.609375 17.1875 
L 47.609375 0 
L 37.796875 0 
L 37.796875 17.1875 
L 4.890625 17.1875 
L 4.890625 26.703125 
z
" id="DejaVuSans-52"/>
      </defs>
      <g transform="translate(358.628906 1274.598438)scale(0.1 -0.1)">
       <use xlink:href="#DejaVuSans-8722"/>
       <use x="83.789062" xlink:href="#DejaVuSans-52"/>
      </g>
     </g>
    </g>
    <g id="xtick_3">
     <g id="line2d_3">
      <g>
       <use style="stroke:#000000;stroke-width:0.8;" x="552" xlink:href="#me10ae19ece" y="1260"/>
      </g>
     </g>
     <g id="text_3">
      <!-- −2 -->
      <defs>
       <path d="M 19.1875 8.296875 
L 53.609375 8.296875 
L 53.609375 0 
L 7.328125 0 
L 7.328125 8.296875 
Q 12.9375 14.109375 22.625 23.890625 
Q 32.328125 33.6875 34.8125 36.53125 
Q 39.546875 41.84375 41.421875 45.53125 
Q 43.3125 49.21875 43.3125 52.78125 
Q 43.3125 58.59375 39.234375 62.25 
Q 35.15625 65.921875 28.609375 65.921875 
Q 23.96875 65.921875 18.8125 64.3125 
Q 13.671875 62.703125 7.8125 59.421875 
L 7.8125 69.390625 
Q 13.765625 71.78125 18.9375 73 
Q 24.125 74.21875 28.421875 74.21875 
Q 39.75 74.21875 46.484375 68.546875 
Q 53.21875 62.890625 53.21875 53.421875 
Q 53.21875 48.921875 51.53125 44.890625 
Q 49.859375 40.875 45.40625 35.40625 
Q 44.1875 33.984375 37.640625 27.21875 
Q 31.109375 20.453125 19.1875 8.296875 
z
" id="DejaVuSans-50"/>
      </defs>
      <g transform="translate(544.628906 1274.598438)scale(0.1 -0.1)">
       <use xlink:href="#DejaVuSans-8722"/>
       <use x="83.789062" xlink:href="#DejaVuSans-50"/>
      </g>
     </g>
    </g>
    <g id="xtick_4">
     <g id="line2d_4">
      <g>
       <use style="stroke:#000000;stroke-width:0.8;" x="738" xlink:href="#me10ae19ece" y="1260"/>
      </g>
     </g>
     <g id="text_4">
      <!-- 0 -->
      <defs>
       <path d="M 31.78125 66.40625 
Q 24.171875 66.40625 20.328125 58.90625 
Q 16.5 51.421875 16.5 36.375 
Q 16.5 21.390625 20.328125 13.890625 
Q 24.171875 6.390625 31.78125 6.390625 
Q 39.453125 6.390625 43.28125 13.890625 
Q 47.125 21.390625 47.125 36.375 
Q 47.125 51.421875 43.28125 58.90625 
Q 39.453125 66.40625 31.78125 66.40625 
z
M 31.78125 74.21875 
Q 44.046875 74.21875 50.515625 64.515625 
Q 56.984375 54.828125 56.984375 36.375 
Q 56.984375 17.96875 50.515625 8.265625 
Q 44.046875 -1.421875 31.78125 -1.421875 
Q 19.53125 -1.421875 13.0625 8.265625 
Q 6.59375 17.96875 6.59375 36.375 
Q 6.59375 54.828125 13.0625 64.515625 
Q 19.53125 74.21875 31.78125 74.21875 
z
" id="DejaVuSans-48"/>
      </defs>
      <g transform="translate(734.81875 1274.598438)scale(0.1 -0.1)">
       <use xlink:href="#DejaVuSans-48"/>
      </g>
     </g>
    </g>
    <g id="xtick_5">
     <g id="line2d_5">
      <g>
       <use style="stroke:#000000;stroke-width:0.8;" x="924" xlink:href="#me10ae19ece" y="1260"/>
      </g>
     </g>
     <g id="text_5">
      <!-- 2 -->
      <g transform="translate(920.81875 1274.598438)scale(0.1 -0.1)">
       <use xlink:href="#DejaVuSans-50"/>
      </g>
     </g>
    </g>
    <g id="xtick_6">
     <g id="line2d_6">
      <g>
       <use style="stroke:#000000;stroke-width:0.8;" x="1110" xlink:href="#me10ae19ece" y="1260"/>
      </g>
     </g>
     <g id="text_6">
      <!-- 4 -->
      <g transform="translate(1106.81875 1274.598438)scale(0.1 -0.1)">
       <use xlink:href="#DejaVuSans-52"/>
      </g>
     </g>
    </g>
    <g id="xtick_7">
     <g id="line2d_7">
      <g>
       <use style="stroke:#000000;stroke-width:0.8;" x="1296" xlink:href="#me10ae19ece" y="1260"/>
      </g>
     </g>
     <g id="text_7">
      <!-- 6 -->
      <g transform="translate(1292.81875 1274.598438)scale(0.1 -0.1)">
       <use xlink:href="#DejaVuSans-54"/>
      </g>
     </g>
    </g>
    <g id="text_8">
     <!-- x -->
     <defs>
      <path d="M 54.890625 54.6875 
L 35.109375 28.078125 
L 55.90625 0 
L 45.3125 0 
L 29.390625 21.484375 
L 13.484375 0 
L 2.875 0 
L 24.125 28.609375 
L 4.6875 54.6875 
L 15.28125 54.6875 
L 29.78125 35.203125 
L 44.28125 54.6875 
z
" id="DejaVuSans-120"/>
     </defs>
     <g transform="translate(735.040625 1288.276562)scale(0.1 -0.1)">
      <use xlink:href="#DejaVuSans-120"/>
     </g>
    </g>
   </g>
   <g id="matplotlib.axis_2">
    <g id="ytick_1">
     <g id="line2d_8">
      <defs>
       <path d="M 0 0 
L -3.5 0 
" id="m1f62c69205" style="stroke:#000000;stroke-width:0.8;"/>
      </defs>
      <g>
       <use style="stroke:#000000;stroke-width:0.8;" x="180" xlink:href="#m1f62c69205" y="1260"/>
      </g>
     </g>
     <g id="text_9">
      <!-- 0 -->
      <g transform="translate(166.6375 1263.799219)scale(0.1 -0.1)">
       <use xlink:href="#DejaVuSans-48"/>
      </g>
     </g>
    </g>
    <g id="ytick_2">
     <g id="line2d_9">
      <g>
       <use style="stroke:#000000;stroke-width:0.8;" x="180" xlink:href="#m1f62c69205" y="1078.8"/>
      </g>
     </g>
     <g id="text_10">
      <!-- 1 -->
      <defs>
       <path d="M 12.40625 8.296875 
L 28.515625 8.296875 
L 28.515625 63.921875 
L 10.984375 60.40625 
L 10.984375 69.390625 
L 28.421875 72.90625 
L 38.28125 72.90625 
L 38.28125 8.296875 
L 54.390625 8.296875 
L 54.390625 0 
L 12.40625 0 
z
" id="DejaVuSans-49"/>
      </defs>
      <g transform="translate(166.6375 1082.599219)scale(0.1 -0.1)">
       <use xlink:href="#DejaVuSans-49"/>
      </g>
     </g>
    </g>
    <g id="ytick_3">
     <g id="line2d_10">
      <g>
       <use style="stroke:#000000;stroke-width:0.8;" x="180" xlink:href="#m1f62c69205" y="897.6"/>
      </g>
     </g>
     <g id="text_11">
      <!-- 2 -->
      <g transform="translate(166.6375 901.399219)scale(0.1 -0.1)">
       <use xlink:href="#DejaVuSans-50"/>
      </g>
     </g>
    </g>
    <g id="ytick_4">
     <g id="line2d_11">
      <g>
       <use style="stroke:#000000;stroke-width:0.8;" x="180" xlink:href="#m1f62c69205" y="716.4"/>
      </g>
     </g>
     <g id="text_12">
      <!-- 3 -->
      <defs>
       <path d="M 40.578125 39.3125 
Q 47.65625 37.796875 51.625 33 
Q 55.609375 28.21875 55.609375 21.1875 
Q 55.609375 10.40625 48.1875 4.484375 
Q 40.765625 -1.421875 27.09375 -1.421875 
Q 22.515625 -1.421875 17.65625 -0.515625 
Q 12.796875 0.390625 7.625 2.203125 
L 7.625 11.71875 
Q 11.71875 9.328125 16.59375 8.109375 
Q 21.484375 6.890625 26.8125 6.890625 
Q 36.078125 6.890625 40.9375 10.546875 
Q 45.796875 14.203125 45.796875 21.1875 
Q 45.796875 27.640625 41.28125 31.265625 
Q 36.765625 34.90625 28.71875 34.90625 
L 20.21875 34.90625 
L 20.21875 43.015625 
L 29.109375 43.015625 
Q 36.375 43.015625 40.234375 45.921875 
Q 44.09375 48.828125 44.09375 54.296875 
Q 44.09375 59.90625 40.109375 62.90625 
Q 36.140625 65.921875 28.71875 65.921875 
Q 24.65625 65.921875 20.015625 65.03125 
Q 15.375 64.15625 9.8125 62.3125 
L 9.8125 71.09375 
Q 15.4375 72.65625 20.34375 73.4375 
Q 25.25 74.21875 29.59375 74.21875 
Q 40.828125 74.21875 47.359375 69.109375 
Q 53.90625 64.015625 53.90625 55.328125 
Q 53.90625 49.265625 50.4375 45.09375 
Q 46.96875 40.921875 40.578125 39.3125 
z
" id="DejaVuSans-51"/>
      </defs>
      <g transform="translate(166.6375 720.199219)scale(0.1 -0.1)">
       <use xlink:href="#DejaVuSans-51"/>
      </g>
     </g>
    </g>
    <g id="ytick_5">
     <g id="line2d_12">
      <g>
       <use style="stroke:#000000;stroke-width:0.8;" x="180" xlink:href="#m1f62c69205" y="535.2"/>
      </g>
     </g>
     <g id="text_13">
      <!-- 4 -->
      <g transform="translate(166.6375 538.999219)scale(0.1 -0.1)">
       <use xlink:href="#DejaVuSans-52"/>
      </g>
     </g>
    </g>
    <g id="ytick_6">
     <g id="line2d_13">
      <g>
       <use style="stroke:#000000;stroke-width:0.8;" x="180" xlink:href="#m1f62c69205" y="354"/>
      </g>
     </g>
     <g id="text_14">
      <!-- 5 -->
      <defs>
       <path d="M 10.796875 72.90625 
L 49.515625 72.90625 
L 49.515625 64.59375 
L 19.828125 64.59375 
L 19.828125 46.734375 
Q 21.96875 47.46875 24.109375 47.828125 
Q 26.265625 48.1875 28.421875 48.1875 
Q 40.625 48.1875 47.75 41.5 
Q 54.890625 34.8125 54.890625 23.390625 
Q 54.890625 11.625 47.5625 5.09375 
Q 40.234375 -1.421875 26.90625 -1.421875 
Q 22.3125 -1.421875 17.546875 -0.640625 
Q 12.796875 0.140625 7.71875 1.703125 
L 7.71875 11.625 
Q 12.109375 9.234375 16.796875 8.0625 
Q 21.484375 6.890625 26.703125 6.890625 
Q 35.15625 6.890625 40.078125 11.328125 
Q 45.015625 15.765625 45.015625 23.390625 
Q 45.015625 31 40.078125 35.4375 
Q 35.15625 39.890625 26.703125 39.890625 
Q 22.75 39.890625 18.8125 39.015625 
Q 14.890625 38.140625 10.796875 36.28125 
z
" id="DejaVuSans-53"/>
      </defs>
      <g transform="translate(166.6375 357.799219)scale(0.1 -0.1)">
       <use xlink:href="#DejaVuSans-53"/>
      </g>
     </g>
    </g>
    <g id="ytick_7">
     <g id="line2d_14">
      <g>
       <use style="stroke:#000000;stroke-width:0.8;" x="180" xlink:href="#m1f62c69205" y="172.8"/>
      </g>
     </g>
     <g id="text_15">
      <!-- 6 -->
      <g transform="translate(166.6375 176.599219)scale(0.1 -0.1)">
       <use xlink:href="#DejaVuSans-54"/>
      </g>
     </g>
    </g>
    <g id="text_16">
     <!-- y -->
     <defs>
      <path d="M 32.171875 -5.078125 
Q 28.375 -14.84375 24.75 -17.8125 
Q 21.140625 -20.796875 15.09375 -20.796875 
L 7.90625 -20.796875 
L 7.90625 -13.28125 
L 13.1875 -13.28125 
Q 16.890625 -13.28125 18.9375 -11.515625 
Q 21 -9.765625 23.484375 -3.21875 
L 25.09375 0.875 
L 2.984375 54.6875 
L 12.5 54.6875 
L 29.59375 11.921875 
L 46.6875 54.6875 
L 56.203125 54.6875 
z
" id="DejaVuSans-121"/>
     </defs>
     <g transform="translate(160.557812 719.359375)rotate(-90)scale(0.1 -0.1)">
      <use xlink:href="#DejaVuSans-121"/>
     </g>
    </g>
   </g>
   <g id="patch_3">
    <path d="M 180 1260 
L 180 172.8 
" style="fill:none;stroke:#000000;stroke-linecap:square;stroke-linejoin:miter;stroke-width:0.8;"/>
   </g>
   <g id="patch_4">
    <path d="M 1296 1260 
L 1296 172.8 
" style="fill:none;stroke:#000000;stroke-linecap:square;stroke-linejoin:miter;stroke-width:0.8;"/>
   </g>
   <g id="patch_5">
    <path d="M 180 1260 
L 1296 1260 
" style="fill:none;stroke:#000000;stroke-linecap:square;stroke-linejoin:miter;stroke-width:0.8;"/>
   </g>
   <g id="patch_6">
    <path d="M 180 172.8 
L 1296 172.8 
" style="fill:none;stroke:#000000;stroke-linecap:square;stroke-linejoin:miter;stroke-width:0.8;"/>
   </g>
   <g id="text_17">
    <!-- One Person Walking Around The Room -->
    <defs>
     <path d="M 39.40625 66.21875 
Q 28.65625 66.21875 22.328125 58.203125 
Q 16.015625 50.203125 16.015625 36.375 
Q 16.015625 22.609375 22.328125 14.59375 
Q 28.65625 6.59375 39.40625 6.59375 
Q 50.140625 6.59375 56.421875 14.59375 
Q 62.703125 22.609375 62.703125 36.375 
Q 62.703125 50.203125 56.421875 58.203125 
Q 50.140625 66.21875 39.40625 66.21875 
z
M 39.40625 74.21875 
Q 54.734375 74.21875 63.90625 63.9375 
Q 73.09375 53.65625 73.09375 36.375 
Q 73.09375 19.140625 63.90625 8.859375 
Q 54.734375 -1.421875 39.40625 -1.421875 
Q 24.03125 -1.421875 14.8125 8.828125 
Q 5.609375 19.09375 5.609375 36.375 
Q 5.609375 53.65625 14.8125 63.9375 
Q 24.03125 74.21875 39.40625 74.21875 
z
" id="DejaVuSans-79"/>
     <path d="M 54.890625 33.015625 
L 54.890625 0 
L 45.90625 0 
L 45.90625 32.71875 
Q 45.90625 40.484375 42.875 44.328125 
Q 39.84375 48.1875 33.796875 48.1875 
Q 26.515625 48.1875 22.3125 43.546875 
Q 18.109375 38.921875 18.109375 30.90625 
L 18.109375 0 
L 9.078125 0 
L 9.078125 54.6875 
L 18.109375 54.6875 
L 18.109375 46.1875 
Q 21.34375 51.125 25.703125 53.5625 
Q 30.078125 56 35.796875 56 
Q 45.21875 56 50.046875 50.171875 
Q 54.890625 44.34375 54.890625 33.015625 
z
" id="DejaVuSans-110"/>
     <path d="M 56.203125 29.59375 
L 56.203125 25.203125 
L 14.890625 25.203125 
Q 15.484375 15.921875 20.484375 11.0625 
Q 25.484375 6.203125 34.421875 6.203125 
Q 39.59375 6.203125 44.453125 7.46875 
Q 49.3125 8.734375 54.109375 11.28125 
L 54.109375 2.78125 
Q 49.265625 0.734375 44.1875 -0.34375 
Q 39.109375 -1.421875 33.890625 -1.421875 
Q 20.796875 -1.421875 13.15625 6.1875 
Q 5.515625 13.8125 5.515625 26.8125 
Q 5.515625 40.234375 12.765625 48.109375 
Q 20.015625 56 32.328125 56 
Q 43.359375 56 49.78125 48.890625 
Q 56.203125 41.796875 56.203125 29.59375 
z
M 47.21875 32.234375 
Q 47.125 39.59375 43.09375 43.984375 
Q 39.0625 48.390625 32.421875 48.390625 
Q 24.90625 48.390625 20.390625 44.140625 
Q 15.875 39.890625 15.1875 32.171875 
z
" id="DejaVuSans-101"/>
     <path id="DejaVuSans-32"/>
     <path d="M 19.671875 64.796875 
L 19.671875 37.40625 
L 32.078125 37.40625 
Q 38.96875 37.40625 42.71875 40.96875 
Q 46.484375 44.53125 46.484375 51.125 
Q 46.484375 57.671875 42.71875 61.234375 
Q 38.96875 64.796875 32.078125 64.796875 
z
M 9.8125 72.90625 
L 32.078125 72.90625 
Q 44.34375 72.90625 50.609375 67.359375 
Q 56.890625 61.8125 56.890625 51.125 
Q 56.890625 40.328125 50.609375 34.8125 
Q 44.34375 29.296875 32.078125 29.296875 
L 19.671875 29.296875 
L 19.671875 0 
L 9.8125 0 
z
" id="DejaVuSans-80"/>
     <path d="M 41.109375 46.296875 
Q 39.59375 47.171875 37.8125 47.578125 
Q 36.03125 48 33.890625 48 
Q 26.265625 48 22.1875 43.046875 
Q 18.109375 38.09375 18.109375 28.8125 
L 18.109375 0 
L 9.078125 0 
L 9.078125 54.6875 
L 18.109375 54.6875 
L 18.109375 46.1875 
Q 20.953125 51.171875 25.484375 53.578125 
Q 30.03125 56 36.53125 56 
Q 37.453125 56 38.578125 55.875 
Q 39.703125 55.765625 41.0625 55.515625 
z
" id="DejaVuSans-114"/>
     <path d="M 44.28125 53.078125 
L 44.28125 44.578125 
Q 40.484375 46.53125 36.375 47.5 
Q 32.28125 48.484375 27.875 48.484375 
Q 21.1875 48.484375 17.84375 46.4375 
Q 14.5 44.390625 14.5 40.28125 
Q 14.5 37.15625 16.890625 35.375 
Q 19.28125 33.59375 26.515625 31.984375 
L 29.59375 31.296875 
Q 39.15625 29.25 43.1875 25.515625 
Q 47.21875 21.78125 47.21875 15.09375 
Q 47.21875 7.46875 41.1875 3.015625 
Q 35.15625 -1.421875 24.609375 -1.421875 
Q 20.21875 -1.421875 15.453125 -0.5625 
Q 10.6875 0.296875 5.421875 2 
L 5.421875 11.28125 
Q 10.40625 8.6875 15.234375 7.390625 
Q 20.0625 6.109375 24.8125 6.109375 
Q 31.15625 6.109375 34.5625 8.28125 
Q 37.984375 10.453125 37.984375 14.40625 
Q 37.984375 18.0625 35.515625 20.015625 
Q 33.0625 21.96875 24.703125 23.78125 
L 21.578125 24.515625 
Q 13.234375 26.265625 9.515625 29.90625 
Q 5.8125 33.546875 5.8125 39.890625 
Q 5.8125 47.609375 11.28125 51.796875 
Q 16.75 56 26.8125 56 
Q 31.78125 56 36.171875 55.265625 
Q 40.578125 54.546875 44.28125 53.078125 
z
" id="DejaVuSans-115"/>
     <path d="M 30.609375 48.390625 
Q 23.390625 48.390625 19.1875 42.75 
Q 14.984375 37.109375 14.984375 27.296875 
Q 14.984375 17.484375 19.15625 11.84375 
Q 23.34375 6.203125 30.609375 6.203125 
Q 37.796875 6.203125 41.984375 11.859375 
Q 46.1875 17.53125 46.1875 27.296875 
Q 46.1875 37.015625 41.984375 42.703125 
Q 37.796875 48.390625 30.609375 48.390625 
z
M 30.609375 56 
Q 42.328125 56 49.015625 48.375 
Q 55.71875 40.765625 55.71875 27.296875 
Q 55.71875 13.875 49.015625 6.21875 
Q 42.328125 -1.421875 30.609375 -1.421875 
Q 18.84375 -1.421875 12.171875 6.21875 
Q 5.515625 13.875 5.515625 27.296875 
Q 5.515625 40.765625 12.171875 48.375 
Q 18.84375 56 30.609375 56 
z
" id="DejaVuSans-111"/>
     <path d="M 3.328125 72.90625 
L 13.28125 72.90625 
L 28.609375 11.28125 
L 43.890625 72.90625 
L 54.984375 72.90625 
L 70.3125 11.28125 
L 85.59375 72.90625 
L 95.609375 72.90625 
L 77.296875 0 
L 64.890625 0 
L 49.515625 63.28125 
L 33.984375 0 
L 21.578125 0 
z
" id="DejaVuSans-87"/>
     <path d="M 34.28125 27.484375 
Q 23.390625 27.484375 19.1875 25 
Q 14.984375 22.515625 14.984375 16.5 
Q 14.984375 11.71875 18.140625 8.90625 
Q 21.296875 6.109375 26.703125 6.109375 
Q 34.1875 6.109375 38.703125 11.40625 
Q 43.21875 16.703125 43.21875 25.484375 
L 43.21875 27.484375 
z
M 52.203125 31.203125 
L 52.203125 0 
L 43.21875 0 
L 43.21875 8.296875 
Q 40.140625 3.328125 35.546875 0.953125 
Q 30.953125 -1.421875 24.3125 -1.421875 
Q 15.921875 -1.421875 10.953125 3.296875 
Q 6 8.015625 6 15.921875 
Q 6 25.140625 12.171875 29.828125 
Q 18.359375 34.515625 30.609375 34.515625 
L 43.21875 34.515625 
L 43.21875 35.40625 
Q 43.21875 41.609375 39.140625 45 
Q 35.0625 48.390625 27.6875 48.390625 
Q 23 48.390625 18.546875 47.265625 
Q 14.109375 46.140625 10.015625 43.890625 
L 10.015625 52.203125 
Q 14.9375 54.109375 19.578125 55.046875 
Q 24.21875 56 28.609375 56 
Q 40.484375 56 46.34375 49.84375 
Q 52.203125 43.703125 52.203125 31.203125 
z
" id="DejaVuSans-97"/>
     <path d="M 9.421875 75.984375 
L 18.40625 75.984375 
L 18.40625 0 
L 9.421875 0 
z
" id="DejaVuSans-108"/>
     <path d="M 9.078125 75.984375 
L 18.109375 75.984375 
L 18.109375 31.109375 
L 44.921875 54.6875 
L 56.390625 54.6875 
L 27.390625 29.109375 
L 57.625 0 
L 45.90625 0 
L 18.109375 26.703125 
L 18.109375 0 
L 9.078125 0 
z
" id="DejaVuSans-107"/>
     <path d="M 9.421875 54.6875 
L 18.40625 54.6875 
L 18.40625 0 
L 9.421875 0 
z
M 9.421875 75.984375 
L 18.40625 75.984375 
L 18.40625 64.59375 
L 9.421875 64.59375 
z
" id="DejaVuSans-105"/>
     <path d="M 45.40625 27.984375 
Q 45.40625 37.75 41.375 43.109375 
Q 37.359375 48.484375 30.078125 48.484375 
Q 22.859375 48.484375 18.828125 43.109375 
Q 14.796875 37.75 14.796875 27.984375 
Q 14.796875 18.265625 18.828125 12.890625 
Q 22.859375 7.515625 30.078125 7.515625 
Q 37.359375 7.515625 41.375 12.890625 
Q 45.40625 18.265625 45.40625 27.984375 
z
M 54.390625 6.78125 
Q 54.390625 -7.171875 48.1875 -13.984375 
Q 42 -20.796875 29.203125 -20.796875 
Q 24.46875 -20.796875 20.265625 -20.09375 
Q 16.0625 -19.390625 12.109375 -17.921875 
L 12.109375 -9.1875 
Q 16.0625 -11.328125 19.921875 -12.34375 
Q 23.78125 -13.375 27.78125 -13.375 
Q 36.625 -13.375 41.015625 -8.765625 
Q 45.40625 -4.15625 45.40625 5.171875 
L 45.40625 9.625 
Q 42.625 4.78125 38.28125 2.390625 
Q 33.9375 0 27.875 0 
Q 17.828125 0 11.671875 7.65625 
Q 5.515625 15.328125 5.515625 27.984375 
Q 5.515625 40.671875 11.671875 48.328125 
Q 17.828125 56 27.875 56 
Q 33.9375 56 38.28125 53.609375 
Q 42.625 51.21875 45.40625 46.390625 
L 45.40625 54.6875 
L 54.390625 54.6875 
z
" id="DejaVuSans-103"/>
     <path d="M 34.1875 63.1875 
L 20.796875 26.90625 
L 47.609375 26.90625 
z
M 28.609375 72.90625 
L 39.796875 72.90625 
L 67.578125 0 
L 57.328125 0 
L 50.6875 18.703125 
L 17.828125 18.703125 
L 11.1875 0 
L 0.78125 0 
z
" id="DejaVuSans-65"/>
     <path d="M 8.5 21.578125 
L 8.5 54.6875 
L 17.484375 54.6875 
L 17.484375 21.921875 
Q 17.484375 14.15625 20.5 10.265625 
Q 23.53125 6.390625 29.59375 6.390625 
Q 36.859375 6.390625 41.078125 11.03125 
Q 45.3125 15.671875 45.3125 23.6875 
L 45.3125 54.6875 
L 54.296875 54.6875 
L 54.296875 0 
L 45.3125 0 
L 45.3125 8.40625 
Q 42.046875 3.421875 37.71875 1 
Q 33.40625 -1.421875 27.6875 -1.421875 
Q 18.265625 -1.421875 13.375 4.4375 
Q 8.5 10.296875 8.5 21.578125 
z
M 31.109375 56 
z
" id="DejaVuSans-117"/>
     <path d="M 45.40625 46.390625 
L 45.40625 75.984375 
L 54.390625 75.984375 
L 54.390625 0 
L 45.40625 0 
L 45.40625 8.203125 
Q 42.578125 3.328125 38.25 0.953125 
Q 33.9375 -1.421875 27.875 -1.421875 
Q 17.96875 -1.421875 11.734375 6.484375 
Q 5.515625 14.40625 5.515625 27.296875 
Q 5.515625 40.1875 11.734375 48.09375 
Q 17.96875 56 27.875 56 
Q 33.9375 56 38.25 53.625 
Q 42.578125 51.265625 45.40625 46.390625 
z
M 14.796875 27.296875 
Q 14.796875 17.390625 18.875 11.75 
Q 22.953125 6.109375 30.078125 6.109375 
Q 37.203125 6.109375 41.296875 11.75 
Q 45.40625 17.390625 45.40625 27.296875 
Q 45.40625 37.203125 41.296875 42.84375 
Q 37.203125 48.484375 30.078125 48.484375 
Q 22.953125 48.484375 18.875 42.84375 
Q 14.796875 37.203125 14.796875 27.296875 
z
" id="DejaVuSans-100"/>
     <path d="M -0.296875 72.90625 
L 61.375 72.90625 
L 61.375 64.59375 
L 35.5 64.59375 
L 35.5 0 
L 25.59375 0 
L 25.59375 64.59375 
L -0.296875 64.59375 
z
" id="DejaVuSans-84"/>
     <path d="M 54.890625 33.015625 
L 54.890625 0 
L 45.90625 0 
L 45.90625 32.71875 
Q 45.90625 40.484375 42.875 44.328125 
Q 39.84375 48.1875 33.796875 48.1875 
Q 26.515625 48.1875 22.3125 43.546875 
Q 18.109375 38.921875 18.109375 30.90625 
L 18.109375 0 
L 9.078125 0 
L 9.078125 75.984375 
L 18.109375 75.984375 
L 18.109375 46.1875 
Q 21.34375 51.125 25.703125 53.5625 
Q 30.078125 56 35.796875 56 
Q 45.21875 56 50.046875 50.171875 
Q 54.890625 44.34375 54.890625 33.015625 
z
" id="DejaVuSans-104"/>
     <path d="M 44.390625 34.1875 
Q 47.5625 33.109375 50.5625 29.59375 
Q 53.5625 26.078125 56.59375 19.921875 
L 66.609375 0 
L 56 0 
L 46.6875 18.703125 
Q 43.0625 26.03125 39.671875 28.421875 
Q 36.28125 30.8125 30.421875 30.8125 
L 19.671875 30.8125 
L 19.671875 0 
L 9.8125 0 
L 9.8125 72.90625 
L 32.078125 72.90625 
Q 44.578125 72.90625 50.734375 67.671875 
Q 56.890625 62.453125 56.890625 51.90625 
Q 56.890625 45.015625 53.6875 40.46875 
Q 50.484375 35.9375 44.390625 34.1875 
z
M 19.671875 64.796875 
L 19.671875 38.921875 
L 32.078125 38.921875 
Q 39.203125 38.921875 42.84375 42.21875 
Q 46.484375 45.515625 46.484375 51.90625 
Q 46.484375 58.296875 42.84375 61.546875 
Q 39.203125 64.796875 32.078125 64.796875 
z
" id="DejaVuSans-82"/>
     <path d="M 52 44.1875 
Q 55.375 50.25 60.0625 53.125 
Q 64.75 56 71.09375 56 
Q 79.640625 56 84.28125 50.015625 
Q 88.921875 44.046875 88.921875 33.015625 
L 88.921875 0 
L 79.890625 0 
L 79.890625 32.71875 
Q 79.890625 40.578125 77.09375 44.375 
Q 74.3125 48.1875 68.609375 48.1875 
Q 61.625 48.1875 57.5625 43.546875 
Q 53.515625 38.921875 53.515625 30.90625 
L 53.515625 0 
L 44.484375 0 
L 44.484375 32.71875 
Q 44.484375 40.625 41.703125 44.40625 
Q 38.921875 48.1875 33.109375 48.1875 
Q 26.21875 48.1875 22.15625 43.53125 
Q 18.109375 38.875 18.109375 30.90625 
L 18.109375 0 
L 9.078125 0 
L 9.078125 54.6875 
L 18.109375 54.6875 
L 18.109375 46.1875 
Q 21.1875 51.21875 25.484375 53.609375 
Q 29.78125 56 35.6875 56 
Q 41.65625 56 45.828125 52.96875 
Q 50 49.953125 52 44.1875 
z
" id="DejaVuSans-109"/>
    </defs>
    <g transform="translate(621.68625 166.8)scale(0.12 -0.12)">
     <use xlink:href="#DejaVuSans-79"/>
     <use x="78.710938" xlink:href="#DejaVuSans-110"/>
     <use x="142.089844" xlink:href="#DejaVuSans-101"/>
     <use x="203.613281" xlink:href="#DejaVuSans-32"/>
     <use x="235.400391" xlink:href="#DejaVuSans-80"/>
     <use x="295.65625" xlink:href="#DejaVuSans-101"/>
     <use x="357.179688" xlink:href="#DejaVuSans-114"/>
     <use x="398.292969" xlink:href="#DejaVuSans-115"/>
     <use x="450.392578" xlink:href="#DejaVuSans-111"/>
     <use x="511.574219" xlink:href="#DejaVuSans-110"/>
     <use x="574.953125" xlink:href="#DejaVuSans-32"/>
     <use x="606.740234" xlink:href="#DejaVuSans-87"/>
     <use x="705.523438" xlink:href="#DejaVuSans-97"/>
     <use x="766.802734" xlink:href="#DejaVuSans-108"/>
     <use x="794.585938" xlink:href="#DejaVuSans-107"/>
     <use x="852.496094" xlink:href="#DejaVuSans-105"/>
     <use x="880.279297" xlink:href="#DejaVuSans-110"/>
     <use x="943.658203" xlink:href="#DejaVuSans-103"/>
     <use x="1007.134766" xlink:href="#DejaVuSans-32"/>
     <use x="1038.921875" xlink:href="#DejaVuSans-65"/>
     <use x="1107.330078" xlink:href="#DejaVuSans-114"/>
     <use x="1148.412109" xlink:href="#DejaVuSans-111"/>
     <use x="1209.59375" xlink:href="#DejaVuSans-117"/>
     <use x="1272.972656" xlink:href="#DejaVuSans-110"/>
     <use x="1336.351562" xlink:href="#DejaVuSans-100"/>
     <use x="1399.828125" xlink:href="#DejaVuSans-32"/>
     <use x="1431.615234" xlink:href="#DejaVuSans-84"/>
     <use x="1492.699219" xlink:href="#DejaVuSans-104"/>
     <use x="1556.078125" xlink:href="#DejaVuSans-101"/>
     <use x="1617.601562" xlink:href="#DejaVuSans-32"/>
     <use x="1649.388672" xlink:href="#DejaVuSans-82"/>
     <use x="1718.808594" xlink:href="#DejaVuSans-111"/>
     <use x="1779.990234" xlink:href="#DejaVuSans-111"/>
     <use x="1841.171875" xlink:href="#DejaVuSans-109"/>
    </g>
   </g>
  </g>
 </g>
 <defs>
  <clipPath id="pf6887c6fd3">
   <rect height="1087.2" width="1116" x="180" y="172.8"/>
  </clipPath>
 </defs>
</svg>
