<?xml version="1.0" encoding="utf-8" standalone="no"?>
<!DOCTYPE svg PUBLIC "-//W3C//DTD SVG 1.1//EN"
  "http://www.w3.org/Graphics/SVG/1.1/DTD/svg11.dtd">
<!-- Created with matplotlib (https://matplotlib.org/) -->
<svg height="683.28pt" version="1.1" viewBox="0 0 1382.4 683.28" width="1382.4pt" xmlns="http://www.w3.org/2000/svg" xmlns:xlink="http://www.w3.org/1999/xlink">
 <defs>
  <style type="text/css">
*{stroke-linecap:butt;stroke-linejoin:round;white-space:pre;}
  </style>
 </defs>
 <g id="figure_1">
  <g id="patch_1">
   <path d="M 0 683.28 
L 1382.4 683.28 
L 1382.4 0 
L 0 0 
z
" style="fill:#ffffff;"/>
  </g>
  <g id="axes_1">
   <g id="patch_2">
    <path d="M 172.8 608.1192 
L 1244.16 608.1192 
L 1244.16 81.9936 
L 172.8 81.9936 
z
" style="fill:#eaeaf2;"/>
   </g>
   <g id="matplotlib.axis_1">
    <g id="xtick_1">
     <g id="line2d_1">
      <path clip-path="url(#p37a9909a91)" d="M 172.8 608.1192 
L 172.8 81.9936 
" style="fill:none;stroke:#ffffff;stroke-linecap:round;"/>
     </g>
     <g id="text_1">
      <!-- −6 -->
      <defs>
       <path d="M 52.828125 31.203125 
L 5.5625 31.203125 
L 5.5625 39.40625 
L 52.828125 39.40625 
z
" id="ArialMT-8722"/>
       <path d="M 49.75 54.046875 
L 41.015625 53.375 
Q 39.84375 58.546875 37.703125 60.890625 
Q 34.125 64.65625 28.90625 64.65625 
Q 24.703125 64.65625 21.53125 62.3125 
Q 17.390625 59.28125 14.984375 53.46875 
Q 12.59375 47.65625 12.5 36.921875 
Q 15.671875 41.75 20.265625 44.09375 
Q 24.859375 46.4375 29.890625 46.4375 
Q 38.671875 46.4375 44.84375 39.96875 
Q 51.03125 33.5 51.03125 23.25 
Q 51.03125 16.5 48.125 10.71875 
Q 45.21875 4.9375 40.140625 1.859375 
Q 35.0625 -1.21875 28.609375 -1.21875 
Q 17.625 -1.21875 10.6875 6.859375 
Q 3.765625 14.9375 3.765625 33.5 
Q 3.765625 54.25 11.421875 63.671875 
Q 18.109375 71.875 29.4375 71.875 
Q 37.890625 71.875 43.28125 67.140625 
Q 48.6875 62.40625 49.75 54.046875 
z
M 13.875 23.1875 
Q 13.875 18.65625 15.796875 14.5 
Q 17.71875 10.359375 21.1875 8.171875 
Q 24.65625 6 28.46875 6 
Q 34.03125 6 38.03125 10.484375 
Q 42.046875 14.984375 42.046875 22.703125 
Q 42.046875 30.125 38.078125 34.390625 
Q 34.125 38.671875 28.125 38.671875 
Q 22.171875 38.671875 18.015625 34.390625 
Q 13.875 30.125 13.875 23.1875 
z
" id="ArialMT-54"/>
      </defs>
      <g style="fill:#262626;" transform="translate(161.825996 631.397989)scale(0.1925 -0.1925)">
       <use xlink:href="#ArialMT-8722"/>
       <use x="58.398438" xlink:href="#ArialMT-54"/>
      </g>
     </g>
    </g>
    <g id="xtick_2">
     <g id="line2d_2">
      <path clip-path="url(#p37a9909a91)" d="M 351.36 608.1192 
L 351.36 81.9936 
" style="fill:none;stroke:#ffffff;stroke-linecap:round;"/>
     </g>
     <g id="text_2">
      <!-- −4 -->
      <defs>
       <path d="M 32.328125 0 
L 32.328125 17.140625 
L 1.265625 17.140625 
L 1.265625 25.203125 
L 33.9375 71.578125 
L 41.109375 71.578125 
L 41.109375 25.203125 
L 50.78125 25.203125 
L 50.78125 17.140625 
L 41.109375 17.140625 
L 41.109375 0 
z
M 32.328125 25.203125 
L 32.328125 57.46875 
L 9.90625 25.203125 
z
" id="ArialMT-52"/>
      </defs>
      <g style="fill:#262626;" transform="translate(340.385996 631.397989)scale(0.1925 -0.1925)">
       <use xlink:href="#ArialMT-8722"/>
       <use x="58.398438" xlink:href="#ArialMT-52"/>
      </g>
     </g>
    </g>
    <g id="xtick_3">
     <g id="line2d_3">
      <path clip-path="url(#p37a9909a91)" d="M 529.92 608.1192 
L 529.92 81.9936 
" style="fill:none;stroke:#ffffff;stroke-linecap:round;"/>
     </g>
     <g id="text_3">
      <!-- −2 -->
      <defs>
       <path d="M 50.34375 8.453125 
L 50.34375 0 
L 3.03125 0 
Q 2.9375 3.171875 4.046875 6.109375 
Q 5.859375 10.9375 9.828125 15.625 
Q 13.8125 20.3125 21.34375 26.46875 
Q 33.015625 36.03125 37.109375 41.625 
Q 41.21875 47.21875 41.21875 52.203125 
Q 41.21875 57.421875 37.46875 61 
Q 33.734375 64.59375 27.734375 64.59375 
Q 21.390625 64.59375 17.578125 60.78125 
Q 13.765625 56.984375 13.71875 50.25 
L 4.6875 51.171875 
Q 5.609375 61.28125 11.65625 66.578125 
Q 17.71875 71.875 27.9375 71.875 
Q 38.234375 71.875 44.234375 66.15625 
Q 50.25 60.453125 50.25 52 
Q 50.25 47.703125 48.484375 43.546875 
Q 46.734375 39.40625 42.65625 34.8125 
Q 38.578125 30.21875 29.109375 22.21875 
Q 21.1875 15.578125 18.9375 13.203125 
Q 16.703125 10.84375 15.234375 8.453125 
z
" id="ArialMT-50"/>
      </defs>
      <g style="fill:#262626;" transform="translate(518.945996 631.397989)scale(0.1925 -0.1925)">
       <use xlink:href="#ArialMT-8722"/>
       <use x="58.398438" xlink:href="#ArialMT-50"/>
      </g>
     </g>
    </g>
    <g id="xtick_4">
     <g id="line2d_4">
      <path clip-path="url(#p37a9909a91)" d="M 708.48 608.1192 
L 708.48 81.9936 
" style="fill:none;stroke:#ffffff;stroke-linecap:round;"/>
     </g>
     <g id="text_4">
      <!-- 0 -->
      <defs>
       <path d="M 4.15625 35.296875 
Q 4.15625 48 6.765625 55.734375 
Q 9.375 63.484375 14.515625 67.671875 
Q 19.671875 71.875 27.484375 71.875 
Q 33.25 71.875 37.59375 69.546875 
Q 41.9375 67.234375 44.765625 62.859375 
Q 47.609375 58.5 49.21875 52.21875 
Q 50.828125 45.953125 50.828125 35.296875 
Q 50.828125 22.703125 48.234375 14.96875 
Q 45.65625 7.234375 40.5 3 
Q 35.359375 -1.21875 27.484375 -1.21875 
Q 17.140625 -1.21875 11.234375 6.203125 
Q 4.15625 15.140625 4.15625 35.296875 
z
M 13.1875 35.296875 
Q 13.1875 17.671875 17.3125 11.828125 
Q 21.4375 6 27.484375 6 
Q 33.546875 6 37.671875 11.859375 
Q 41.796875 17.71875 41.796875 35.296875 
Q 41.796875 52.984375 37.671875 58.78125 
Q 33.546875 64.59375 27.390625 64.59375 
Q 21.34375 64.59375 17.71875 59.46875 
Q 13.1875 52.9375 13.1875 35.296875 
z
" id="ArialMT-48"/>
      </defs>
      <g style="fill:#262626;" transform="translate(703.127598 631.397989)scale(0.1925 -0.1925)">
       <use xlink:href="#ArialMT-48"/>
      </g>
     </g>
    </g>
    <g id="xtick_5">
     <g id="line2d_5">
      <path clip-path="url(#p37a9909a91)" d="M 887.04 608.1192 
L 887.04 81.9936 
" style="fill:none;stroke:#ffffff;stroke-linecap:round;"/>
     </g>
     <g id="text_5">
      <!-- 2 -->
      <g style="fill:#262626;" transform="translate(881.687598 631.397989)scale(0.1925 -0.1925)">
       <use xlink:href="#ArialMT-50"/>
      </g>
     </g>
    </g>
    <g id="xtick_6">
     <g id="line2d_6">
      <path clip-path="url(#p37a9909a91)" d="M 1065.6 608.1192 
L 1065.6 81.9936 
" style="fill:none;stroke:#ffffff;stroke-linecap:round;"/>
     </g>
     <g id="text_6">
      <!-- 4 -->
      <g style="fill:#262626;" transform="translate(1060.247598 631.397989)scale(0.1925 -0.1925)">
       <use xlink:href="#ArialMT-52"/>
      </g>
     </g>
    </g>
    <g id="xtick_7">
     <g id="line2d_7">
      <path clip-path="url(#p37a9909a91)" d="M 1244.16 608.1192 
L 1244.16 81.9936 
" style="fill:none;stroke:#ffffff;stroke-linecap:round;"/>
     </g>
     <g id="text_7">
      <!-- 6 -->
      <g style="fill:#262626;" transform="translate(1238.807598 631.397989)scale(0.1925 -0.1925)">
       <use xlink:href="#ArialMT-54"/>
      </g>
     </g>
    </g>
    <g id="text_8">
     <!-- x -->
     <defs>
      <path d="M 0.734375 0 
L 19.671875 26.953125 
L 2.15625 51.859375 
L 13.140625 51.859375 
L 21.09375 39.703125 
Q 23.34375 36.234375 24.703125 33.890625 
Q 26.859375 37.109375 28.65625 39.59375 
L 37.40625 51.859375 
L 47.90625 51.859375 
L 29.984375 27.4375 
L 49.265625 0 
L 38.484375 0 
L 27.828125 16.109375 
L 25 20.453125 
L 11.375 0 
z
" id="ArialMT-120"/>
     </defs>
     <g style="fill:#262626;" transform="translate(703.23 665.255333)scale(0.21 -0.21)">
      <use xlink:href="#ArialMT-120"/>
     </g>
    </g>
   </g>
   <g id="matplotlib.axis_2">
    <g id="ytick_1">
     <g id="line2d_8">
      <path clip-path="url(#p37a9909a91)" d="M 172.8 608.1192 
L 1244.16 608.1192 
" style="fill:none;stroke:#ffffff;stroke-linecap:round;"/>
     </g>
     <g id="text_9">
      <!-- 0 -->
      <g style="fill:#262626;" transform="translate(152.595195 615.008595)scale(0.1925 -0.1925)">
       <use xlink:href="#ArialMT-48"/>
      </g>
     </g>
    </g>
    <g id="ytick_2">
     <g id="line2d_9">
      <path clip-path="url(#p37a9909a91)" d="M 172.8 520.4316 
L 1244.16 520.4316 
" style="fill:none;stroke:#ffffff;stroke-linecap:round;"/>
     </g>
     <g id="text_10">
      <!-- 1 -->
      <defs>
       <path d="M 37.25 0 
L 28.46875 0 
L 28.46875 56 
Q 25.296875 52.984375 20.140625 49.953125 
Q 14.984375 46.921875 10.890625 45.40625 
L 10.890625 53.90625 
Q 18.265625 57.375 23.78125 62.296875 
Q 29.296875 67.234375 31.59375 71.875 
L 37.25 71.875 
z
" id="ArialMT-49"/>
      </defs>
      <g style="fill:#262626;" transform="translate(152.595195 527.320995)scale(0.1925 -0.1925)">
       <use xlink:href="#ArialMT-49"/>
      </g>
     </g>
    </g>
    <g id="ytick_3">
     <g id="line2d_10">
      <path clip-path="url(#p37a9909a91)" d="M 172.8 432.744 
L 1244.16 432.744 
" style="fill:none;stroke:#ffffff;stroke-linecap:round;"/>
     </g>
     <g id="text_11">
      <!-- 2 -->
      <g style="fill:#262626;" transform="translate(152.595195 439.633395)scale(0.1925 -0.1925)">
       <use xlink:href="#ArialMT-50"/>
      </g>
     </g>
    </g>
    <g id="ytick_4">
     <g id="line2d_11">
      <path clip-path="url(#p37a9909a91)" d="M 172.8 345.0564 
L 1244.16 345.0564 
" style="fill:none;stroke:#ffffff;stroke-linecap:round;"/>
     </g>
     <g id="text_12">
      <!-- 3 -->
      <defs>
       <path d="M 4.203125 18.890625 
L 12.984375 20.0625 
Q 14.5 12.59375 18.140625 9.296875 
Q 21.78125 6 27 6 
Q 33.203125 6 37.46875 10.296875 
Q 41.75 14.59375 41.75 20.953125 
Q 41.75 27 37.796875 30.921875 
Q 33.84375 34.859375 27.734375 34.859375 
Q 25.25 34.859375 21.53125 33.890625 
L 22.515625 41.609375 
Q 23.390625 41.5 23.921875 41.5 
Q 29.546875 41.5 34.03125 44.421875 
Q 38.53125 47.359375 38.53125 53.46875 
Q 38.53125 58.296875 35.25 61.46875 
Q 31.984375 64.65625 26.8125 64.65625 
Q 21.6875 64.65625 18.265625 61.421875 
Q 14.84375 58.203125 13.875 51.765625 
L 5.078125 53.328125 
Q 6.6875 62.15625 12.390625 67.015625 
Q 18.109375 71.875 26.609375 71.875 
Q 32.46875 71.875 37.390625 69.359375 
Q 42.328125 66.84375 44.9375 62.5 
Q 47.5625 58.15625 47.5625 53.265625 
Q 47.5625 48.640625 45.0625 44.828125 
Q 42.578125 41.015625 37.703125 38.765625 
Q 44.046875 37.3125 47.5625 32.6875 
Q 51.078125 28.078125 51.078125 21.140625 
Q 51.078125 11.765625 44.234375 5.25 
Q 37.40625 -1.265625 26.953125 -1.265625 
Q 17.53125 -1.265625 11.296875 4.34375 
Q 5.078125 9.96875 4.203125 18.890625 
z
" id="ArialMT-51"/>
      </defs>
      <g style="fill:#262626;" transform="translate(152.595195 351.945795)scale(0.1925 -0.1925)">
       <use xlink:href="#ArialMT-51"/>
      </g>
     </g>
    </g>
    <g id="ytick_5">
     <g id="line2d_12">
      <path clip-path="url(#p37a9909a91)" d="M 172.8 257.3688 
L 1244.16 257.3688 
" style="fill:none;stroke:#ffffff;stroke-linecap:round;"/>
     </g>
     <g id="text_13">
      <!-- 4 -->
      <g style="fill:#262626;" transform="translate(152.595195 264.258195)scale(0.1925 -0.1925)">
       <use xlink:href="#ArialMT-52"/>
      </g>
     </g>
    </g>
    <g id="ytick_6">
     <g id="line2d_13">
      <path clip-path="url(#p37a9909a91)" d="M 172.8 169.6812 
L 1244.16 169.6812 
" style="fill:none;stroke:#ffffff;stroke-linecap:round;"/>
     </g>
     <g id="text_14">
      <!-- 5 -->
      <defs>
       <path d="M 4.15625 18.75 
L 13.375 19.53125 
Q 14.40625 12.796875 18.140625 9.390625 
Q 21.875 6 27.15625 6 
Q 33.5 6 37.890625 10.78125 
Q 42.28125 15.578125 42.28125 23.484375 
Q 42.28125 31 38.0625 35.34375 
Q 33.84375 39.703125 27 39.703125 
Q 22.75 39.703125 19.328125 37.765625 
Q 15.921875 35.84375 13.96875 32.765625 
L 5.71875 33.84375 
L 12.640625 70.609375 
L 48.25 70.609375 
L 48.25 62.203125 
L 19.671875 62.203125 
L 15.828125 42.96875 
Q 22.265625 47.46875 29.34375 47.46875 
Q 38.71875 47.46875 45.15625 40.96875 
Q 51.609375 34.46875 51.609375 24.265625 
Q 51.609375 14.546875 45.953125 7.46875 
Q 39.0625 -1.21875 27.15625 -1.21875 
Q 17.390625 -1.21875 11.203125 4.25 
Q 5.03125 9.71875 4.15625 18.75 
z
" id="ArialMT-53"/>
      </defs>
      <g style="fill:#262626;" transform="translate(152.595195 176.570595)scale(0.1925 -0.1925)">
       <use xlink:href="#ArialMT-53"/>
      </g>
     </g>
    </g>
    <g id="ytick_7">
     <g id="line2d_14">
      <path clip-path="url(#p37a9909a91)" d="M 172.8 81.9936 
L 1244.16 81.9936 
" style="fill:none;stroke:#ffffff;stroke-linecap:round;"/>
     </g>
     <g id="text_15">
      <!-- 6 -->
      <g style="fill:#262626;" transform="translate(152.595195 88.882995)scale(0.1925 -0.1925)">
       <use xlink:href="#ArialMT-54"/>
      </g>
     </g>
    </g>
    <g id="text_16">
     <!-- y -->
     <defs>
      <path d="M 6.203125 -19.96875 
L 5.21875 -11.71875 
Q 8.109375 -12.5 10.25 -12.5 
Q 13.1875 -12.5 14.9375 -11.515625 
Q 16.703125 -10.546875 17.828125 -8.796875 
Q 18.65625 -7.46875 20.515625 -2.25 
Q 20.75 -1.515625 21.296875 -0.09375 
L 1.609375 51.859375 
L 11.078125 51.859375 
L 21.875 21.828125 
Q 23.96875 16.109375 25.640625 9.8125 
Q 27.15625 15.875 29.25 21.625 
L 40.328125 51.859375 
L 49.125 51.859375 
L 29.390625 -0.875 
Q 26.21875 -9.421875 24.46875 -12.640625 
Q 22.125 -17 19.09375 -19.015625 
Q 16.0625 -21.046875 11.859375 -21.046875 
Q 9.328125 -21.046875 6.203125 -19.96875 
z
" id="ArialMT-121"/>
     </defs>
     <g style="fill:#262626;" transform="translate(133.175352 350.3064)rotate(-90)scale(0.21 -0.21)">
      <use xlink:href="#ArialMT-121"/>
     </g>
    </g>
   </g>
   <g id="PathCollection_1">
    <defs>
     <path d="M 0 3 
C 0.795609 3 1.55874 2.683901 2.12132 2.12132 
C 2.683901 1.55874 3 0.795609 3 0 
C 3 -0.795609 2.683901 -1.55874 2.12132 -2.12132 
C 1.55874 -2.683901 0.795609 -3 0 -3 
C -0.795609 -3 -1.55874 -2.683901 -2.12132 -2.12132 
C -2.683901 -1.55874 -3 -0.795609 -3 0 
C -3 0.795609 -2.683901 1.55874 -2.12132 2.12132 
C -1.55874 2.683901 -0.795609 3 0 3 
z
" id="m693e2366d2" style="stroke:#ffffff;stroke-width:0.75;"/>
    </defs>
    <g clip-path="url(#p37a9909a91)">
     <use style="fill:#0000ff;stroke:#ffffff;stroke-width:0.75;" x="887.092662" xlink:href="#m693e2366d2" y="184.601186"/>
     <use style="fill:#0000ff;stroke:#ffffff;stroke-width:0.75;" x="872.888241" xlink:href="#m693e2366d2" y="179.088139"/>
     <use style="fill:#0000ff;stroke:#ffffff;stroke-width:0.75;" x="841.434222" xlink:href="#m693e2366d2" y="177.645182"/>
     <use style="fill:#0000ff;stroke:#ffffff;stroke-width:0.75;" x="838.901761" xlink:href="#m693e2366d2" y="185.844696"/>
     <use style="fill:#0000ff;stroke:#ffffff;stroke-width:0.75;" x="823.635626" xlink:href="#m693e2366d2" y="186.017884"/>
     <use style="fill:#0000ff;stroke:#ffffff;stroke-width:0.75;" x="837.635531" xlink:href="#m693e2366d2" y="189.944432"/>
     <use style="fill:#0000ff;stroke:#ffffff;stroke-width:0.75;" x="852.899272" xlink:href="#m693e2366d2" y="190.261999"/>
     <use style="fill:#0000ff;stroke:#ffffff;stroke-width:0.75;" x="857.105653" xlink:href="#m693e2366d2" y="178.091408"/>
     <use style="fill:#0000ff;stroke:#ffffff;stroke-width:0.75;" x="855.703533" xlink:href="#m693e2366d2" y="182.148244"/>
     <use style="fill:#0000ff;stroke:#ffffff;stroke-width:0.75;" x="854.301402" xlink:href="#m693e2366d2" y="186.20508"/>
     <use style="fill:#0000ff;stroke:#ffffff;stroke-width:0.75;" x="851.497141" xlink:href="#m693e2366d2" y="194.318835"/>
     <use style="fill:#0000ff;stroke:#ffffff;stroke-width:0.75;" x="850.09501" xlink:href="#m693e2366d2" y="198.375713"/>
     <use style="fill:#0000ff;stroke:#ffffff;stroke-width:0.75;" x="866.742139" xlink:href="#m693e2366d2" y="195.126699"/>
     <use style="fill:#0000ff;stroke:#ffffff;stroke-width:0.75;" x="871.35171" xlink:href="#m693e2366d2" y="183.097768"/>
     <use style="fill:#0000ff;stroke:#ffffff;stroke-width:0.75;" x="869.81519" xlink:href="#m693e2366d2" y="187.107398"/>
     <use style="fill:#0000ff;stroke:#ffffff;stroke-width:0.75;" x="868.27867" xlink:href="#m693e2366d2" y="191.117027"/>
     <use style="fill:#0000ff;stroke:#ffffff;stroke-width:0.75;" x="865.205619" xlink:href="#m693e2366d2" y="199.136328"/>
     <use style="fill:#0000ff;stroke:#ffffff;stroke-width:0.75;" x="880.415538" xlink:href="#m693e2366d2" y="200.433651"/>
     <use style="fill:#0000ff;stroke:#ffffff;stroke-width:0.75;" x="885.42337" xlink:href="#m693e2366d2" y="188.559344"/>
     <use style="fill:#0000ff;stroke:#ffffff;stroke-width:0.75;" x="883.7541" xlink:href="#m693e2366d2" y="192.517418"/>
     <use style="fill:#0000ff;stroke:#ffffff;stroke-width:0.75;" x="882.08483" xlink:href="#m693e2366d2" y="196.475535"/>
     <use style="fill:#0000ff;stroke:#ffffff;stroke-width:0.75;" x="878.746268" xlink:href="#m693e2366d2" y="204.391767"/>
     <use style="fill:#0000ff;stroke:#ffffff;stroke-width:0.75;" x="901.105775" xlink:href="#m693e2366d2" y="190.567734"/>
    </g>
   </g>
   <g id="PathCollection_2">
    <g clip-path="url(#p37a9909a91)">
     <use style="fill:#0000ff;stroke:#ffffff;stroke-width:0.75;" x="824.803909" xlink:href="#m693e2366d2" y="437.133268"/>
     <use style="fill:#0000ff;stroke:#ffffff;stroke-width:0.75;" x="817.530777" xlink:href="#m693e2366d2" y="422.606614"/>
     <use style="fill:#0000ff;stroke:#ffffff;stroke-width:0.75;" x="786.84281" xlink:href="#m693e2366d2" y="403.627764"/>
     <use style="fill:#0000ff;stroke:#ffffff;stroke-width:0.75;" x="785.306279" xlink:href="#m693e2366d2" y="407.637393"/>
     <use style="fill:#0000ff;stroke:#ffffff;stroke-width:0.75;" x="793.613134" xlink:href="#m693e2366d2" y="406.255484"/>
     <use style="fill:#0000ff;stroke:#ffffff;stroke-width:0.75;" x="791.943858" xlink:href="#m693e2366d2" y="410.2136"/>
     <use style="fill:#0000ff;stroke:#ffffff;stroke-width:0.75;" x="790.274577" xlink:href="#m693e2366d2" y="414.171716"/>
     <use style="fill:#0000ff;stroke:#ffffff;stroke-width:0.75;" x="798.492047" xlink:href="#m693e2366d2" y="413.001713"/>
     <use style="fill:#0000ff;stroke:#ffffff;stroke-width:0.75;" x="796.691804" xlink:href="#m693e2366d2" y="416.904051"/>
     <use style="fill:#0000ff;stroke:#ffffff;stroke-width:0.75;" x="794.891566" xlink:href="#m693e2366d2" y="420.806389"/>
     <use style="fill:#0000ff;stroke:#ffffff;stroke-width:0.75;" x="793.091323" xlink:href="#m693e2366d2" y="424.708748"/>
     <use style="fill:#0000ff;stroke:#ffffff;stroke-width:0.75;" x="791.29108" xlink:href="#m693e2366d2" y="428.611107"/>
     <use style="fill:#0000ff;stroke:#ffffff;stroke-width:0.75;" x="803.014569" xlink:href="#m693e2366d2" y="419.841163"/>
     <use style="fill:#0000ff;stroke:#ffffff;stroke-width:0.75;" x="804.943848" xlink:href="#m693e2366d2" y="415.998743"/>
     <use style="fill:#0000ff;stroke:#ffffff;stroke-width:0.75;" x="801.085301" xlink:href="#m693e2366d2" y="423.683563"/>
     <use style="fill:#0000ff;stroke:#ffffff;stroke-width:0.75;" x="799.156022" xlink:href="#m693e2366d2" y="427.525962"/>
     <use style="fill:#0000ff;stroke:#ffffff;stroke-width:0.75;" x="797.226743" xlink:href="#m693e2366d2" y="431.368383"/>
     <use style="fill:#0000ff;stroke:#ffffff;stroke-width:0.75;" x="807.179869" xlink:href="#m693e2366d2" y="426.758218"/>
     <use style="fill:#0000ff;stroke:#ffffff;stroke-width:0.75;" x="811.292358" xlink:href="#m693e2366d2" y="419.201534"/>
     <use style="fill:#0000ff;stroke:#ffffff;stroke-width:0.75;" x="809.236108" xlink:href="#m693e2366d2" y="422.979876"/>
     <use style="fill:#0000ff;stroke:#ffffff;stroke-width:0.75;" x="805.123619" xlink:href="#m693e2366d2" y="430.536582"/>
     <use style="fill:#0000ff;stroke:#ffffff;stroke-width:0.75;" x="803.067369" xlink:href="#m693e2366d2" y="434.314935"/>
     <use style="fill:#0000ff;stroke:#ffffff;stroke-width:0.75;" x="813.168752" xlink:href="#m693e2366d2" y="430.027115"/>
     <use style="fill:#0000ff;stroke:#ffffff;stroke-width:0.75;" x="815.349759" xlink:href="#m693e2366d2" y="426.316864"/>
     <use style="fill:#0000ff;stroke:#ffffff;stroke-width:0.75;" x="810.987734" xlink:href="#m693e2366d2" y="433.737365"/>
     <use style="fill:#0000ff;stroke:#ffffff;stroke-width:0.75;" x="808.806716" xlink:href="#m693e2366d2" y="437.447616"/>
     <use style="fill:#0000ff;stroke:#ffffff;stroke-width:0.75;" x="821.348976" xlink:href="#m693e2366d2" y="429.848533"/>
     <use style="fill:#0000ff;stroke:#ffffff;stroke-width:0.75;" x="819.045532" xlink:href="#m693e2366d2" y="433.486688"/>
    </g>
   </g>
   <g id="PathCollection_3">
    <g clip-path="url(#p37a9909a91)">
     <use style="fill:#0000ff;stroke:#ffffff;stroke-width:0.75;" x="693.107298" xlink:href="#m693e2366d2" y="493.434599"/>
     <use style="fill:#0000ff;stroke:#ffffff;stroke-width:0.75;" x="693.676657" xlink:href="#m693e2366d2" y="497.682174"/>
     <use style="fill:#0000ff;stroke:#ffffff;stroke-width:0.75;" x="689.295013" xlink:href="#m693e2366d2" y="493.990018"/>
     <use style="fill:#0000ff;stroke:#ffffff;stroke-width:0.75;" x="690.005567" xlink:href="#m693e2366d2" y="498.217022"/>
     <use style="fill:#0000ff;stroke:#ffffff;stroke-width:0.75;" x="690.716123" xlink:href="#m693e2366d2" y="502.444035"/>
     <use style="fill:#0000ff;stroke:#ffffff;stroke-width:0.75;" x="691.426677" xlink:href="#m693e2366d2" y="506.671038"/>
     <use style="fill:#0000ff;stroke:#ffffff;stroke-width:0.75;" x="685.503268" xlink:href="#m693e2366d2" y="494.667645"/>
     <use style="fill:#0000ff;stroke:#ffffff;stroke-width:0.75;" x="686.354257" xlink:href="#m693e2366d2" y="498.869551"/>
     <use style="fill:#0000ff;stroke:#ffffff;stroke-width:0.75;" x="687.205248" xlink:href="#m693e2366d2" y="503.071466"/>
     <use style="fill:#0000ff;stroke:#ffffff;stroke-width:0.75;" x="688.056238" xlink:href="#m693e2366d2" y="507.273371"/>
     <use style="fill:#0000ff;stroke:#ffffff;stroke-width:0.75;" x="681.736131" xlink:href="#m693e2366d2" y="495.466759"/>
     <use style="fill:#0000ff;stroke:#ffffff;stroke-width:0.75;" x="682.726644" xlink:href="#m693e2366d2" y="499.639072"/>
     <use style="fill:#0000ff;stroke:#ffffff;stroke-width:0.75;" x="683.717156" xlink:href="#m693e2366d2" y="503.811384"/>
     <use style="fill:#0000ff;stroke:#ffffff;stroke-width:0.75;" x="684.707669" xlink:href="#m693e2366d2" y="507.983686"/>
     <use style="fill:#0000ff;stroke:#ffffff;stroke-width:0.75;" x="677.997629" xlink:href="#m693e2366d2" y="496.386503"/>
     <use style="fill:#0000ff;stroke:#ffffff;stroke-width:0.75;" x="679.126604" xlink:href="#m693e2366d2" y="500.524748"/>
     <use style="fill:#0000ff;stroke:#ffffff;stroke-width:0.75;" x="681.384558" xlink:href="#m693e2366d2" y="508.801239"/>
     <use style="fill:#0000ff;stroke:#ffffff;stroke-width:0.75;" x="674.291772" xlink:href="#m693e2366d2" y="497.425883"/>
    </g>
   </g>
   <g id="PathCollection_4">
    <g clip-path="url(#p37a9909a91)">
     <use style="fill:#0000ff;stroke:#ffffff;stroke-width:0.75;" x="605.667642" xlink:href="#m693e2366d2" y="419.201534"/>
     <use style="fill:#0000ff;stroke:#ffffff;stroke-width:0.75;" x="607.723892" xlink:href="#m693e2366d2" y="422.979876"/>
     <use style="fill:#0000ff;stroke:#ffffff;stroke-width:0.75;" x="609.780131" xlink:href="#m693e2366d2" y="426.758218"/>
     <use style="fill:#0000ff;stroke:#ffffff;stroke-width:0.75;" x="611.836381" xlink:href="#m693e2366d2" y="430.536582"/>
     <use style="fill:#0000ff;stroke:#ffffff;stroke-width:0.75;" x="601.610241" xlink:href="#m693e2366d2" y="426.316864"/>
     <use style="fill:#0000ff;stroke:#ffffff;stroke-width:0.75;" x="599.429223" xlink:href="#m693e2366d2" y="422.606614"/>
     <use style="fill:#0000ff;stroke:#ffffff;stroke-width:0.75;" x="603.791248" xlink:href="#m693e2366d2" y="430.027115"/>
     <use style="fill:#0000ff;stroke:#ffffff;stroke-width:0.75;" x="605.972266" xlink:href="#m693e2366d2" y="433.737365"/>
     <use style="fill:#0000ff;stroke:#ffffff;stroke-width:0.75;" x="608.153284" xlink:href="#m693e2366d2" y="437.447616"/>
     <use style="fill:#0000ff;stroke:#ffffff;stroke-width:0.75;" x="597.914468" xlink:href="#m693e2366d2" y="433.486688"/>
     <use style="fill:#0000ff;stroke:#ffffff;stroke-width:0.75;" x="593.307569" xlink:href="#m693e2366d2" y="426.210347"/>
     <use style="fill:#0000ff;stroke:#ffffff;stroke-width:0.75;" x="595.611024" xlink:href="#m693e2366d2" y="429.848533"/>
     <use style="fill:#0000ff;stroke:#ffffff;stroke-width:0.75;" x="600.217913" xlink:href="#m693e2366d2" y="437.124864"/>
     <use style="fill:#0000ff;stroke:#ffffff;stroke-width:0.75;" x="592.156091" xlink:href="#m693e2366d2" y="437.133268"/>
     <use style="fill:#0000ff;stroke:#ffffff;stroke-width:0.75;" x="587.309267" xlink:href="#m693e2366d2" y="430.008864"/>
     <use style="fill:#0000ff;stroke:#ffffff;stroke-width:0.75;" x="589.732679" xlink:href="#m693e2366d2" y="433.571066"/>
     <use style="fill:#0000ff;stroke:#ffffff;stroke-width:0.75;" x="583.981497" xlink:href="#m693e2366d2" y="437.480533"/>
    </g>
   </g>
   <g id="PathCollection_5">
    <g clip-path="url(#p37a9909a91)">
     <use style="fill:#0000ff;stroke:#ffffff;stroke-width:0.75;" x="593.324374" xlink:href="#m693e2366d2" y="186.017884"/>
     <use style="fill:#0000ff;stroke:#ffffff;stroke-width:0.75;" x="607.4476" xlink:href="#m693e2366d2" y="182.54329"/>
     <use style="fill:#0000ff;stroke:#ffffff;stroke-width:0.75;" x="651.544067" xlink:href="#m693e2366d2" y="183.361439"/>
     <use style="fill:#0000ff;stroke:#ffffff;stroke-width:0.75;" x="666.152172" xlink:href="#m693e2366d2" y="186.022776"/>
     <use style="fill:#0000ff;stroke:#ffffff;stroke-width:0.75;" x="652.113425" xlink:href="#m693e2366d2" y="187.608983"/>
     <use style="fill:#0000ff;stroke:#ffffff;stroke-width:0.75;" x="653.252141" xlink:href="#m693e2366d2" y="196.104154"/>
     <use style="fill:#0000ff;stroke:#ffffff;stroke-width:0.75;" x="653.8215" xlink:href="#m693e2366d2" y="200.351698"/>
     <use style="fill:#0000ff;stroke:#ffffff;stroke-width:0.75;" x="639.556153" xlink:href="#m693e2366d2" y="198.09954"/>
     <use style="fill:#0000ff;stroke:#ffffff;stroke-width:0.75;" x="637.424492" xlink:href="#m693e2366d2" y="185.418541"/>
     <use style="fill:#0000ff;stroke:#ffffff;stroke-width:0.75;" x="638.13504" xlink:href="#m693e2366d2" y="189.645513"/>
     <use style="fill:#0000ff;stroke:#ffffff;stroke-width:0.75;" x="638.845599" xlink:href="#m693e2366d2" y="193.872568"/>
     <use style="fill:#0000ff;stroke:#ffffff;stroke-width:0.75;" x="640.266706" xlink:href="#m693e2366d2" y="202.326554"/>
     <use style="fill:#0000ff;stroke:#ffffff;stroke-width:0.75;" x="640.977265" xlink:href="#m693e2366d2" y="206.553568"/>
     <use style="fill:#0000ff;stroke:#ffffff;stroke-width:0.75;" x="626.784951" xlink:href="#m693e2366d2" y="204.735886"/>
     <use style="fill:#0000ff;stroke:#ffffff;stroke-width:0.75;" x="623.380993" xlink:href="#m693e2366d2" y="187.928265"/>
     <use style="fill:#0000ff;stroke:#ffffff;stroke-width:0.75;" x="624.231981" xlink:href="#m693e2366d2" y="192.130149"/>
     <use style="fill:#0000ff;stroke:#ffffff;stroke-width:0.75;" x="625.082974" xlink:href="#m693e2366d2" y="196.332075"/>
     <use style="fill:#0000ff;stroke:#ffffff;stroke-width:0.75;" x="625.933963" xlink:href="#m693e2366d2" y="200.534001"/>
     <use style="fill:#0000ff;stroke:#ffffff;stroke-width:0.75;" x="610.419137" xlink:href="#m693e2366d2" y="195.060216"/>
     <use style="fill:#0000ff;stroke:#ffffff;stroke-width:0.75;" x="611.409661" xlink:href="#m693e2366d2" y="199.232581"/>
    </g>
   </g>
   <g id="patch_3">
    <path d="M 172.8 608.1192 
L 172.8 81.9936 
" style="fill:none;stroke:#ffffff;stroke-linecap:square;stroke-linejoin:miter;stroke-width:1.25;"/>
   </g>
   <g id="patch_4">
    <path d="M 1244.16 608.1192 
L 1244.16 81.9936 
" style="fill:none;stroke:#ffffff;stroke-linecap:square;stroke-linejoin:miter;stroke-width:1.25;"/>
   </g>
   <g id="patch_5">
    <path d="M 172.8 608.1192 
L 1244.16 608.1192 
" style="fill:none;stroke:#ffffff;stroke-linecap:square;stroke-linejoin:miter;stroke-width:1.25;"/>
   </g>
   <g id="patch_6">
    <path d="M 172.8 81.9936 
L 1244.16 81.9936 
" style="fill:none;stroke:#ffffff;stroke-linecap:square;stroke-linejoin:miter;stroke-width:1.25;"/>
   </g>
   <g id="text_17">
    <!-- One Person Walking Around The Room -->
    <defs>
     <path d="M 4.828125 34.859375 
Q 4.828125 52.6875 14.390625 62.765625 
Q 23.96875 72.859375 39.109375 72.859375 
Q 49.03125 72.859375 56.984375 68.109375 
Q 64.9375 63.375 69.109375 54.90625 
Q 73.296875 46.4375 73.296875 35.6875 
Q 73.296875 24.8125 68.890625 16.21875 
Q 64.5 7.625 56.4375 3.203125 
Q 48.390625 -1.21875 39.0625 -1.21875 
Q 28.953125 -1.21875 20.984375 3.65625 
Q 13.03125 8.546875 8.921875 16.984375 
Q 4.828125 25.4375 4.828125 34.859375 
z
M 14.59375 34.71875 
Q 14.59375 21.78125 21.546875 14.328125 
Q 28.515625 6.890625 39.015625 6.890625 
Q 49.703125 6.890625 56.609375 14.40625 
Q 63.53125 21.921875 63.53125 35.75 
Q 63.53125 44.484375 60.578125 51 
Q 57.625 57.515625 51.921875 61.109375 
Q 46.234375 64.703125 39.15625 64.703125 
Q 29.109375 64.703125 21.84375 57.78125 
Q 14.59375 50.875 14.59375 34.71875 
z
" id="ArialMT-79"/>
     <path d="M 6.59375 0 
L 6.59375 51.859375 
L 14.5 51.859375 
L 14.5 44.484375 
Q 20.21875 53.03125 31 53.03125 
Q 35.6875 53.03125 39.625 51.34375 
Q 43.5625 49.65625 45.515625 46.921875 
Q 47.46875 44.1875 48.25 40.4375 
Q 48.734375 37.984375 48.734375 31.890625 
L 48.734375 0 
L 39.9375 0 
L 39.9375 31.546875 
Q 39.9375 36.921875 38.90625 39.578125 
Q 37.890625 42.234375 35.28125 43.8125 
Q 32.671875 45.40625 29.15625 45.40625 
Q 23.53125 45.40625 19.453125 41.84375 
Q 15.375 38.28125 15.375 28.328125 
L 15.375 0 
z
" id="ArialMT-110"/>
     <path d="M 42.09375 16.703125 
L 51.171875 15.578125 
Q 49.03125 7.625 43.21875 3.21875 
Q 37.40625 -1.171875 28.375 -1.171875 
Q 17 -1.171875 10.328125 5.828125 
Q 3.65625 12.84375 3.65625 25.484375 
Q 3.65625 38.578125 10.390625 45.796875 
Q 17.140625 53.03125 27.875 53.03125 
Q 38.28125 53.03125 44.875 45.953125 
Q 51.46875 38.875 51.46875 26.03125 
Q 51.46875 25.25 51.421875 23.6875 
L 12.75 23.6875 
Q 13.234375 15.140625 17.578125 10.59375 
Q 21.921875 6.0625 28.421875 6.0625 
Q 33.25 6.0625 36.671875 8.59375 
Q 40.09375 11.140625 42.09375 16.703125 
z
M 13.234375 30.90625 
L 42.1875 30.90625 
Q 41.609375 37.453125 38.875 40.71875 
Q 34.671875 45.796875 27.984375 45.796875 
Q 21.921875 45.796875 17.796875 41.75 
Q 13.671875 37.703125 13.234375 30.90625 
z
" id="ArialMT-101"/>
     <path id="ArialMT-32"/>
     <path d="M 7.71875 0 
L 7.71875 71.578125 
L 34.71875 71.578125 
Q 41.84375 71.578125 45.609375 70.90625 
Q 50.875 70.015625 54.4375 67.546875 
Q 58.015625 65.09375 60.1875 60.640625 
Q 62.359375 56.203125 62.359375 50.875 
Q 62.359375 41.75 56.546875 35.421875 
Q 50.734375 29.109375 35.546875 29.109375 
L 17.1875 29.109375 
L 17.1875 0 
z
M 17.1875 37.546875 
L 35.6875 37.546875 
Q 44.875 37.546875 48.734375 40.96875 
Q 52.59375 44.390625 52.59375 50.59375 
Q 52.59375 55.078125 50.3125 58.265625 
Q 48.046875 61.46875 44.34375 62.5 
Q 41.9375 63.140625 35.5 63.140625 
L 17.1875 63.140625 
z
" id="ArialMT-80"/>
     <path d="M 6.5 0 
L 6.5 51.859375 
L 14.40625 51.859375 
L 14.40625 44 
Q 17.4375 49.515625 20 51.265625 
Q 22.5625 53.03125 25.640625 53.03125 
Q 30.078125 53.03125 34.671875 50.203125 
L 31.640625 42.046875 
Q 28.421875 43.953125 25.203125 43.953125 
Q 22.3125 43.953125 20.015625 42.21875 
Q 17.71875 40.484375 16.75 37.40625 
Q 15.28125 32.71875 15.28125 27.15625 
L 15.28125 0 
z
" id="ArialMT-114"/>
     <path d="M 3.078125 15.484375 
L 11.765625 16.84375 
Q 12.5 11.625 15.84375 8.84375 
Q 19.1875 6.0625 25.203125 6.0625 
Q 31.25 6.0625 34.171875 8.515625 
Q 37.109375 10.984375 37.109375 14.3125 
Q 37.109375 17.28125 34.515625 19 
Q 32.71875 20.171875 25.53125 21.96875 
Q 15.875 24.421875 12.140625 26.203125 
Q 8.40625 27.984375 6.46875 31.125 
Q 4.546875 34.28125 4.546875 38.09375 
Q 4.546875 41.546875 6.125 44.5 
Q 7.71875 47.46875 10.453125 49.421875 
Q 12.5 50.921875 16.03125 51.96875 
Q 19.578125 53.03125 23.640625 53.03125 
Q 29.734375 53.03125 34.34375 51.265625 
Q 38.96875 49.515625 41.15625 46.5 
Q 43.359375 43.5 44.1875 38.484375 
L 35.59375 37.3125 
Q 35.015625 41.3125 32.203125 43.546875 
Q 29.390625 45.796875 24.265625 45.796875 
Q 18.21875 45.796875 15.625 43.796875 
Q 13.03125 41.796875 13.03125 39.109375 
Q 13.03125 37.40625 14.109375 36.03125 
Q 15.1875 34.625 17.484375 33.6875 
Q 18.796875 33.203125 25.25 31.453125 
Q 34.578125 28.953125 38.25 27.359375 
Q 41.9375 25.78125 44.03125 22.75 
Q 46.140625 19.734375 46.140625 15.234375 
Q 46.140625 10.84375 43.578125 6.953125 
Q 41.015625 3.078125 36.171875 0.953125 
Q 31.34375 -1.171875 25.25 -1.171875 
Q 15.140625 -1.171875 9.84375 3.03125 
Q 4.546875 7.234375 3.078125 15.484375 
z
" id="ArialMT-115"/>
     <path d="M 3.328125 25.921875 
Q 3.328125 40.328125 11.328125 47.265625 
Q 18.015625 53.03125 27.640625 53.03125 
Q 38.328125 53.03125 45.109375 46.015625 
Q 51.90625 39.015625 51.90625 26.65625 
Q 51.90625 16.65625 48.90625 10.90625 
Q 45.90625 5.171875 40.15625 2 
Q 34.421875 -1.171875 27.640625 -1.171875 
Q 16.75 -1.171875 10.03125 5.8125 
Q 3.328125 12.796875 3.328125 25.921875 
z
M 12.359375 25.921875 
Q 12.359375 15.96875 16.703125 11.015625 
Q 21.046875 6.0625 27.640625 6.0625 
Q 34.1875 6.0625 38.53125 11.03125 
Q 42.875 16.015625 42.875 26.21875 
Q 42.875 35.84375 38.5 40.796875 
Q 34.125 45.75 27.640625 45.75 
Q 21.046875 45.75 16.703125 40.8125 
Q 12.359375 35.890625 12.359375 25.921875 
z
" id="ArialMT-111"/>
     <path d="M 20.21875 0 
L 1.21875 71.578125 
L 10.9375 71.578125 
L 21.828125 24.65625 
Q 23.578125 17.28125 24.859375 10.015625 
Q 27.59375 21.484375 28.078125 23.25 
L 41.703125 71.578125 
L 53.125 71.578125 
L 63.375 35.359375 
Q 67.234375 21.875 68.953125 10.015625 
Q 70.3125 16.796875 72.515625 25.59375 
L 83.734375 71.578125 
L 93.265625 71.578125 
L 73.640625 0 
L 64.5 0 
L 49.421875 54.546875 
Q 47.515625 61.375 47.171875 62.9375 
Q 46.046875 58.015625 45.0625 54.546875 
L 29.890625 0 
z
" id="ArialMT-87"/>
     <path d="M 40.4375 6.390625 
Q 35.546875 2.25 31.03125 0.53125 
Q 26.515625 -1.171875 21.34375 -1.171875 
Q 12.796875 -1.171875 8.203125 3 
Q 3.609375 7.171875 3.609375 13.671875 
Q 3.609375 17.484375 5.34375 20.625 
Q 7.078125 23.78125 9.890625 25.6875 
Q 12.703125 27.59375 16.21875 28.5625 
Q 18.796875 29.25 24.03125 29.890625 
Q 34.671875 31.15625 39.703125 32.90625 
Q 39.75 34.71875 39.75 35.203125 
Q 39.75 40.578125 37.25 42.78125 
Q 33.890625 45.75 27.25 45.75 
Q 21.046875 45.75 18.09375 43.578125 
Q 15.140625 41.40625 13.71875 35.890625 
L 5.125 37.0625 
Q 6.296875 42.578125 8.984375 45.96875 
Q 11.671875 49.359375 16.75 51.1875 
Q 21.828125 53.03125 28.515625 53.03125 
Q 35.15625 53.03125 39.296875 51.46875 
Q 43.453125 49.90625 45.40625 47.53125 
Q 47.359375 45.171875 48.140625 41.546875 
Q 48.578125 39.3125 48.578125 33.453125 
L 48.578125 21.734375 
Q 48.578125 9.46875 49.140625 6.21875 
Q 49.703125 2.984375 51.375 0 
L 42.1875 0 
Q 40.828125 2.734375 40.4375 6.390625 
z
M 39.703125 26.03125 
Q 34.90625 24.078125 25.34375 22.703125 
Q 19.921875 21.921875 17.671875 20.9375 
Q 15.4375 19.96875 14.203125 18.09375 
Q 12.984375 16.21875 12.984375 13.921875 
Q 12.984375 10.40625 15.640625 8.0625 
Q 18.3125 5.71875 23.4375 5.71875 
Q 28.515625 5.71875 32.46875 7.9375 
Q 36.421875 10.15625 38.28125 14.015625 
Q 39.703125 17 39.703125 22.796875 
z
" id="ArialMT-97"/>
     <path d="M 6.390625 0 
L 6.390625 71.578125 
L 15.1875 71.578125 
L 15.1875 0 
z
" id="ArialMT-108"/>
     <path d="M 6.640625 0 
L 6.640625 71.578125 
L 15.4375 71.578125 
L 15.4375 30.765625 
L 36.234375 51.859375 
L 47.609375 51.859375 
L 27.78125 32.625 
L 49.609375 0 
L 38.765625 0 
L 21.625 26.515625 
L 15.4375 20.5625 
L 15.4375 0 
z
" id="ArialMT-107"/>
     <path d="M 6.640625 61.46875 
L 6.640625 71.578125 
L 15.4375 71.578125 
L 15.4375 61.46875 
z
M 6.640625 0 
L 6.640625 51.859375 
L 15.4375 51.859375 
L 15.4375 0 
z
" id="ArialMT-105"/>
     <path d="M 4.984375 -4.296875 
L 13.53125 -5.5625 
Q 14.0625 -9.515625 16.5 -11.328125 
Q 19.78125 -13.765625 25.4375 -13.765625 
Q 31.546875 -13.765625 34.859375 -11.328125 
Q 38.1875 -8.890625 39.359375 -4.5 
Q 40.046875 -1.8125 39.984375 6.78125 
Q 34.234375 0 25.640625 0 
Q 14.9375 0 9.078125 7.71875 
Q 3.21875 15.4375 3.21875 26.21875 
Q 3.21875 33.640625 5.90625 39.90625 
Q 8.59375 46.1875 13.6875 49.609375 
Q 18.796875 53.03125 25.6875 53.03125 
Q 34.859375 53.03125 40.828125 45.609375 
L 40.828125 51.859375 
L 48.921875 51.859375 
L 48.921875 7.03125 
Q 48.921875 -5.078125 46.453125 -10.125 
Q 44 -15.1875 38.640625 -18.109375 
Q 33.296875 -21.046875 25.484375 -21.046875 
Q 16.21875 -21.046875 10.5 -16.875 
Q 4.78125 -12.703125 4.984375 -4.296875 
z
M 12.25 26.859375 
Q 12.25 16.65625 16.296875 11.96875 
Q 20.359375 7.28125 26.46875 7.28125 
Q 32.515625 7.28125 36.609375 11.9375 
Q 40.71875 16.609375 40.71875 26.5625 
Q 40.71875 36.078125 36.5 40.90625 
Q 32.28125 45.75 26.3125 45.75 
Q 20.453125 45.75 16.34375 40.984375 
Q 12.25 36.234375 12.25 26.859375 
z
" id="ArialMT-103"/>
     <path d="M -0.140625 0 
L 27.34375 71.578125 
L 37.546875 71.578125 
L 66.84375 0 
L 56.0625 0 
L 47.703125 21.6875 
L 17.78125 21.6875 
L 9.90625 0 
z
M 20.515625 29.390625 
L 44.78125 29.390625 
L 37.3125 49.21875 
Q 33.890625 58.25 32.234375 64.0625 
Q 30.859375 57.171875 28.375 50.390625 
z
" id="ArialMT-65"/>
     <path d="M 40.578125 0 
L 40.578125 7.625 
Q 34.515625 -1.171875 24.125 -1.171875 
Q 19.53125 -1.171875 15.546875 0.578125 
Q 11.578125 2.34375 9.640625 5 
Q 7.71875 7.671875 6.9375 11.53125 
Q 6.390625 14.109375 6.390625 19.734375 
L 6.390625 51.859375 
L 15.1875 51.859375 
L 15.1875 23.09375 
Q 15.1875 16.21875 15.71875 13.8125 
Q 16.546875 10.359375 19.234375 8.375 
Q 21.921875 6.390625 25.875 6.390625 
Q 29.828125 6.390625 33.296875 8.421875 
Q 36.765625 10.453125 38.203125 13.9375 
Q 39.65625 17.4375 39.65625 24.078125 
L 39.65625 51.859375 
L 48.4375 51.859375 
L 48.4375 0 
z
" id="ArialMT-117"/>
     <path d="M 40.234375 0 
L 40.234375 6.546875 
Q 35.296875 -1.171875 25.734375 -1.171875 
Q 19.53125 -1.171875 14.328125 2.25 
Q 9.125 5.671875 6.265625 11.796875 
Q 3.421875 17.921875 3.421875 25.875 
Q 3.421875 33.640625 6 39.96875 
Q 8.59375 46.296875 13.765625 49.65625 
Q 18.953125 53.03125 25.34375 53.03125 
Q 30.03125 53.03125 33.6875 51.046875 
Q 37.359375 49.078125 39.65625 45.90625 
L 39.65625 71.578125 
L 48.390625 71.578125 
L 48.390625 0 
z
M 12.453125 25.875 
Q 12.453125 15.921875 16.640625 10.984375 
Q 20.84375 6.0625 26.5625 6.0625 
Q 32.328125 6.0625 36.34375 10.765625 
Q 40.375 15.484375 40.375 25.140625 
Q 40.375 35.796875 36.265625 40.765625 
Q 32.171875 45.75 26.171875 45.75 
Q 20.3125 45.75 16.375 40.96875 
Q 12.453125 36.1875 12.453125 25.875 
z
" id="ArialMT-100"/>
     <path d="M 25.921875 0 
L 25.921875 63.140625 
L 2.34375 63.140625 
L 2.34375 71.578125 
L 59.078125 71.578125 
L 59.078125 63.140625 
L 35.40625 63.140625 
L 35.40625 0 
z
" id="ArialMT-84"/>
     <path d="M 6.59375 0 
L 6.59375 71.578125 
L 15.375 71.578125 
L 15.375 45.90625 
Q 21.53125 53.03125 30.90625 53.03125 
Q 36.671875 53.03125 40.921875 50.75 
Q 45.171875 48.484375 47 44.484375 
Q 48.828125 40.484375 48.828125 32.859375 
L 48.828125 0 
L 40.046875 0 
L 40.046875 32.859375 
Q 40.046875 39.453125 37.1875 42.453125 
Q 34.328125 45.453125 29.109375 45.453125 
Q 25.203125 45.453125 21.75 43.421875 
Q 18.3125 41.40625 16.84375 37.9375 
Q 15.375 34.46875 15.375 28.375 
L 15.375 0 
z
" id="ArialMT-104"/>
     <path d="M 7.859375 0 
L 7.859375 71.578125 
L 39.59375 71.578125 
Q 49.171875 71.578125 54.140625 69.640625 
Q 59.125 67.71875 62.109375 62.828125 
Q 65.09375 57.953125 65.09375 52.046875 
Q 65.09375 44.4375 60.15625 39.203125 
Q 55.21875 33.984375 44.921875 32.5625 
Q 48.6875 30.765625 50.640625 29 
Q 54.78125 25.203125 58.5 19.484375 
L 70.953125 0 
L 59.03125 0 
L 49.5625 14.890625 
Q 45.40625 21.34375 42.71875 24.75 
Q 40.046875 28.171875 37.921875 29.53125 
Q 35.796875 30.90625 33.59375 31.453125 
Q 31.984375 31.78125 28.328125 31.78125 
L 17.328125 31.78125 
L 17.328125 0 
z
M 17.328125 39.984375 
L 37.703125 39.984375 
Q 44.1875 39.984375 47.84375 41.328125 
Q 51.515625 42.671875 53.421875 45.625 
Q 55.328125 48.578125 55.328125 52.046875 
Q 55.328125 57.125 51.640625 60.390625 
Q 47.953125 63.671875 39.984375 63.671875 
L 17.328125 63.671875 
z
" id="ArialMT-82"/>
     <path d="M 6.59375 0 
L 6.59375 51.859375 
L 14.453125 51.859375 
L 14.453125 44.578125 
Q 16.890625 48.390625 20.9375 50.703125 
Q 25 53.03125 30.171875 53.03125 
Q 35.9375 53.03125 39.625 50.640625 
Q 43.3125 48.25 44.828125 43.953125 
Q 50.984375 53.03125 60.84375 53.03125 
Q 68.5625 53.03125 72.703125 48.75 
Q 76.859375 44.484375 76.859375 35.59375 
L 76.859375 0 
L 68.109375 0 
L 68.109375 32.671875 
Q 68.109375 37.9375 67.25 40.25 
Q 66.40625 42.578125 64.15625 43.984375 
Q 61.921875 45.40625 58.890625 45.40625 
Q 53.421875 45.40625 49.796875 41.765625 
Q 46.1875 38.140625 46.1875 30.125 
L 46.1875 0 
L 37.40625 0 
L 37.40625 33.6875 
Q 37.40625 39.546875 35.25 42.46875 
Q 33.109375 45.40625 28.21875 45.40625 
Q 24.515625 45.40625 21.359375 43.453125 
Q 18.21875 41.5 16.796875 37.734375 
Q 15.375 33.984375 15.375 26.90625 
L 15.375 0 
z
" id="ArialMT-109"/>
    </defs>
    <g style="fill:#262626;" transform="translate(523.499531 75.9936)scale(0.21 -0.21)">
     <use xlink:href="#ArialMT-79"/>
     <use x="77.783203" xlink:href="#ArialMT-110"/>
     <use x="133.398438" xlink:href="#ArialMT-101"/>
     <use x="189.013672" xlink:href="#ArialMT-32"/>
     <use x="216.796875" xlink:href="#ArialMT-80"/>
     <use x="283.496094" xlink:href="#ArialMT-101"/>
     <use x="339.111328" xlink:href="#ArialMT-114"/>
     <use x="372.412109" xlink:href="#ArialMT-115"/>
     <use x="422.412109" xlink:href="#ArialMT-111"/>
     <use x="478.027344" xlink:href="#ArialMT-110"/>
     <use x="533.642578" xlink:href="#ArialMT-32"/>
     <use x="561.425781" xlink:href="#ArialMT-87"/>
     <use x="655.763672" xlink:href="#ArialMT-97"/>
     <use x="711.378906" xlink:href="#ArialMT-108"/>
     <use x="733.595703" xlink:href="#ArialMT-107"/>
     <use x="783.595703" xlink:href="#ArialMT-105"/>
     <use x="805.8125" xlink:href="#ArialMT-110"/>
     <use x="861.427734" xlink:href="#ArialMT-103"/>
     <use x="917.042969" xlink:href="#ArialMT-32"/>
     <use x="944.748047" xlink:href="#ArialMT-65"/>
     <use x="1011.447266" xlink:href="#ArialMT-114"/>
     <use x="1044.748047" xlink:href="#ArialMT-111"/>
     <use x="1100.363281" xlink:href="#ArialMT-117"/>
     <use x="1155.978516" xlink:href="#ArialMT-110"/>
     <use x="1211.59375" xlink:href="#ArialMT-100"/>
     <use x="1267.208984" xlink:href="#ArialMT-32"/>
     <use x="1294.976562" xlink:href="#ArialMT-84"/>
     <use x="1356.060547" xlink:href="#ArialMT-104"/>
     <use x="1411.675781" xlink:href="#ArialMT-101"/>
     <use x="1467.291016" xlink:href="#ArialMT-32"/>
     <use x="1495.074219" xlink:href="#ArialMT-82"/>
     <use x="1567.291016" xlink:href="#ArialMT-111"/>
     <use x="1622.90625" xlink:href="#ArialMT-111"/>
     <use x="1678.521484" xlink:href="#ArialMT-109"/>
    </g>
   </g>
  </g>
 </g>
 <defs>
  <clipPath id="p37a9909a91">
   <rect height="526.1256" width="1071.36" x="172.8" y="81.9936"/>
  </clipPath>
 </defs>
</svg>
